<svg width="357" height="207" viewBox="0 0 357 207" fill="none" xmlns="http://www.w3.org/2000/svg">
<rect width="357" height="207" fill="#FBFBFB"/>
<path d="M178.145 180C185.512 180 191.195 173.072 191.195 163.204C191.195 158.376 189.301 150.608 185.722 139.691C182.144 128.773 180.25 118.696 180.25 109.669V106.939C189.511 112.818 195.826 117.646 198.773 121.006C204.877 127.934 220.874 147.668 233.292 147.668C240.659 147.668 245.711 142.42 245.711 136.122C245.711 132.552 244.237 129.403 241.291 126.254C235.397 120.166 222.347 117.227 206.982 113.867C199.194 112.188 190.985 109.039 181.934 104C191.195 98.9613 199.615 95.6022 207.613 93.9227C215.401 92.2431 222.347 90.5635 228.241 88.674C240.449 84.6851 245.711 78.5967 245.711 71.4586C245.711 64.9503 240.659 60.3315 233.924 60.3315C229.714 60.3315 225.715 61.5912 221.716 64.3204C217.927 66.8398 210.981 73.558 201.088 84.4751C190.774 94.3425 192.248 93.5028 180.25 101.061C180.25 90.9834 182.144 80.2762 185.933 69.1492C189.722 58.0221 191.616 49.8343 191.616 44.7956C191.616 34.7182 185.933 28 178.566 28C170.988 28 165.516 35.1381 165.516 44.7956C165.516 52.1436 170.778 67.8895 174.146 77.9668C175.83 83.0055 176.461 89.9337 176.461 98.3315V101.061C168.042 96.0221 161.517 90.7735 156.886 85.5249C147.625 75.0276 134.574 60.3315 123.419 60.3315C116.052 60.3315 111 65.1602 111 71.4586C111 75.0276 112.473 78.3867 115.21 81.5359C120.682 87.8343 133.311 90.5635 149.098 93.9227C157.096 95.6022 165.726 98.9613 174.777 104C165.937 109.039 157.517 112.398 149.94 113.867C142.152 115.337 135.206 117.227 129.102 118.906C116.683 122.265 111 129.193 111 136.122C111 142.42 116.473 147.668 123.208 147.668C134.153 147.668 144.467 136.122 154.992 124.365C160.254 118.486 167.2 112.608 176.461 106.939C176.461 117.856 174.567 128.354 170.778 139.271C166.989 149.978 165.095 157.956 165.095 163.204C165.095 172.652 170.357 180 178.145 180Z" fill="black"/>
</svg>
