<svg width="24" height="24" viewBox="0 0 24 24" fill="none" xmlns="http://www.w3.org/2000/svg">
<path d="M5.29289 16.6066C4.90237 16.9971 4.90237 17.6303 5.29289 18.0208C5.68342 18.4114 6.31658 18.4114 6.70711 18.0208L5.29289 16.6066ZM18.3137 6.00001C18.3137 5.44773 17.866 5.00001 17.3137 5.00001L8.31371 5.00001C7.76142 5.00001 7.31371 5.44773 7.31371 6.00001C7.31371 6.5523 7.76142 7.00001 8.31371 7.00001H16.3137V15C16.3137 15.5523 16.7614 16 17.3137 16C17.866 16 18.3137 15.5523 18.3137 15L18.3137 6.00001ZM6.70711 18.0208L18.0208 6.70712L16.6066 5.29291L5.29289 16.6066L6.70711 18.0208Z" fill="#900B63"/>
</svg>
