<svg width="1440" height="1366" viewBox="0 0 1440 1366" fill="none" xmlns="http://www.w3.org/2000/svg">
<g clip-path="url(#clip0)">
<rect width="1440" height="1366" fill="#100E28"/>
<path d="M1214 114L1229.03 142.309L1254.27 122.559L1256.48 154.532L1287.57 146.756L1276.59 176.865L1308.15 182.407L1285.87 205.446L1312.46 223.348L1282.73 235.333L1299.74 262.5L1267.71 261.358L1272.19 293.093L1243.39 279.022L1234.58 309.837L1214 285.27L1193.42 309.837L1184.61 279.022L1155.81 293.093L1160.29 261.358L1128.26 262.5L1145.27 235.333L1115.54 223.348L1142.13 205.446L1119.85 182.407L1151.41 176.865L1140.43 146.756L1171.52 154.532L1173.73 122.559L1198.97 142.309L1214 114Z" fill="#675FC7"/>
<path d="M256 1195L303.85 1195C303.85 1174.5 318.804 1163 336.249 1163C353.695 1163 367.651 1174 367.651 1195L416 1195C414.837 1166.5 395.065 1117 334.255 1117C277.433 1117 256 1170.5 256 1195Z" fill="#E5ACD2"/>
<path d="M914.088 735.545L958.752 700.597L962.666 757.174L962.749 758.364L963.907 758.075L1018.92 744.315L999.488 797.592L999.079 798.714L1000.25 798.92L1056.11 808.727L1016.69 849.493L1015.86 850.351L1016.85 851.018L1063.89 882.697L1011.29 903.903L1010.18 904.349L1010.82 905.361L1040.9 953.434L984.227 951.413L983.035 951.37L983.202 952.552L991.135 1008.71L940.181 983.808L939.109 983.284L938.781 984.432L923.189 1038.96L886.767 995.488L886 994.573L885.233 995.488L848.811 1038.96L833.219 984.432L832.891 983.284L831.819 983.808L780.865 1008.71L788.798 952.552L788.965 951.37L787.773 951.413L731.097 953.434L761.185 905.361L761.818 904.349L760.711 903.903L708.113 882.697L755.152 851.018L756.142 850.351L755.313 849.493L715.887 808.727L771.745 798.92L772.921 798.714L772.512 797.592L753.076 744.315L808.093 758.075L809.251 758.364L809.334 757.174L813.248 700.597L857.912 735.545L858.852 736.28L859.412 735.226L886 685.133L912.588 735.226L913.148 736.28L914.088 735.545Z" stroke="#F5EA87" stroke-width="2"/>
<path d="M336 174H288.15C288.15 194.5 273.196 206 255.751 206C238.305 206 224.349 195 224.349 174H176C177.163 202.5 196.935 252 257.745 252C314.567 252 336 198.5 336 174Z" stroke="#C1BEE8" stroke-width="2"/>
</g>
<defs>
<clipPath id="clip0">
<rect width="1440" height="1366" fill="white"/>
</clipPath>
</defs>
</svg>
