<svg width="1440" height="1366" viewBox="0 0 1440 1366" fill="none" xmlns="http://www.w3.org/2000/svg">
<g clip-path="url(#clip0)">
<rect width="1440" height="1366" fill="#100E28"/>
<path d="M92 722C92 659.697 36.4557 618 -12 618V722H92Z" stroke="#F5EA87" stroke-width="2"/>
<path d="M1275 1189C1275 1090.75 1187.41 1025 1111 1025V1189H1275Z" stroke="#F5EA87" stroke-width="2"/>
<path d="M1219.57 145.685L1261.68 112.732L1265.38 166.079L1265.46 167.27L1266.62 166.981L1318.49 154.006L1300.17 204.242L1299.76 205.364L1300.93 205.57L1353.6 214.817L1316.43 253.257L1315.6 254.114L1316.59 254.781L1360.94 284.651L1311.35 304.647L1310.24 305.093L1310.87 306.105L1339.24 351.434L1285.8 349.528L1284.61 349.486L1284.78 350.667L1292.26 403.616L1244.21 380.139L1243.14 379.615L1242.81 380.763L1228.11 432.177L1193.77 391.188L1193 390.273L1192.23 391.188L1157.89 432.177L1143.19 380.763L1142.86 379.615L1141.79 380.139L1093.74 403.616L1101.22 350.667L1101.39 349.486L1100.2 349.528L1046.76 351.434L1075.13 306.105L1075.76 305.093L1074.65 304.647L1025.06 284.651L1069.41 254.781L1070.4 254.114L1069.57 253.257L1032.4 214.817L1085.07 205.57L1086.24 205.364L1085.83 204.242L1067.51 154.006L1119.38 166.981L1120.54 167.27L1120.62 166.079L1124.32 112.732L1166.43 145.685L1167.37 146.421L1167.93 145.367L1193 98.133L1218.07 145.367L1218.63 146.421L1219.57 145.685Z" stroke="#F5EA87" stroke-width="2"/>
<path d="M256 1090L271.026 1118.31L296.267 1098.56L298.479 1130.53L329.571 1122.76L318.588 1152.87L350.155 1158.41L327.874 1181.45L354.458 1199.35L324.733 1211.33L341.737 1238.5L309.707 1237.36L314.191 1269.09L285.395 1255.02L276.583 1285.84L256 1261.27L235.417 1285.84L226.605 1255.02L197.809 1269.09L202.293 1237.36L170.263 1238.5L187.267 1211.33L157.542 1199.35L184.126 1181.45L161.845 1158.41L193.412 1152.87L182.429 1122.76L213.521 1130.53L215.733 1098.56L240.974 1118.31L256 1090Z" fill="#675FC7"/>
<path d="M223 114L233.017 132.873L249.845 119.706L251.319 141.022L272.048 135.837L264.725 155.91L285.77 159.605L270.916 174.964L288.638 186.899L268.822 194.888L280.158 213L258.805 212.239L261.794 233.395L242.597 224.015L236.722 244.558L223 228.18L209.278 244.558L203.403 224.015L184.206 233.395L187.195 212.239L165.842 213L177.178 194.888L157.362 186.899L175.084 174.964L160.23 159.605L181.275 155.91L173.952 135.837L194.681 141.022L196.155 119.706L212.983 132.873L223 114Z" fill="#675FC7"/>
<path d="M1073 809L1120.85 809C1120.85 788.5 1135.8 777 1153.25 777C1170.69 777 1184.65 788 1184.65 809L1233 809C1231.84 780.5 1212.07 731 1151.26 731C1094.43 731 1073 784.5 1073 809Z" fill="#E5ACD2"/>
<path d="M336 554H288.15C288.15 574.5 273.196 586 255.751 586C238.305 586 224.349 575 224.349 554H176C177.163 582.5 196.935 632 257.745 632C314.567 632 336 578.5 336 554Z" stroke="#C1BEE8" stroke-width="2"/>
</g>
<defs>
<clipPath id="clip0">
<rect width="1440" height="1366" fill="white"/>
</clipPath>
</defs>
</svg>
