<svg width="1440" height="1366" viewBox="0 0 1440 1366" fill="none" xmlns="http://www.w3.org/2000/svg">
<g clip-path="url(#clip0_1119_91)">
<rect width="1440" height="1366" fill="#100E28"/>
<g filter="url(#filter0_d_1119_91)">
<path d="M704.77 792.667C1076.6 780.324 1440.75 96.5795 1635.93 199.306L1698.97 1461.05L-360.019 1618.98L-276.467 610.903C540.588 507.63 196.37 809.544 704.77 792.667Z" fill="#201694"/>
</g>
<path d="M984.396 554.939L1028.32 520.571L1032.17 576.208L1032.29 577.994L1034.03 577.56L1088.13 564.028L1069.02 616.421L1068.41 618.103L1070.17 618.412L1125.1 628.057L1086.33 668.146L1085.08 669.433L1086.57 670.433L1132.83 701.585L1081.1 722.439L1079.44 723.109L1080.39 724.626L1109.98 771.9L1054.25 769.913L1052.46 769.849L1052.71 771.622L1060.51 826.844L1010.4 802.359L1008.79 801.573L1008.3 803.294L992.967 856.915L957.15 814.167L956 812.794L954.85 814.167L919.033 856.915L903.7 803.294L903.208 801.573L901.599 802.359L851.491 826.844L859.294 771.622L859.544 769.849L857.755 769.913L802.02 771.9L831.608 724.626L832.558 723.109L830.898 722.439L779.173 701.585L825.432 670.433L826.917 669.433L825.672 668.146L786.902 628.057L841.831 618.412L843.595 618.103L842.981 616.421L823.868 564.028L877.972 577.56L879.709 577.994L879.832 576.208L883.682 520.571L927.604 554.939L929.014 556.042L929.854 554.461L956 505.199L982.146 554.461L982.986 556.042L984.396 554.939Z" stroke="#FF5F57" stroke-width="3"/>
<path d="M325 146H277.15C277.15 166.5 262.196 178 244.751 178C227.305 178 213.349 167 213.349 146H165C166.163 174.5 185.935 224 246.745 224C303.567 224 325 170.5 325 146Z" stroke="#E9D83E" stroke-width="3"/>
</g>
<defs>
<filter id="filter0_d_1119_91" x="-408.019" y="156.794" width="2154.99" height="1526.19" filterUnits="userSpaceOnUse" color-interpolation-filters="sRGB">
<feFlood flood-opacity="0" result="BackgroundImageFix"/>
<feColorMatrix in="SourceAlpha" type="matrix" values="0 0 0 0 0 0 0 0 0 0 0 0 0 0 0 0 0 0 127 0" result="hardAlpha"/>
<feOffset dy="16"/>
<feGaussianBlur stdDeviation="24"/>
<feColorMatrix type="matrix" values="0 0 0 0 0 0 0 0 0 0 0 0 0 0 0 0 0 0 0.176 0"/>
<feBlend mode="normal" in2="BackgroundImageFix" result="effect1_dropShadow_1119_91"/>
<feBlend mode="normal" in="SourceGraphic" in2="effect1_dropShadow_1119_91" result="shape"/>
</filter>
<clipPath id="clip0_1119_91">
<rect width="1440" height="1366" fill="white"/>
</clipPath>
</defs>
</svg>
