<svg width="1440" height="1366" viewBox="0 0 1440 1366" fill="none" xmlns="http://www.w3.org/2000/svg">
<g clip-path="url(#clip0_1119_91)">
<rect width="1440" height="1366" fill="#100E28"/>
<g filter="url(#filter0_d_1119_91)">
<path d="M696.27 768.764C1068.1 756.421 1105 567 1442.5 587L1698.97 1461.05L-360.019 1618.98L-276.468 610.903C540.587 507.63 187.87 785.641 696.27 768.764Z" fill="#201694"/>
</g>
<path d="M984.396 554.939L1028.32 520.571L1032.17 576.208L1032.29 577.994L1034.03 577.56L1088.13 564.028L1069.02 616.421L1068.41 618.103L1070.17 618.412L1125.1 628.057L1086.33 668.146L1085.08 669.433L1086.57 670.433L1132.83 701.585L1081.1 722.439L1079.44 723.109L1080.39 724.626L1109.98 771.9L1054.25 769.913L1052.46 769.849L1052.71 771.622L1060.51 826.844L1010.4 802.359L1008.79 801.573L1008.3 803.294L992.967 856.915L957.15 814.167L956 812.794L954.85 814.167L919.033 856.915L903.7 803.294L903.208 801.573L901.599 802.359L851.491 826.844L859.294 771.622L859.544 769.849L857.755 769.913L802.02 771.9L831.608 724.626L832.558 723.109L830.898 722.439L779.173 701.585L825.432 670.433L826.917 669.433L825.672 668.146L786.902 628.057L841.831 618.412L843.595 618.103L842.981 616.421L823.868 564.028L877.972 577.56L879.709 577.994L879.832 576.208L883.682 520.571L927.604 554.939L929.014 556.042L929.854 554.461L956 505.199L982.146 554.461L982.986 556.042L984.396 554.939Z" stroke="#FF5F57" stroke-width="3"/>
<path d="M373.347 604.065L399.55 583.563L401.846 616.754L401.97 618.54L403.707 618.105L435.983 610.033L424.581 641.288L423.967 642.97L425.731 643.28L458.5 649.033L435.371 672.949L434.126 674.236L435.611 675.236L463.207 693.82L432.35 706.261L430.69 706.931L431.64 708.448L449.291 736.65L416.042 735.465L414.253 735.401L414.503 737.174L419.157 770.117L389.265 755.51L387.656 754.724L387.164 756.446L378.017 788.434L356.65 762.932L355.5 761.559L354.35 762.932L332.983 788.434L323.836 756.446L323.344 754.724L321.735 755.51L291.843 770.117L296.497 737.174L296.747 735.401L294.958 735.465L261.709 736.65L279.36 708.448L280.31 706.931L278.65 706.261L247.793 693.82L275.389 675.236L276.874 674.236L275.629 672.949L252.5 649.033L285.269 643.28L287.033 642.97L286.419 641.288L275.017 610.033L307.293 618.105L309.03 618.54L309.154 616.754L311.45 583.563L337.653 604.065L339.063 605.168L339.902 603.587L355.5 574.199L371.098 603.587L371.937 605.168L373.347 604.065Z" stroke="#E9D83E" stroke-width="3"/>
</g>
<defs>
<filter id="filter0_d_1119_91" x="-408.019" y="553.522" width="2154.99" height="1129.46" filterUnits="userSpaceOnUse" color-interpolation-filters="sRGB">
<feFlood flood-opacity="0" result="BackgroundImageFix"/>
<feColorMatrix in="SourceAlpha" type="matrix" values="0 0 0 0 0 0 0 0 0 0 0 0 0 0 0 0 0 0 127 0" result="hardAlpha"/>
<feOffset dy="16"/>
<feGaussianBlur stdDeviation="24"/>
<feColorMatrix type="matrix" values="0 0 0 0 0 0 0 0 0 0 0 0 0 0 0 0 0 0 0.176 0"/>
<feBlend mode="normal" in2="BackgroundImageFix" result="effect1_dropShadow_1119_91"/>
<feBlend mode="normal" in="SourceGraphic" in2="effect1_dropShadow_1119_91" result="shape"/>
</filter>
<clipPath id="clip0_1119_91">
<rect width="1440" height="1366" fill="white"/>
</clipPath>
</defs>
</svg>
