<svg width="229" height="265" viewBox="0 0 229 265" fill="none" xmlns="http://www.w3.org/2000/svg">
<path d="M88.3895 18.3221C48.1962 -3.6347 24.6664 28.7305 17.9257 47.6577C7.61695 85.2841 -7.21204 170.259 15.9417 209.146C44.884 257.755 195.179 231.251 215.365 204.814C235.551 178.376 203.221 99.1913 175.44 70.6095C141.615 35.811 138.631 45.768 88.3895 18.3221Z" fill="#DDEEE9"/>
<path d="M73.6136 71.3081C67.4749 68.3995 51.6866 65.7339 37.6436 78.3401C42.2421 82.7901 55.8741 87.6137 73.6136 71.3081Z" fill="#51B197"/>
<path fill-rule="evenodd" clip-rule="evenodd" d="M36.2678 76.8067C51.07 63.5191 67.7952 66.2711 74.4961 69.446L77.2593 70.7552L75.0081 72.8244C65.8671 81.2266 57.5821 84.3629 50.7928 84.6652C44.04 84.9658 38.9273 82.4483 36.2114 79.8202L34.6231 78.2832L36.2678 76.8067ZM40.9249 78.2683C43.11 79.6087 46.4035 80.7363 50.6095 80.549C55.6515 80.3245 62.1384 78.1986 69.6408 72.0356C63.1303 70.1895 51.6887 69.7768 40.9249 78.2683Z" fill="#395250"/>
<path d="M76.5598 68.5837C82.3539 64.8246 93.0529 52.7821 89.4958 34.6847C83.1728 36.3805 71.7335 45.5345 76.5598 68.5837Z" fill="#51B197"/>
<path fill-rule="evenodd" clip-rule="evenodd" d="M91.5207 34.244C95.2835 53.3875 83.966 66.2065 77.6565 70.2999L75.1429 71.9306L74.5395 69.0486C72.0482 57.1507 73.7052 48.5649 77.0555 42.6474C80.3854 36.766 85.2977 33.6929 89.003 32.6991L91.1062 32.135L91.5207 34.244ZM87.8568 37.497C85.4968 38.6775 82.7241 40.9209 80.6378 44.6059C78.1673 48.9693 76.5839 55.4979 77.9982 64.8965C83.0792 60.3304 89.5753 50.8353 87.8568 37.497Z" fill="#395250"/>
<path d="M86.4251 89.2498C93.2327 88.1843 107.968 81.5361 112.451 63.467C106.043 62.4218 91.8677 66.1151 86.4251 89.2498Z" fill="#51B197"/>
<path fill-rule="evenodd" clip-rule="evenodd" d="M114.472 63.9229C109.741 82.9976 94.1492 90.1009 86.7257 91.2628L83.7103 91.7347L84.3965 88.818C87.2032 76.8879 92.3302 69.707 97.8427 65.6652C103.324 61.6464 109.048 60.841 112.819 61.4563L114.996 61.8114L114.472 63.9229ZM109.763 65.3633C107.154 65.4865 103.731 66.4071 100.308 68.917C96.227 71.9095 92.0289 77.2527 89.3079 86.4497C95.8154 84.3302 105.651 78.284 109.763 65.3633Z" fill="#395250"/>
<path d="M149.162 219.311C142.489 183.444 126.368 115.392 109.798 105.724C105.435 103.179 98.2785 104.63 94.0387 106.763C93.1797 107.195 92.3628 107.68 91.5883 108.206C83.5985 113.629 84.5725 124.852 89.3991 133.216C107.995 165.442 136.02 202.877 149.162 219.311Z" fill="#ED8C1B"/>
<path fill-rule="evenodd" clip-rule="evenodd" d="M94.0387 106.763C93.9639 106.8 93.8894 106.838 93.8153 106.877C93.0377 107.28 92.2953 107.726 91.5883 108.206C83.5985 113.629 84.5725 124.852 89.3991 133.216C105.678 161.427 129.183 193.63 143.604 212.242C145.656 214.89 147.525 217.264 149.162 219.311C148.648 216.546 148.077 213.589 147.454 210.483C140 173.297 125.09 114.647 109.798 105.724C105.435 103.179 98.2785 104.63 94.0387 106.763ZM141.696 202.976C127.337 184.034 107.304 156 92.9678 131.156C90.8582 127.501 89.6843 123.358 89.8055 119.746C89.9234 116.231 91.2248 113.432 93.9024 111.615L91.5883 108.206L93.9024 111.614C94.5374 111.183 95.2001 110.791 95.89 110.444C97.5762 109.596 99.9498 108.843 102.317 108.585C104.759 108.32 106.619 108.639 107.721 109.283C109.075 110.073 110.736 111.666 112.62 114.304C114.471 116.896 116.368 120.256 118.279 124.276C122.101 132.315 125.81 142.632 129.251 153.897C134.151 169.937 138.436 187.658 141.696 202.976Z" fill="#395250"/>
<path fill-rule="evenodd" clip-rule="evenodd" d="M77.6075 70.0429L96.8751 107.789L93.2053 109.662L73.9377 71.9161L77.6075 70.0429Z" fill="#395250"/>
<path fill-rule="evenodd" clip-rule="evenodd" d="M103.084 125.392C100.632 126.889 98.5679 128.789 97.4525 130.042L94.3751 127.302C95.7248 125.786 98.0954 123.61 100.937 121.875C103.74 120.164 107.288 118.709 110.895 119.084L110.469 123.182C108.177 122.944 105.574 123.873 103.084 125.392Z" fill="#395250"/>
<path fill-rule="evenodd" clip-rule="evenodd" d="M107.421 133.208C105.51 134.308 103.768 135.625 102.774 136.481L100.086 133.358C101.248 132.358 103.2 130.883 105.366 129.637C107.46 128.433 110.073 127.251 112.467 127.206L112.545 131.325C111.251 131.35 109.405 132.067 107.421 133.208Z" fill="#395250"/>
</svg>
