<svg width="357" height="207" viewBox="0 0 357 207" fill="none" xmlns="http://www.w3.org/2000/svg">
<rect width="357" height="207" fill="#FBFBFB"/>
<path d="M172.736 180H185.264L181.923 119.868L202.385 176.659L213.659 172.066L187.769 117.363L228.275 162.462L237.044 153.275L192.363 113.187L246.648 139.077L251.659 127.385L194.451 107.341L255 110.264V97.7363L194.451 101.077L251.659 80.6154L246.648 69.3407L192.363 95.2308L237.044 54.7253L228.275 45.956L187.769 90.6374L213.659 36.3516L202.385 31.3407L181.923 88.1319L185.264 28H172.736L175.659 88.5494L155.615 31.3407L143.923 36.3516L169.813 90.6374L129.725 45.956L120.538 54.7253L165.637 95.2308L110.934 69.3407L106.341 80.6154L163.132 101.077L103 97.7363V110.264L163.132 107.341L106.341 127.385L110.934 139.077L165.637 113.187L120.538 153.275L129.725 162.462L169.813 117.363L143.923 172.066L155.615 176.659L175.659 119.868L172.736 180Z" fill="black"/>
</svg>
