<svg width="150" height="39" viewBox="0 0 150 39" fill="none" xmlns="http://www.w3.org/2000/svg">
<path d="M142.561 22.9174C142.444 23.0483 142.355 23.1638 142.251 23.2637C142.208 23.322 142.15 23.368 142.084 23.3971C142.018 23.4262 141.945 23.4374 141.873 23.4295C141.801 23.4217 141.732 23.395 141.674 23.3523C141.616 23.3095 141.57 23.2522 141.54 23.186C141.444 23.0234 141.366 22.8507 141.307 22.671C141.011 21.8097 140.721 20.9463 140.437 20.0806C140.374 19.8625 140.267 19.6596 140.123 19.4843C139.979 19.309 139.8 19.165 139.599 19.061C139.397 18.9571 139.176 18.8955 138.95 18.88C138.723 18.8645 138.496 18.8954 138.282 18.9708C137.921 19.1086 137.576 19.2842 137.252 19.4946C136.559 19.9385 136.04 20.5645 135.525 21.1905C135.121 21.6832 134.728 22.1849 134.302 22.7154C134.322 22.6488 134.328 22.6244 134.335 22.5977C134.673 21.5279 135.025 20.4646 135.336 19.3881C135.533 18.8064 135.628 18.1952 135.618 17.5812C135.558 16.5846 135.008 16.1273 134.027 16.2694C133.423 16.3643 132.876 16.6808 132.493 17.1573C131.931 17.8099 131.383 18.4758 130.826 19.1306C130.073 20.0185 129.33 20.9063 128.551 21.7609C128.095 22.2357 127.566 22.6344 126.984 22.9418C126.732 23.0909 126.447 23.175 126.155 23.1866C125.863 23.1982 125.572 23.137 125.31 23.0084C125.148 22.9496 125.008 22.8433 124.907 22.7036C124.807 22.5638 124.75 22.397 124.746 22.2248C124.736 22.1026 124.753 21.9797 124.796 21.8647C124.838 21.7497 124.905 21.6453 124.992 21.5589C125.901 20.64 126.715 19.6316 127.421 18.549C127.907 17.8266 128.233 17.0085 128.377 16.1495C128.475 15.4459 128.242 14.8732 127.641 14.5957C126.619 14.1074 125.603 14.0697 124.648 14.7889C124.14 15.185 123.721 15.6843 123.419 16.2539C122.629 17.6473 122.15 19.195 122.014 20.7909C122.008 20.9174 121.969 21.0403 121.902 21.1476C121.835 21.2549 121.741 21.343 121.63 21.4035C120.767 21.9512 119.833 22.3784 118.855 22.6732C118.435 22.7975 118.151 22.7087 117.925 22.3292C117.822 22.1616 117.752 21.9764 117.716 21.7831C117.652 21.3392 117.654 20.8664 117.572 20.4158C117.505 20.0153 117.389 19.6247 117.226 19.2527C117.039 18.8442 116.713 18.7421 116.318 18.9508C116.044 19.0997 115.795 19.2924 115.583 19.5212C115.141 20.0129 114.79 20.5797 114.547 21.1949C114.156 22.1516 113.572 23.0017 113.073 23.8985C112.914 24.1448 112.739 24.3799 112.549 24.6021C112.51 24.5286 112.492 24.4455 112.498 24.3624C112.562 23.3358 112.716 22.3168 112.957 21.317C112.997 21.1408 113.086 20.9793 113.213 20.8508C114.018 19.963 114.837 19.0751 115.612 18.1517C118.116 15.1872 119.906 11.687 120.844 7.92113C121.013 7.36012 121.05 6.76734 120.95 6.18977C120.728 5.17981 119.483 4.54942 118.589 5.18647C118.364 5.33628 118.148 5.4978 117.94 5.67036C116.187 7.19307 114.882 9.07315 113.723 11.0598C112.964 12.3985 112.327 13.8026 111.819 15.255C111.395 16.4248 111.013 17.6123 110.662 18.8065C110.563 19.2093 110.362 19.58 110.078 19.8831C109.723 20.2595 109.346 20.6146 108.949 20.9463C107.617 21.9962 106.265 23.035 104.9 24.0539C104.449 24.3752 103.964 24.6469 103.455 24.864C103.116 25.0128 102.752 25.0971 102.383 25.1127C101.697 25.1348 101.273 24.7508 101.208 24.1271C101.184 23.9091 101.19 23.6887 101.226 23.4723C101.425 22.2845 101.973 21.1828 102.8 20.307C103.126 19.9739 103.5 19.6911 103.91 19.468C104.222 19.3116 104.559 19.2131 104.906 19.1772C105.59 19.0817 106.158 19.4613 106.46 20.1694C106.466 20.1951 106.477 20.2194 106.493 20.2408C106.508 20.2623 106.528 20.2804 106.55 20.2942C106.573 20.3081 106.598 20.3173 106.624 20.3214C106.65 20.3255 106.677 20.3244 106.702 20.3181C106.84 20.2989 106.971 20.2445 107.083 20.1602C107.194 20.0759 107.281 19.9644 107.337 19.8364C107.564 19.3697 107.688 18.8593 107.699 18.3404C107.75 17.6301 107.51 17.1839 106.871 16.8754C106.169 16.5347 105.382 16.4081 104.609 16.5113C103.388 16.6758 102.23 17.1571 101.253 17.9075C100.328 18.6346 99.5585 19.5405 98.991 20.5712C98.8312 20.8363 98.6006 21.0515 98.3251 21.1927C97.8323 21.4579 97.357 21.7544 96.9022 22.0806C95.9988 22.7576 95.1265 23.4723 94.2275 24.1648C94.1631 24.2159 94.0166 24.2714 93.9922 24.247C93.9214 24.1705 93.8797 24.0714 93.8746 23.9673C93.8879 23.6343 93.9167 23.3014 93.9611 22.9662C94.1935 21.3198 94.5256 19.689 94.9556 18.0829C95.2241 17.0552 95.5038 16.0319 95.7791 14.9997C95.8057 14.9997 95.8323 14.9886 95.8612 14.9864L99.6036 14.8555C99.9366 14.8555 100.048 14.7755 100.116 14.4426C100.175 14.1572 100.213 13.8678 100.23 13.5769C100.287 13.0506 100.249 12.5184 100.119 12.0054C100.112 11.9585 100.095 11.9135 100.07 11.8732C100.045 11.8329 100.012 11.7981 99.9736 11.7711C99.9347 11.744 99.8906 11.7253 99.8442 11.7159C99.7977 11.7066 99.7498 11.7069 99.7035 11.7168C99.1397 11.7856 98.5759 11.8544 98.0099 11.9144C97.5193 11.9676 97.0265 12.0098 96.4938 12.0609L96.5848 11.7568C96.7446 11.2573 96.9333 10.7646 97.0532 10.2562C97.1031 10.0008 97.0939 9.73738 97.0265 9.48602C96.9832 9.32535 96.8863 9.18429 96.7519 9.0862C96.6175 8.98811 96.4536 8.93887 96.2874 8.94663C96.1362 8.93977 95.9859 8.97339 95.8521 9.04402C95.7182 9.11465 95.6057 9.21972 95.526 9.34839C95.2774 9.73906 95.0821 10.1586 94.8601 10.5692C94.6759 10.9155 94.5116 11.2729 94.3163 11.6147C94.2478 11.7329 94.1478 11.8298 94.0275 11.8944C93.9072 11.9591 93.7712 11.9891 93.6348 11.981C93 11.981 92.3652 11.981 91.7326 11.9499C91.151 11.921 90.5739 11.8322 89.9923 11.7967C89.4907 11.7656 89.2421 11.9499 89.0778 12.4293C88.9177 12.946 88.8537 13.4877 88.8891 14.0275C88.8893 14.1609 88.9305 14.291 89.0072 14.4002C89.0838 14.5094 89.1922 14.5924 89.3175 14.6379C89.5044 14.7185 89.7046 14.7636 89.908 14.7711C90.6938 14.7977 91.4817 14.8 92.2697 14.8111H92.5428C92.4828 14.9509 92.4473 15.0508 92.3985 15.1462C92.0135 15.9172 91.5365 16.6387 90.9779 17.2949C90.2143 18.1828 89.5506 19.1639 88.6383 19.923C87.8836 20.5534 87.1644 21.2371 86.2854 21.6988C85.8466 21.9241 85.3854 22.1026 84.9092 22.2315C84.5208 22.3425 84.2566 22.1138 84.2167 21.7143C84.1523 21.1061 84.1101 20.4935 84.0302 19.8875C83.9528 19.1028 83.7644 18.333 83.4709 17.6012C83.1512 16.8754 81.8305 16.5624 81.3977 17.4259C81.3711 17.4691 81.3398 17.5093 81.3044 17.5457C80.5788 18.4512 79.8021 19.3146 78.9782 20.1317C78.188 20.8775 77.471 21.6854 76.7186 22.4845C76.636 22.5837 76.5215 22.6511 76.3947 22.675C76.2679 22.6989 76.1368 22.6778 76.0238 22.6155C75.9187 22.565 75.8203 22.5016 75.7308 22.4268C75.1294 21.9149 74.6366 21.2877 74.2813 20.5823C74.2161 20.4671 74.1801 20.3376 74.1766 20.2052C74.1731 20.0728 74.2022 19.9416 74.2614 19.8231C74.4833 19.3592 74.7053 18.882 74.9628 18.4403C75.5133 17.5302 76.1104 16.6467 76.6675 15.7411C77.1891 14.891 77.6286 14.0031 77.7574 12.9976C77.8459 12.5495 77.7963 12.0851 77.6153 11.6658C77.5683 11.5526 77.4924 11.4537 77.3952 11.3789C77.298 11.3042 77.1829 11.2563 77.0614 11.2399C76.9399 11.2235 76.8163 11.2392 76.7028 11.2855C76.5892 11.3318 76.4898 11.407 76.4145 11.5037C76.2748 11.6627 76.1493 11.8335 76.0393 12.0142C75.7241 12.5559 75.4178 13.1041 75.1137 13.6502C74.473 14.8044 73.8344 15.9586 73.1981 17.1129C73.1438 17.2251 73.0646 17.3234 72.9665 17.4003C72.8684 17.4772 72.754 17.5308 72.6321 17.5568C72.4018 17.6192 72.1786 17.7055 71.9662 17.8143C71.7162 17.92 71.4938 18.0816 71.316 18.2867C71.1383 18.4918 71.0099 18.7349 70.9407 18.9974C70.8564 19.2993 70.7942 19.6078 70.7387 19.9141C70.6832 20.2205 70.7165 20.6111 70.5811 20.8997C70.1216 21.8985 69.6089 22.873 69.1028 23.8474C69.0495 23.954 68.9097 24.0161 68.812 24.0983L68.7121 24.0383C68.7521 23.8164 68.7743 23.5833 68.8342 23.3724C69.4158 21.2193 69.9996 19.0677 70.5856 16.9175C71.1012 15.0408 71.7823 13.2135 72.621 11.4571C73.2558 10.1253 73.813 8.7513 74.3435 7.37065C74.8677 6.11714 75.192 4.78916 75.3046 3.43513C75.3713 2.76372 75.2753 2.08613 75.0249 1.45961C74.9439 1.25098 74.8125 1.06562 74.6425 0.920017C74.4725 0.774411 74.2691 0.67307 74.0505 0.625003C73.5644 0.514018 73.2625 0.647199 73.0361 1.08892C72.8319 1.49068 72.6232 1.89245 72.4501 2.30975C70.2881 7.52381 68.337 12.8111 67.1228 18.3404C66.9852 18.9663 66.8409 19.5923 66.7189 20.2205C66.5968 20.8486 66.5324 21.4901 66.377 22.1094C65.9858 23.5088 65.7923 24.956 65.8021 26.409C65.811 26.7653 65.8863 27.1168 66.0241 27.4456C66.1095 27.6276 66.2333 27.789 66.3871 27.9186C66.5408 28.0482 66.7208 28.1429 66.9147 28.1963C67.1085 28.2496 67.3117 28.2604 67.5101 28.2277C67.7085 28.1951 67.8974 28.1198 68.064 28.0071C68.4413 27.7433 68.7941 27.4461 69.1183 27.1193C70.1639 26.0182 71.1136 24.8301 71.9573 23.5677C72.0195 23.4812 72.0794 23.3924 72.1571 23.2814C72.6144 23.6943 73.045 24.0983 73.4889 24.48C73.8707 24.8063 74.2636 25.1215 74.672 25.4168C74.8839 25.5825 75.1402 25.6817 75.4084 25.7019C75.6767 25.722 75.9449 25.6622 76.1792 25.53C76.4189 25.4057 76.6609 25.288 76.8917 25.1482C78.1813 24.3691 79.178 23.2792 80.1125 22.1205C80.2884 21.9087 80.4897 21.7194 80.7118 21.5567C80.9005 21.4146 81.0114 21.4746 81.0625 21.7121C81.1136 21.9496 81.1557 22.1982 81.2046 22.4401C81.3459 23.334 81.6096 24.2041 81.9881 25.0261C82.1248 25.3341 82.3363 25.603 82.6034 25.8085C82.8705 26.0139 83.1847 26.1494 83.5175 26.2025C84.21 26.3179 84.8493 26.3113 85.4997 25.9339C86.4691 25.3369 87.3809 24.651 88.2232 23.8852C89.5628 22.7214 90.8144 21.4602 91.9679 20.1117C91.9856 20.0917 92.0145 20.0784 92.0011 20.0873C91.828 20.893 91.6482 21.7165 91.4751 22.5423C91.2105 23.793 91.1002 25.0714 91.1466 26.349C91.1732 27.1326 91.484 27.5765 92.1454 27.7274C92.4371 27.7907 92.7377 27.802 93.0333 27.7607C93.7414 27.6325 94.3987 27.3062 94.9289 26.8196C95.8168 26.096 96.6647 25.3479 97.5415 24.6221C97.8634 24.3557 98.2074 24.1227 98.5781 23.8519C98.6003 24.1648 98.6203 24.4135 98.6336 24.6598C98.6352 25.3966 98.842 26.1183 99.2307 26.7441C99.437 27.0649 99.7142 27.3339 100.041 27.5306C100.368 27.7272 100.735 27.8462 101.115 27.8784C101.895 27.9254 102.678 27.8421 103.43 27.632C104.316 27.3971 105.15 26.9989 105.89 26.4578C106.975 25.7296 107.977 24.8848 108.877 23.9384C109.146 23.6499 109.435 23.3791 109.723 23.1127C109.87 22.9773 110.041 22.8663 110.198 22.7442C110.21 22.8749 110.198 23.0068 110.16 23.1327C109.912 24.0113 109.792 24.9211 109.803 25.8341C109.796 26.3618 109.91 26.8842 110.136 27.3612C110.314 27.6942 110.558 27.9805 110.951 28.0271C111.233 28.0798 111.523 28.0653 111.799 27.9847C112.074 27.9041 112.326 27.7597 112.536 27.5632C113.645 26.4378 114.653 25.2303 115.339 23.7897C115.355 23.7609 115.377 23.7342 115.414 23.6787C115.561 23.934 115.692 24.1671 115.827 24.3979C116.127 24.9129 116.553 25.2858 117.159 25.3124C117.596 25.3559 118.037 25.3274 118.464 25.2281C119.601 24.9084 120.72 24.5178 121.616 23.6876C121.741 23.5722 121.887 23.4812 122.034 23.3702C122.122 23.4989 122.187 23.6055 122.256 23.7009C122.522 24.0653 122.809 24.4136 123.117 24.7442C123.878 25.4922 124.77 25.965 125.876 25.9051C126.782 25.85 127.635 25.4609 128.271 24.813C128.735 24.3691 129.159 23.8785 129.603 23.4057C130.135 22.833 130.657 22.2537 131.188 21.681C131.341 21.5145 131.505 21.3592 131.674 21.2082C131.764 21.1498 131.861 21.1014 131.962 21.0639C131.918 21.2637 131.893 21.3969 131.856 21.5278C131.791 21.7498 131.714 21.9563 131.652 22.1738C131.416 23.0084 131.192 23.8452 130.95 24.6776C130.728 25.4567 130.522 26.2314 130.615 27.0638C130.62 27.2045 130.672 27.3394 130.764 27.4464C130.855 27.5533 130.98 27.6258 131.119 27.652C131.68 27.7718 132.213 27.7008 132.637 27.2702C133.012 26.8928 133.374 26.5 133.747 26.1093C134.597 25.1859 135.434 24.2514 136.3 23.3436C136.732 22.8448 137.267 22.4464 137.869 22.176C138.142 22.065 138.228 22.0917 138.295 22.398C138.362 22.7043 138.404 22.9551 138.468 23.2326C138.664 24.065 138.883 24.8929 139.387 25.6032C139.567 25.8747 139.797 26.1097 140.064 26.2957C140.641 26.6664 141.34 26.5843 141.918 26.1204C142.264 25.8407 142.584 25.5322 142.919 25.2325C143.345 24.8552 143.345 24.8552 143.141 24.3313C142.945 23.8585 142.757 23.399 142.561 22.9174ZM113.659 16.1695C113.88 15.3849 114.215 14.637 114.653 13.9498C115.565 12.4426 116.504 10.9488 117.441 9.45494C117.64 9.14575 117.858 8.84923 118.094 8.56706C118.222 8.4139 118.382 8.25853 118.62 8.36729C118.725 8.42166 118.807 8.51242 118.85 8.62268C118.893 8.73294 118.895 8.85517 118.855 8.96661C118.793 9.21399 118.709 9.45539 118.604 9.68801C117.531 12.0133 116.143 14.1794 114.478 16.1251C114.238 16.4115 113.949 16.6556 113.683 16.9198C113.643 16.8998 113.603 16.8798 113.565 16.8576C113.582 16.6265 113.613 16.3967 113.659 16.1695ZM124.009 19.8165C124.035 19.6932 124.068 19.5717 124.109 19.4524C124.382 18.789 124.757 18.172 125.219 17.6234C125.39 17.4446 125.583 17.2886 125.794 17.1595C125.878 17.1204 125.969 17.0964 126.062 17.0885C125.967 17.8254 124.622 19.6189 124.018 19.8165H124.009Z" fill="#92979D"/>
<path d="M57.4099 14.6402C57.0459 14.4565 56.6708 14.2956 56.2868 14.1585C56.137 14.0927 55.9674 14.0882 55.8144 14.1458C55.6613 14.2035 55.5368 14.3188 55.4677 14.467C55.2457 14.8222 55.0238 15.1729 54.8018 15.5258C53.6453 17.4059 52.2758 19.1351 50.9773 20.913C50.9662 20.9286 50.9462 20.9352 50.9018 20.9641C50.8019 20.6844 50.6954 20.4225 50.6177 20.1517C50.4179 19.4503 50.2514 18.74 50.0361 18.0452C49.8807 17.5458 49.6765 17.0597 49.4723 16.578C49.2681 16.0963 48.3758 15.6435 47.8253 15.7855C47.3489 15.8921 46.897 16.0879 46.4935 16.3627C45.69 16.9442 44.8842 17.5236 44.0762 18.1007C44.0319 18.1318 43.983 18.1562 43.9253 18.1895C43.7623 17.9086 43.5378 17.6683 43.2687 17.4865C42.9996 17.3047 42.6929 17.1861 42.3715 17.1396C41.2963 16.98 40.1979 17.1454 39.2173 17.6146C37.6636 18.3027 36.3917 19.377 35.2441 20.6134C34.9622 20.9175 34.7025 21.246 34.3962 21.5235C33.4883 22.347 32.5605 23.1483 31.646 23.9651C31.4705 24.1217 31.248 24.2154 31.0134 24.2315C30.676 24.267 30.6116 24.2182 30.6604 23.8852C30.8225 22.8109 30.9445 21.7277 31.1843 20.6689C31.5616 18.993 32.0211 17.3393 32.4517 15.6723C32.463 15.6409 32.4812 15.6123 32.505 15.5889C32.5289 15.5655 32.5577 15.5477 32.5893 15.5369C32.8468 15.4948 33.1065 15.457 33.3662 15.4371C34.698 15.3416 36.0165 15.2528 37.3417 15.1552C37.7035 15.1285 37.8567 15.0175 37.9344 14.6579C38.0965 13.9447 38.134 13.2087 38.0453 12.4826C37.9987 12.1186 37.8234 11.981 37.4527 11.9788L34.2119 11.9632C34.1365 11.9632 34.061 11.9632 33.9589 11.9455C34.0366 11.6858 34.1254 11.4616 34.1809 11.2285C34.2771 10.8564 34.3366 10.4758 34.3584 10.092C34.3584 9.45054 33.9589 9.05322 33.3951 9.03546C33.1923 9.03176 32.9924 9.08462 32.8179 9.18813C32.6435 9.29163 32.5013 9.44168 32.4073 9.62146C32.1565 10.0277 31.9634 10.4738 31.7414 10.9C31.586 11.2041 31.4307 11.5104 31.2597 11.8056C31.2096 11.8941 31.1349 11.9661 31.0447 12.013C30.9545 12.0598 30.8526 12.0796 30.7514 12.0698C29.5047 12.0887 28.2579 12.0442 27.0157 11.9366C26.3942 11.8722 26.0612 12.1097 25.9058 12.7246C25.7998 13.2516 25.7337 13.7858 25.7083 14.3228C25.7036 14.3916 25.7144 14.4605 25.7397 14.5246C25.765 14.5888 25.8044 14.6464 25.8548 14.6935C26.1877 14.9021 26.5407 15.1973 26.9025 15.224C27.8791 15.2972 28.8669 15.2506 29.8724 15.2506C29.8081 15.3838 29.7526 15.5236 29.6793 15.6546C28.8835 17.0997 27.9593 18.4703 26.918 19.7499C26.059 20.7799 25.0313 21.6367 24.048 22.5379C23.5061 23.0081 22.8625 23.3462 22.1679 23.5256C21.9355 23.5906 21.6911 23.6006 21.4541 23.5548C21.2172 23.5089 20.9942 23.4085 20.8028 23.2615C20.6673 23.1459 20.5717 22.9906 20.5297 22.8175C20.487 22.6777 20.4852 22.5286 20.5246 22.3878C20.5639 22.2469 20.6427 22.1203 20.7517 22.0229C21.442 21.357 22.1079 20.6556 22.8027 19.9919C23.6047 19.1937 24.1424 18.1687 24.3432 17.0552C24.6317 15.7234 23.8793 14.6468 22.5452 14.4582C21.6973 14.3383 20.9715 14.6424 20.3255 15.1751C19.6877 15.724 19.1662 16.3949 18.7917 17.1484C18.2368 18.1895 17.713 19.2549 17.6197 20.4402C17.5731 21.0151 17.289 21.3281 16.905 21.6189C16.8028 21.7 16.6953 21.7742 16.5831 21.8409C16.1081 22.125 15.6353 22.4113 15.1514 22.6821C14.5366 23.0262 13.9928 22.9041 13.6376 22.287C13.3379 21.7698 13.0782 21.2305 12.8274 20.6888C12.6199 20.2125 12.5184 19.6967 12.53 19.1772C12.5102 17.1549 12.7625 15.1391 13.2802 13.1841C13.7242 11.5104 14.2569 9.85453 14.8007 8.20973C15.5021 6.09437 16.2546 3.99232 16.9849 1.89027C17.1404 1.53376 17.1956 1.14159 17.1447 0.756007C17.1272 0.627866 17.0814 0.505209 17.0108 0.396871C16.9402 0.288533 16.8464 0.197212 16.7362 0.129487C16.626 0.0617624 16.5022 0.0193192 16.3736 0.00521551C16.245 -0.00888821 16.1149 0.00569886 15.9927 0.0479254C15.721 0.138378 15.4713 0.284902 15.2599 0.478004C15.0484 0.671106 14.8799 0.906477 14.7652 1.16887C14.0083 2.77149 13.2514 4.35413 12.5255 5.96119C12.1673 6.74242 11.8502 7.54186 11.5755 8.35624C11.1982 9.49716 10.8874 10.6581 10.5411 11.8101C10.5014 11.9656 10.4262 12.1099 10.3215 12.2316C10.2167 12.3532 10.0853 12.4491 9.93737 12.5115C8.89022 12.9826 7.9402 13.6451 7.13612 14.4648C6.33925 15.2772 5.56014 16.0896 4.7899 16.9464C3.37374 18.5313 2.12627 20.2338 1.29167 22.2049C0.805555 23.3458 0.308344 24.4823 0.0663971 25.7054C-0.0391664 26.137 -0.0185112 26.5899 0.125906 27.0102C0.270322 27.4305 0.532421 27.8004 0.881024 28.076C1.63794 28.7064 2.5125 28.6354 3.39816 28.4245C6.31261 26.995 8.52343 24.873 9.80863 21.8564C9.84192 21.7809 9.87744 21.7077 9.9063 21.6344L10.3791 23.8586C10.4916 24.3853 10.7993 24.85 11.2403 25.1593C11.9098 25.6591 12.7417 25.891 13.5732 25.8097C14.7371 25.693 15.8644 25.3379 16.885 24.7664C17.2069 24.5911 17.5509 24.4579 17.9038 24.2981C18.0903 24.7265 18.2546 25.1393 18.4499 25.5367C18.591 25.8446 18.8072 26.1121 19.0787 26.3145C19.3502 26.517 19.6683 26.648 20.0037 26.6953C20.6148 26.7898 21.2386 26.7599 21.8379 26.6073C22.4371 26.4548 22.9993 26.1827 23.4908 25.8075C24.1596 25.3128 24.7937 24.7729 25.3887 24.1915C26.1078 23.5079 26.7782 22.7754 27.4729 22.0673C27.6949 21.8453 27.9435 21.6233 28.1966 21.3681C28.1721 21.4902 28.1566 21.59 28.13 21.6877C27.6959 23.4096 27.5142 25.1854 27.5906 26.9595C27.5817 27.4107 27.747 27.8479 28.0523 28.1803C28.1952 28.3225 28.3727 28.425 28.5673 28.4778C29.1484 28.6138 29.7593 28.5308 30.2831 28.2447C30.9595 27.8864 31.5844 27.4384 32.141 26.9129C33.0777 26.045 34.0011 25.1637 34.9311 24.2892C34.9844 24.2381 35.0421 24.1937 35.1375 24.1138C35.0976 24.3758 35.0554 24.5755 35.0377 24.7797C34.9622 25.5988 35.2596 26.2825 35.779 26.9062C36.8889 28.2513 38.4538 28.5732 39.9387 27.672C41.4972 26.7658 42.8377 25.5284 43.8654 24.0472C44.5624 23.0173 44.9597 21.9141 44.8465 20.6533C44.847 20.6106 44.8571 20.5685 44.8759 20.5301C44.8947 20.4917 44.9218 20.458 44.9552 20.4314C45.488 20.074 46.0251 19.7255 46.5712 19.3881C46.7765 19.2735 46.9876 19.1698 47.2038 19.0774C47.2482 19.2105 47.2793 19.3149 47.3192 19.4147C47.7632 20.4802 48.1827 21.5479 48.6311 22.6089C48.6791 22.6894 48.6977 22.7842 48.6835 22.877C48.6693 22.9697 48.6233 23.0547 48.5534 23.1172C48.4246 23.2459 48.3136 23.3924 48.1893 23.5278C45.9696 25.9118 43.75 28.3068 41.5058 30.6752C39.8566 32.4199 38.1763 34.1291 36.5049 35.8605C36.2471 36.1407 36.0076 36.4373 35.7879 36.7483C35.7049 36.8439 35.6565 36.9646 35.6505 37.091C35.6445 37.2175 35.6811 37.3423 35.7546 37.4453C36.0583 37.8972 36.4985 38.2402 37.011 38.4242C37.1477 38.4794 37.2969 38.4962 37.4424 38.4728C37.588 38.4493 37.7243 38.3864 37.8367 38.291C38.3317 37.8471 38.8422 37.4165 39.2995 36.937C42.6512 33.418 45.9985 29.8939 49.3414 26.3646C49.4376 26.2654 49.5448 26.1775 49.661 26.1027C49.6947 26.074 49.7347 26.0537 49.7776 26.0432C49.8206 26.0327 49.8655 26.0324 49.9086 26.0424C49.9517 26.0523 49.9919 26.0721 50.026 26.1003C50.0601 26.1285 50.0871 26.1643 50.1049 26.2048C50.1915 26.3557 50.2537 26.52 50.3269 26.6776C50.6931 27.4389 51.0461 28.2047 51.4367 28.955C51.6486 29.344 51.9857 29.6498 52.3934 29.8229C53.7452 30.4511 55.6075 29.7119 56.1669 28.3224C56.1801 28.2907 56.1869 28.2568 56.1869 28.2225C56.1869 28.1882 56.1801 28.1543 56.1669 28.1226C55.8584 27.6032 55.5432 27.086 55.2191 26.5511L54.3113 27.1704C53.8873 27.4611 53.5233 27.3812 53.2858 26.9195C52.8006 26.0045 52.3987 25.0476 52.0849 24.0606C52.0621 24.0009 52.0573 23.9359 52.0711 23.8736C52.0849 23.8112 52.1167 23.7543 52.1626 23.7099C52.9173 22.7998 53.6742 21.8941 54.4089 20.9685C55.7363 19.3344 56.8609 17.5456 57.7584 15.6413C57.9449 15.1574 57.8583 14.8688 57.4099 14.6402ZM9.1294 18.6689C9.06114 19.0263 8.93915 19.3713 8.76759 19.6922C7.90984 21.2617 6.8085 22.6852 5.50464 23.9096C5.22533 24.1553 4.92105 24.371 4.59679 24.5533C4.40555 24.6575 4.19456 24.7202 3.9775 24.7376C3.58683 24.7775 3.37152 24.5511 3.43811 24.1671C3.48079 23.872 3.56681 23.5848 3.69338 23.3147C4.44141 21.8697 5.20721 20.4291 6.30373 19.2105C6.67667 18.8024 7.0877 18.4308 7.53122 18.1007C7.79742 17.9446 8.08134 17.8209 8.37693 17.7322L8.40134 17.7921C8.92519 17.7921 9.24039 18.1429 9.1294 18.6689ZM19.6885 20.1939C19.613 19.1994 21.169 17.104 22.0369 17.0175C22.0346 17.145 22.0205 17.2721 21.9947 17.397C21.7723 18.1168 21.3741 18.7698 20.8361 19.2971C20.5921 19.5335 20.335 19.7558 20.0658 19.963C19.9468 20.0505 19.8206 20.1277 19.6885 20.1939ZM41.7411 21.6544C41.5766 22.1694 41.311 22.6463 40.9598 23.0573C40.5007 23.6256 39.94 24.1035 39.3061 24.4668C39.1005 24.5896 38.8752 24.6759 38.6402 24.722C37.9743 24.8419 37.5481 24.4557 37.5548 23.6632C37.5983 23.146 37.8113 22.6575 38.1608 22.2737C38.6837 21.6714 39.3262 21.1846 40.0475 20.8442C40.3626 20.6721 40.7223 20.5986 41.0797 20.6334C41.6945 20.7221 41.9187 21.064 41.7411 21.6544Z" fill="#92979D"/>
<path d="M148.668 22.8552C148.405 22.8552 148.148 22.933 147.929 23.0788C147.71 23.2245 147.54 23.4318 147.439 23.6743C147.337 23.9169 147.31 24.184 147.361 24.442C147.411 24.7 147.536 24.9373 147.721 25.1241C147.906 25.3109 148.142 25.4387 148.4 25.4916C148.657 25.5445 148.925 25.52 149.168 25.4213C149.412 25.3225 149.621 25.1539 149.769 24.9366C149.917 24.7194 149.997 24.4632 149.999 24.2004C149.995 23.8473 149.854 23.5098 149.605 23.2589C149.357 23.008 149.021 22.8632 148.668 22.8552Z" fill="#92979D"/>
</svg>
