<svg width="90" height="54" viewBox="0 0 90 54" fill="none" xmlns="http://www.w3.org/2000/svg">
<g clip-path="url(#clip0)">
<path d="M10.2944 19.3731C10.2944 21.1385 10.2631 22.8494 10.2396 24.5603C10.2162 26.2712 10.2396 27.9665 10.0987 29.6812C9.9738 29.6113 9.86771 29.5124 9.7895 29.3928C9.03014 28.1379 8.27861 26.883 7.51924 25.6242C6.31757 23.6288 5.10808 21.6374 3.91423 19.6342C3.85663 19.5084 3.76139 19.4035 3.64157 19.3337C3.52176 19.264 3.38321 19.2328 3.2449 19.2445C2.3916 19.2445 1.53829 19.2445 0.684991 19.2445C0.532336 19.2445 0.375767 19.2445 0.207454 19.2756C0.136998 24.5395 0.0678467 29.7748 0 34.9815C0.0662199 35.0127 0.135829 35.0362 0.207454 35.0516C1.11556 35.0516 2.01975 35.0828 2.94742 35.1062C3.19793 35.1062 3.2997 34.9854 3.2997 34.7515C3.2997 34.6424 3.2997 34.5372 3.2997 34.432C3.33101 31.3142 3.36494 28.1964 3.40147 25.0786C3.40147 24.95 3.42887 24.8214 3.45235 24.5759C3.6011 24.7863 3.68721 24.8915 3.75767 25.0085C4.701 26.5673 5.6365 28.1262 6.57983 29.6851C7.63276 31.4233 8.6896 33.1537 9.71122 34.8996C9.75459 34.9944 9.82648 35.0735 9.91693 35.1258C10.0074 35.1782 10.1119 35.2013 10.2162 35.1919C10.678 35.1919 11.1399 35.1919 11.6018 35.1919H13.3789C13.4493 29.8956 13.5198 24.6694 13.5863 19.3809C12.4708 19.3848 11.4178 19.3224 10.2944 19.3731Z" fill="#92979D"/>
<path d="M89.7532 34.3697C89.6358 33.5902 89.5419 32.8108 89.4479 32.008C89.3814 31.4273 89.3696 30.8388 89.2639 30.2698C89.0565 29.1825 88.5711 28.2705 87.4712 27.8106C87.3812 27.7717 87.2912 27.7249 87.1542 27.6586C87.8107 27.3871 88.3861 26.9523 88.8256 26.3959C89.1857 25.8675 89.4333 25.2712 89.5531 24.6438C89.6729 24.0165 89.6625 23.3713 89.5223 22.7481C89.4202 22.162 89.1876 21.6061 88.8415 21.1212C88.4953 20.6363 88.0445 20.2347 87.5221 19.946C86.7513 19.4967 85.871 19.2674 84.9779 19.2835H76.9263C76.801 19.2835 76.6797 19.2835 76.5583 19.2835C76.4135 19.72 76.4096 34.6815 76.5583 35.1218C77.6918 35.2052 78.8307 35.1818 79.9598 35.0517C79.9598 34.0696 79.9598 33.0641 79.9598 32.0586C79.9598 31.0531 79.9285 30.0204 79.9833 29.0188C80.0527 28.9914 80.1249 28.9718 80.1986 28.9603C81.4276 28.9603 82.6567 28.9175 83.878 28.9837C84.9935 29.0422 85.6472 29.4942 85.9173 30.7803C86.0734 31.668 86.1844 32.5629 86.25 33.4616C86.2802 34.0363 86.4127 34.6011 86.6414 35.1296H90.0077C89.9044 34.8828 89.8194 34.6288 89.7532 34.3697ZM86.019 25.0943C85.7998 25.9205 85.1931 26.2634 84.4025 26.4115C84.1742 26.442 83.9439 26.455 83.7136 26.4505H80.5195C80.3473 26.4505 80.179 26.4505 79.9755 26.4232V22.07C80.1165 22.0437 80.259 22.0255 80.4021 22.0155C81.5372 22.0155 82.6724 22.0155 83.8075 22.0155C84.1447 22.0179 84.4802 22.0638 84.8056 22.1519C85.1096 22.2234 85.3868 22.3798 85.6045 22.6028C85.8223 22.8258 85.9715 23.1061 86.0347 23.4107C86.1669 23.9648 86.1615 24.5427 86.019 25.0943Z" fill="#92979D"/>
<path d="M30.5585 23.2158C29.8348 21.5632 28.5027 20.2494 26.8361 19.5446C25.2693 18.8882 23.5366 18.7316 21.8767 19.0964C20.7735 19.283 19.7329 19.7358 18.8459 20.4151C17.9588 21.0945 17.2524 21.9798 16.7882 22.9936C16.1768 24.2171 15.8347 25.5564 15.7847 26.9221C15.7348 28.2877 15.9781 29.6483 16.4986 30.9128C16.8359 31.82 17.3633 32.6453 18.0455 33.3341C18.7278 34.0228 19.5494 34.5591 20.4559 34.9074C21.9632 35.5152 23.6151 35.675 25.2117 35.3673C26.1687 35.2197 27.0843 34.8748 27.8999 34.3547C28.7154 33.8347 29.413 33.1508 29.9479 32.347C30.9891 30.8193 31.4001 29.1084 31.3962 27.0117C31.3991 25.7006 31.1132 24.4048 30.5585 23.2158ZM27.1727 30.5309C26.8266 31.2055 26.2857 31.7616 25.6195 32.1276C24.9533 32.4937 24.1924 32.6528 23.4346 32.5847C21.3953 32.5184 20.2015 31.2752 19.6769 29.6033C19.1955 28.0374 19.1955 26.3639 19.6769 24.798C19.8632 24.1452 20.21 23.5489 20.6858 23.063C21.1617 22.5771 21.7516 22.2169 22.4024 22.015C23.0531 21.813 23.7442 21.7758 24.413 21.9065C25.0819 22.0372 25.7075 22.3318 26.2333 22.7637C26.9587 23.4006 27.4527 24.2582 27.6385 25.2033C27.7555 25.7686 27.8417 26.3397 27.8968 26.9142C27.8929 28.3952 27.7324 29.5098 27.1727 30.5309Z" fill="#92979D"/>
<path d="M12.8737 17.0153C12.7759 16.2359 12.6859 15.4564 12.588 14.7198C12.4901 13.9833 12.3923 13.2467 12.2944 12.5101C12.1464 11.7632 12.0548 11.0063 12.0204 10.2458L18.2832 9.39232C18.5924 11.6488 18.8977 13.8624 19.2109 16.1501L22.7024 15.6902C21.9704 10.4407 21.2698 5.24957 20.5574 0C19.3831 0.136403 18.248 0.249423 17.0933 0.487154C17.3438 2.50982 17.6726 4.47402 17.8761 6.4733L11.5781 7.32679C11.3002 5.29633 11.0301 3.34382 10.7522 1.31337L7.37423 1.77714C7.35075 2.37731 9.30395 17.0932 9.53489 17.4791L12.8737 17.0153Z" fill="#92979D"/>
<path d="M69.8263 32.2028C69.1335 32.2028 68.4406 32.2028 67.7478 32.2028C67.055 32.2028 66.3426 32.2223 65.5872 32.2028C65.5872 30.8894 65.5558 29.6462 65.6106 28.3718C68.1823 28.3485 70.6992 28.3718 73.2277 28.3718V25.6282H65.6224V22.2454H73.8932V19.3069H62.1152V35.1296H74.0615V32.2028H69.8263Z" fill="#92979D"/>
<path d="M34.8372 50.6873C34.6336 50.6873 34.4458 50.6562 34.2422 50.6406C34.1432 49.3712 34.1602 48.0954 34.2931 46.8291H36.7708C37.6241 46.8291 38.4774 46.8291 39.3307 46.8291C40.184 46.8291 40.9864 46.8291 41.8123 46.8291V44.101H34.2187V40.7455C35.6161 40.7455 36.9587 40.7455 38.3404 40.7455H42.5052V37.8031H30.7625C30.6294 38.3214 30.6411 53.2088 30.7625 53.6142C31.7097 53.7272 42.3055 53.6765 42.6656 53.5557V50.6912H34.8372V50.6873Z" fill="#92979D"/>
<path d="M55.7939 47.6007C55.5943 48.1658 55.4416 48.7309 55.1951 49.2531C55.0399 49.6107 54.8135 49.9332 54.5296 50.2011C54.2457 50.4691 53.9101 50.6769 53.5432 50.812C51.4922 51.5447 48.9871 50.7886 48.1729 48.0021C47.7451 46.5518 47.7356 45.0108 48.1455 43.5554C48.6152 41.8328 49.7934 40.5077 51.774 40.3479C53.4884 40.2115 55.1637 41.3028 55.5278 42.8344C55.5669 43.0098 55.6413 43.1228 55.8409 43.1228H58.8744C58.9006 43.064 58.9203 43.0026 58.9331 42.9396C58.939 42.8696 58.939 42.7992 58.9331 42.7292C58.8125 41.8234 58.481 40.9582 57.9652 40.2024C57.4495 39.4467 56.7636 38.8212 55.9622 38.3759C54.3023 37.4315 52.3475 37.1395 50.4823 37.5575C47.7619 38.0837 45.9379 39.7049 44.9711 42.2576C44.106 44.4951 44.106 46.9727 44.9711 49.2102C45.5514 50.8445 46.7165 52.2085 48.2434 53.0412C49.7245 53.8341 51.4166 54.1487 53.0853 53.9415C54.4777 53.8315 55.7967 53.2742 56.8436 52.3535C57.8904 51.4327 58.6087 50.1984 58.8901 48.8361C59.0457 48.426 59.0863 47.9814 59.0075 47.55C57.937 47.4684 56.8613 47.4854 55.7939 47.6007Z" fill="#92979D"/>
<path d="M26.3308 16.6801C26.5852 16.6801 26.6439 16.4852 26.7222 16.2904C27.0354 15.4096 27.3446 14.5249 27.6538 13.6442C27.8378 13.1336 27.8339 13.1297 28.3505 13.1297H33.1885C33.3608 13.1297 33.5369 13.1492 33.7209 13.1648L34.9264 16.6489H38.5432C36.5469 11.3019 34.582 6.05626 32.6327 0.830078H29.0629C29.0238 0.908023 28.9925 0.950892 28.9729 0.997659C28.0961 3.336 27.2193 5.66264 26.3425 7.9776C25.3209 10.7057 24.2876 13.387 23.262 16.0916C23.1994 16.2631 23.172 16.4463 23.1094 16.6801H26.3308ZM30.7421 4.84422H30.8556L32.7697 10.4056C32.4213 10.5537 29.4035 10.5887 28.7537 10.4367L30.7421 4.84422Z" fill="#92979D"/>
<path d="M40.4269 16.6841H42.9281C43.0651 16.6841 43.1982 16.6607 43.3743 16.6451V10.9785H44.0358C45.0848 10.9785 46.1338 10.9785 47.1672 10.9785C47.6814 10.9763 48.1942 10.9228 48.6977 10.8188C50.4239 10.429 51.6725 9.44693 52.2205 7.72436C52.5639 6.65772 52.5979 5.51619 52.3183 4.4312C52.0818 3.33191 51.4285 2.36585 50.4943 1.73432C49.4703 1.08331 48.2719 0.757154 47.0576 0.798984H40.4034C40.2508 0.798984 40.0981 0.822368 39.922 0.837957C39.922 1.01333 39.8828 1.15363 39.8828 1.29004C39.8828 2.77618 39.8828 4.26102 39.8828 5.74457C39.8828 9.2131 39.8828 12.6803 39.8828 16.1463C39.8867 16.6646 39.9024 16.6802 40.4269 16.6841ZM43.4095 3.60109C43.4766 3.56943 43.5477 3.54713 43.6209 3.53484C44.8469 3.48296 46.0751 3.51681 47.2964 3.63617C47.7974 3.68295 48.2627 3.91501 48.6004 4.28656C48.938 4.65811 49.1236 5.14217 49.1204 5.64324C49.1341 6.04659 49.0879 6.44975 48.9834 6.83969C48.8871 7.17533 48.6928 7.47492 48.4252 7.70043C48.1576 7.92594 47.8287 8.0672 47.4803 8.10629C46.8133 8.19605 46.1415 8.24681 45.4684 8.25828C44.7952 8.28166 44.1219 8.25828 43.4095 8.25828V3.60109Z" fill="#92979D"/>
<path d="M58.1658 16.649C58.2089 14.751 58.1658 12.8842 58.1971 10.9785H58.7764C59.8254 10.9785 60.8745 10.9785 61.9078 10.9785C62.4218 10.9756 62.9343 10.9234 63.4383 10.8226C65.1292 10.4524 66.3779 9.52092 66.9611 7.8607C67.3755 6.70206 67.4084 5.44209 67.055 4.26356C66.8913 3.63923 66.5909 3.05867 66.1754 2.56345C65.7599 2.06824 65.2396 1.67063 64.6517 1.3991C63.774 0.989776 62.8143 0.784544 61.8452 0.798925H55.191C55.054 0.798925 54.917 0.818411 54.7996 0.826205C54.6743 1.34843 54.686 16.2164 54.7996 16.649H58.1658ZM58.201 3.61272C58.2831 3.57414 58.37 3.54662 58.4594 3.53088C59.661 3.56206 60.8666 3.56985 62.0683 3.6478C62.5391 3.6805 62.9823 3.88151 63.316 4.21381C63.6498 4.54611 63.8517 4.98731 63.8845 5.45611C63.9551 5.99986 63.885 6.55254 63.681 7.06177C63.5557 7.31589 63.3746 7.53862 63.1509 7.71338C62.9273 7.88814 62.6669 8.01043 62.3893 8.07115C61.9934 8.17007 61.5878 8.22497 61.1798 8.23484C60.3108 8.25822 59.4418 8.23484 58.5729 8.23484C58.4483 8.22693 58.3242 8.21262 58.201 8.19197V3.61272Z" fill="#92979D"/>
<path d="M61.1634 24.0965C61.0908 22.9549 60.569 21.8878 59.7112 21.1268C58.921 20.4364 57.9673 19.9575 56.9399 19.7355L51.777 18.4572L49.9726 18.0168C48.7044 23.1534 47.4479 28.2549 46.1797 33.4031L49.5655 34.2449C50.0274 32.3937 50.4775 30.5854 50.9394 28.7381C51.6674 28.9174 52.3172 29.085 52.9748 29.237C53.9925 29.4708 54.9906 29.8021 56.0514 29.8293C57.7854 29.8722 59.2258 29.2993 60.2083 27.8262C60.943 26.7271 61.2798 25.4117 61.1634 24.0965ZM57.6954 25.2891C57.6423 25.6546 57.4834 25.9968 57.238 26.2737C56.9925 26.5506 56.6713 26.7501 56.3136 26.848C55.8478 26.9583 55.364 26.9715 54.8928 26.8869C53.8829 26.6999 52.8926 26.4232 51.8945 26.1776C51.7938 26.1429 51.6957 26.1012 51.6009 26.0529C51.9649 24.5564 52.3289 23.0754 52.7008 21.5555C52.8229 21.5627 52.9444 21.577 53.0648 21.5984C54.1412 21.8868 55.2216 22.1635 56.2901 22.4792C56.5772 22.5687 56.8433 22.7145 57.073 22.9079C57.8284 23.4886 57.9576 24.1628 57.6954 25.2891Z" fill="#92979D"/>
<path d="M17.6139 53.6259H20.9762C20.9762 53.4154 21.0114 53.2361 21.0114 53.0335C21.0114 51.6733 21.0114 50.3054 21.0114 48.9492C21.0114 48.4698 21.0114 47.9905 21.0114 47.515C21.0114 47.1603 21.0623 47.1253 21.4029 47.1019C21.5281 47.1019 21.6495 47.1019 21.7747 47.1019C23.5166 47.1019 25.2584 47.1019 27.0002 47.1019C27.2038 47.1019 27.3916 47.0746 27.6265 47.059V44.4284C27.4034 44.4284 27.1959 44.3972 26.9885 44.3972H21.5751C21.0741 44.3972 21.0349 44.3582 21.031 43.8516C21.031 43.0722 21.031 42.2927 21.031 41.5133V40.7962C21.305 40.7962 21.5125 40.7572 21.716 40.7533H28.6285V37.8031H17.6687C17.516 38.2123 17.4965 53.0919 17.6139 53.6259Z" fill="#92979D"/>
<path d="M73.2543 9.9691C73.4727 10.3195 73.583 10.726 73.5713 11.1383C73.5713 12.7829 73.5713 14.4275 73.5713 16.0722C73.5713 16.2748 73.6066 16.4619 73.6222 16.6684H77.0198C77.0198 16.4502 77.0589 16.2787 77.0589 16.0722C77.0589 14.5133 77.0589 12.9544 77.0589 11.3955C77.0454 10.8692 77.1899 10.3509 77.4738 9.90674C79.2117 7.05397 80.9262 4.19341 82.6445 1.33284C82.7306 1.18865 82.7972 1.02886 82.8911 0.833998C82.6837 0.833998 82.5467 0.814512 82.4058 0.814512C81.4468 0.814512 80.4878 0.814512 79.5288 0.814512C79.3834 0.796214 79.2359 0.824026 79.1073 0.893995C78.9787 0.963963 78.8756 1.07252 78.8125 1.20423C77.7909 2.97747 76.7419 4.73512 75.7007 6.50057C75.6067 6.65646 75.5637 6.86691 75.3093 6.89029C75.2466 6.80065 75.1762 6.72271 75.1214 6.63307L73.7749 4.3493L71.8608 1.1146C71.759 0.943121 71.669 0.787231 71.4263 0.787231C70.2521 0.787231 69.0778 0.787231 67.8057 0.787231C67.9231 1.02886 67.9857 1.17695 68.0718 1.33674C69.7941 4.22069 71.5216 7.09814 73.2543 9.9691Z" fill="#92979D"/>
<path d="M60.33 37.8031C60.1713 38.7814 60.1713 39.7788 60.33 40.7572H64.9762V47.2383C64.9762 48.3022 64.9762 49.3623 64.9762 50.4223C64.9762 51.4824 64.9527 52.5658 64.9762 53.6414H68.4755V40.7377H70.0647C70.5813 40.7377 71.098 40.7377 71.6304 40.7377C72.1627 40.7377 72.6481 40.765 73.1413 40.7143C73.2546 39.7435 73.2388 38.762 73.0943 37.7953L60.33 37.8031Z" fill="#92979D"/>
<path d="M37.291 35.1296H40.7629V22.2336H45.46C45.5093 21.2609 45.4976 20.2859 45.4248 19.3146C43.8591 19.1899 32.9345 19.2523 32.5078 19.3848V22.2142C34.0735 22.3038 35.6392 22.1869 37.244 22.2804V28.7459C37.244 29.806 37.244 30.866 37.244 31.9299C37.244 32.9939 37.2519 34.0695 37.291 35.1296Z" fill="#92979D"/>
</g>
<defs>
<clipPath id="clip0">
<rect width="90" height="54" fill="white"/>
</clipPath>
</defs>
</svg>
