<svg width="78" height="50" viewBox="0 0 78 50" fill="none" xmlns="http://www.w3.org/2000/svg">
<path d="M5.19686 0H0V5.57553H5.19686V0Z" fill="#92979D"/>
<path d="M57.3437 35.8166H64.7391C72.2732 35.8166 77.4799 34.1713 77.4799 28.0523V27.0175H72.3189L72.2944 27.4108C72.0186 31.6921 68.529 31.3787 65.4017 31.3787H59.8083C52.7899 31.3787 50.6044 30.024 50.6044 25.0132V20.1982C50.9586 15.1026 52.1403 14.1967 58.3866 14.1967H64.3588C70.8728 14.1967 72.2846 16.5699 72.2846 18.5677V19.782H55.2871V24.0616H77.4848V20.7973C77.4848 11.6897 71.7721 9.76208 64.3637 9.76208H57.8186C52.0146 9.76208 45.4141 10.7838 45.4141 20.0873V25.3478C45.4092 34.7818 51.9918 35.8166 57.3437 35.8166Z" fill="#92979D"/>
<path d="M20.9616 35.8165H29.6677C37.4336 35.8165 40.8922 33.3095 40.8922 26.7726V25.5012H35.9695V26.8673C35.9695 30.2753 33.283 31.3786 29.5257 31.3786H23.1422C18.3061 31.3786 15.4547 30.2182 15.4547 25.302V20.2309C15.4547 14.7174 18.564 14.2016 22.3359 14.2016H29.826C33.8493 14.2016 35.9695 15.1319 35.9695 18.646V19.7592H40.8922V18.5367C40.8922 13.0166 37.5723 9.75879 29.7803 9.75879H22.9529C16.971 9.75879 10.2578 10.774 10.2578 20.084V25.4865C10.2578 34.7687 17.2484 35.8165 20.9616 35.8165Z" fill="#92979D"/>
<path d="M5.19686 10.1439H0V35.4378H5.19686V10.1439Z" fill="#92979D"/>
<path d="M0.829134 43.9578H0.00488281V48.0676H0.829134V43.9578Z" fill="#92979D"/>
<path d="M3.38414 44.9633C3.19037 44.9528 2.99716 44.9923 2.82308 45.0781C2.649 45.1639 2.49991 45.293 2.39014 45.453H2.37709V45.0351H1.63281V48.0661H2.42279V46.5824C2.42279 46.194 2.5452 45.5754 3.11646 45.5754C3.62244 45.5754 3.62897 46.0765 3.62897 46.447V48.0661H4.40752V46.1532C4.40752 45.4709 4.1023 44.9633 3.38414 44.9633Z" fill="#92979D"/>
<path d="M5.84281 45.8758C5.84281 45.6179 6.09579 45.5412 6.30798 45.5412C6.54949 45.5402 6.7891 45.5839 7.01471 45.6701L7.06694 45.076C6.78639 45.0038 6.4981 44.966 6.20841 44.9634C5.58982 44.9634 5.01855 45.2523 5.01855 45.9051C5.01855 47.0003 6.39122 46.5939 6.39122 47.1897C6.39122 47.4835 6.07294 47.5602 5.87218 47.5602C5.60106 47.5551 5.33493 47.4863 5.09527 47.3594L5.04793 48.0123C5.33987 48.0935 5.64102 48.1368 5.944 48.1412C6.58545 48.1412 7.21547 47.8589 7.21547 47.1521C7.21547 46.0537 5.84281 46.3589 5.84281 45.8758Z" fill="#92979D"/>
<path d="M9.23373 47.5242C8.9334 47.5242 8.86322 47.2826 8.86322 47.0247V45.6112H9.56342V45.0351H8.86322V44.1749L8.07488 44.4279V45.0351H7.49219V45.6112H8.07488V47.1537C8.07488 47.7543 8.416 48.133 9.0346 48.133C9.23118 48.1374 9.42738 48.1137 9.61729 48.0628L9.59281 47.4393C9.48271 47.4988 9.35882 47.5281 9.23373 47.5242Z" fill="#92979D"/>
<path d="M10.8987 43.7277H10.1104V44.4817H10.8987V43.7277Z" fill="#92979D"/>
<path d="M10.8987 45.0352H10.1104V48.0677H10.8987V45.0352Z" fill="#92979D"/>
<path d="M13.1331 47.5242C12.8328 47.5242 12.7626 47.2826 12.7626 47.0247V45.6112H13.4628V45.0351H12.7626V44.1749L11.9743 44.4279V45.0351H11.3916V45.6112H11.9743V47.1537C11.9743 47.7543 12.3154 48.133 12.934 48.133C13.1306 48.1374 13.3268 48.1137 13.5167 48.0628L13.4922 47.4393C13.3821 47.4988 13.2582 47.5281 13.1331 47.5242Z" fill="#92979D"/>
<path d="M15.9962 46.5188C15.9962 46.9073 15.8721 47.5242 15.3025 47.5242C14.7949 47.5242 14.79 47.0248 14.79 46.6543V45.0352H14V46.9481C14 47.6303 14.3134 48.1363 15.0315 48.1363C15.2228 48.1364 15.4117 48.0932 15.5839 48.0098C15.756 47.9264 15.907 47.805 16.0255 47.6548H16.037V48.0661H16.7845V45.0352H15.9962V46.5188Z" fill="#92979D"/>
<path d="M18.9971 47.5242C18.6968 47.5242 18.6249 47.2826 18.6249 47.0247V45.6112H19.3268V45.0351H18.6249V44.1749L17.8366 44.4279V45.0351H17.2539V45.6112H17.8366V47.1537C17.8366 47.7543 18.1777 48.133 18.7963 48.133C18.9929 48.1374 19.1891 48.1137 19.379 48.0628L19.3562 47.4393C19.2459 47.4984 19.1221 47.5277 18.9971 47.5242Z" fill="#92979D"/>
<path d="M20.6614 43.7277H19.873V44.4817H20.6614V43.7277Z" fill="#92979D"/>
<path d="M20.6614 45.0352H19.873V48.0677H20.6614V45.0352Z" fill="#92979D"/>
<path d="M22.8684 44.9634C21.9739 44.9634 21.2852 45.5705 21.2852 46.5711C21.2852 47.4427 21.8678 48.1363 22.8684 48.1363C23.8689 48.1363 24.4581 47.4427 24.4581 46.5711C24.4581 45.5705 23.7693 44.9634 22.8684 44.9634ZM22.8684 47.5243C22.2677 47.5243 22.1094 46.9775 22.1094 46.4764C22.1094 46.0243 22.3559 45.5754 22.8684 45.5754C23.3809 45.5754 23.6339 46.0112 23.6339 46.4764C23.6339 46.9824 23.4739 47.5243 22.8684 47.5243Z" fill="#92979D"/>
<path d="M26.8164 44.9633C26.6227 44.9528 26.4295 44.9923 26.2554 45.0781C26.0813 45.1639 25.9322 45.293 25.8224 45.453H25.811V45.0351H25.0635V48.0661H25.8518V46.5824C25.8518 46.194 25.9759 45.5754 26.5471 45.5754C27.0531 45.5754 27.058 46.0765 27.058 46.447V48.0661H27.848V46.1532C27.848 45.4709 27.5346 44.9633 26.8164 44.9633Z" fill="#92979D"/>
<path d="M31.6652 44.9634C30.7708 44.9634 30.082 45.5705 30.082 46.5711C30.082 47.4427 30.6647 48.1363 31.6652 48.1363C32.6658 48.1363 33.255 47.4427 33.255 46.5711C33.2517 45.5705 32.5629 44.9634 31.6652 44.9634ZM31.6652 47.5243C31.0646 47.5243 30.9047 46.9775 30.9047 46.4764C30.9047 46.0243 31.1527 45.5754 31.6652 45.5754C32.1778 45.5754 32.4307 46.0112 32.4307 46.4764C32.4275 46.9824 32.2675 47.5243 31.6652 47.5243Z" fill="#92979D"/>
<path d="M34.1442 44.6107V45.035H33.5615V45.6112H34.1442V48.0595H34.9293V45.6112H35.6181V45.035H34.9293V44.658C34.9293 44.423 35.0109 44.1928 35.2753 44.1928C35.3975 44.1938 35.5167 44.2307 35.6181 44.2989L35.6817 43.6461C35.4923 43.6053 35.2993 43.584 35.1056 43.5824C34.4853 43.5808 34.1442 44.0035 34.1442 44.6107Z" fill="#92979D"/>
<path d="M39.8826 47.4898C39.0045 47.4898 38.4871 46.8598 38.4871 46.0209C38.4871 45.1819 39.0176 44.5307 39.8647 44.5307C40.1754 44.5205 40.4831 44.5956 40.7542 44.7478L40.813 44.0541C40.5147 43.9459 40.1999 43.8907 39.8826 43.8909C38.4871 43.8909 37.627 44.6808 37.627 46.0878C37.627 47.4947 38.5524 48.1411 39.8826 48.1411C40.1982 48.1334 40.512 48.0902 40.8179 48.0121L40.7836 47.3233C40.4974 47.4386 40.1911 47.4952 39.8826 47.4898Z" fill="#92979D"/>
<path d="M42.1477 43.7277H41.3594V44.4817H42.1477V43.7277Z" fill="#92979D"/>
<path d="M42.1477 45.0352H41.3594V48.0677H42.1477V45.0352Z" fill="#92979D"/>
<path d="M44.2425 47.2418H44.2311L43.4786 45.0334H42.6299L43.7545 48.066H44.6424L45.762 45.0334H44.9737L44.2425 47.2418Z" fill="#92979D"/>
<path d="M47.0305 43.7277H46.2422V44.4817H47.0305V43.7277Z" fill="#92979D"/>
<path d="M47.0305 45.0352H46.2422V48.0677H47.0305V45.0352Z" fill="#92979D"/>
<path d="M48.6555 43.651H47.8672V48.066H48.6555V43.651Z" fill="#92979D"/>
<path d="M51.9912 46.264H53.4569V45.6177H51.9912V44.6041H53.5924V43.9578H51.167V48.066H53.6038V47.418H51.9912V46.264Z" fill="#92979D"/>
<path d="M56.1101 44.9633C55.9163 44.9528 55.7231 44.9923 55.549 45.0781C55.3749 45.1639 55.2258 45.293 55.1161 45.453H55.103V45.0351H54.3506V48.0661H55.1406V46.5824C55.1406 46.194 55.263 45.5754 55.8342 45.5754C56.3419 45.5754 56.3467 46.0765 56.3467 46.447V48.0661H57.1367V46.1532C57.1416 45.4709 56.8282 44.9633 56.1101 44.9633Z" fill="#92979D"/>
<path d="M59.9724 45.4463H59.961C59.8659 45.287 59.7288 45.1571 59.5646 45.0707C59.4005 44.9843 59.2157 44.9448 59.0306 44.9566C58.1231 44.9566 57.7461 45.7988 57.7461 46.5284C57.7461 47.3445 58.0889 48.0594 58.9833 48.0594C59.1691 48.0656 59.3534 48.0238 59.5183 47.938C59.6833 47.8522 59.8234 47.7254 59.9251 47.5698H59.9365C59.9365 48.0937 59.8957 48.7482 59.0241 48.7482C58.7146 48.721 58.414 48.6305 58.1411 48.4821L58.0758 49.1546C58.4083 49.293 58.7652 49.3629 59.1253 49.3603C60.3951 49.3603 60.7265 48.5833 60.7265 47.7591V45.035H59.9724V45.4463ZM59.2477 47.4506C58.794 47.4506 58.5752 46.9446 58.5752 46.5317C58.5752 46.0665 58.7385 45.572 59.282 45.572C59.7423 45.572 59.9349 45.9963 59.9349 46.5154C59.9349 47.0344 59.7374 47.4506 59.2477 47.4506Z" fill="#92979D"/>
<path d="M62.3313 43.7277H61.543V44.4817H62.3313V43.7277Z" fill="#92979D"/>
<path d="M62.3313 45.0352H61.543V48.0677H62.3313V45.0352Z" fill="#92979D"/>
<path d="M64.904 44.9633C64.7102 44.9528 64.517 44.9923 64.3429 45.0781C64.1689 45.1639 64.0198 45.293 63.91 45.453H63.8969V45.0351H63.1494V48.0661H63.9394V46.5824C63.9394 46.194 64.0634 45.5754 64.6331 45.5754C65.1407 45.5754 65.1456 46.0765 65.1456 46.447V48.0661H65.9404V46.1532C65.9404 45.4709 65.6222 44.9633 64.904 44.9633Z" fill="#92979D"/>
<path d="M67.946 44.9634C67.0042 44.9634 66.5391 45.6881 66.5391 46.5645C66.5391 47.5602 67.1234 48.1363 68.1239 48.1363C68.4862 48.1482 68.8452 48.065 69.1652 47.8948V47.2533C68.8622 47.4419 68.5149 47.5477 68.1582 47.5602C67.6685 47.5602 67.329 47.2827 67.2931 46.7947H69.3889C69.3889 45.7354 69.0706 44.9634 67.946 44.9634ZM67.2931 46.2528C67.329 45.8464 67.5527 45.5412 67.9933 45.5412C68.434 45.5412 68.6119 45.8676 68.6364 46.2528H67.2931Z" fill="#92979D"/>
<path d="M71.2077 44.9634C70.266 44.9634 69.8008 45.6881 69.8008 46.5645C69.8008 47.5602 70.3835 48.1363 71.384 48.1363C71.7468 48.1484 72.1064 48.0651 72.427 47.8948V47.2533C72.1236 47.4414 71.7765 47.5472 71.4199 47.5602C70.9302 47.5602 70.5891 47.2827 70.5548 46.7947H72.6506C72.6506 45.7354 72.3323 44.9634 71.2077 44.9634ZM70.5548 46.2528C70.5891 45.8464 70.8127 45.5412 71.255 45.5412C71.6974 45.5412 71.8736 45.8676 71.8965 46.2528H70.5548Z" fill="#92979D"/>
<path d="M73.9847 45.7239H73.9733V45.0351H73.2715V48.0661H74.0615V46.9611C74.0615 46.5269 74.0615 45.7255 74.7029 45.7255C74.8239 45.7197 74.9446 45.7421 75.0555 45.7908V44.9959C74.9766 44.976 74.8952 44.9677 74.8139 44.9715C74.3438 44.9633 74.0207 45.4399 73.9847 45.7239Z" fill="#92979D"/>
<path d="M76.1631 45.8758C76.1631 45.6179 76.4161 45.5412 76.6283 45.5412C76.8698 45.5402 77.1094 45.5839 77.335 45.6701L77.3873 45.076C77.1061 45.0038 76.8173 44.966 76.5271 44.9634C75.9101 44.9634 75.3389 45.2523 75.3389 45.9051C75.3389 47.0003 76.7099 46.5939 76.7099 47.1897C76.7099 47.4835 76.3835 47.5602 76.1925 47.5602C75.9213 47.5553 75.6551 47.4865 75.4156 47.3594L75.3682 48.0123C75.6596 48.0935 75.9602 48.1368 76.2627 48.1412C76.9041 48.1412 77.5342 47.8589 77.5342 47.1521C77.5293 46.0537 76.1631 46.3589 76.1631 45.8758Z" fill="#92979D"/>
<path d="M77.4323 41.0084H0V41.5878H77.4323V41.0084Z" fill="#92979D"/>
</svg>
