<svg width="195" height="18" viewBox="0 0 195 18" fill="none" xmlns="http://www.w3.org/2000/svg">
<path d="M2.186 14H0.674V1.436H5.678C6.782 1.436 7.64 1.742 8.252 2.354C8.876 2.966 9.188 3.848 9.188 5C9.188 5.924 8.972 6.686 8.54 7.286C8.12 7.874 7.496 8.264 6.668 8.456L9.548 14H7.838L5.12 8.6H2.186V14ZM5.678 7.304C6.278 7.304 6.74 7.148 7.064 6.836C7.4 6.524 7.568 6.08 7.568 5.504V4.568C7.568 3.992 7.4 3.548 7.064 3.236C6.74 2.924 6.278 2.768 5.678 2.768H2.186V7.304H5.678ZM15.272 14.216C14.636 14.216 14.06 14.102 13.544 13.874C13.04 13.646 12.602 13.322 12.23 12.902C11.87 12.47 11.588 11.96 11.384 11.372C11.192 10.772 11.096 10.1 11.096 9.356C11.096 8.624 11.192 7.958 11.384 7.358C11.588 6.758 11.87 6.248 12.23 5.828C12.602 5.396 13.04 5.066 13.544 4.838C14.06 4.61 14.636 4.496 15.272 4.496C15.896 4.496 16.454 4.61 16.946 4.838C17.438 5.066 17.858 5.384 18.206 5.792C18.554 6.188 18.818 6.662 18.998 7.214C19.19 7.766 19.286 8.372 19.286 9.032V9.716H12.608V10.148C12.608 10.544 12.668 10.916 12.788 11.264C12.92 11.6 13.1 11.894 13.328 12.146C13.568 12.398 13.856 12.596 14.192 12.74C14.54 12.884 14.93 12.956 15.362 12.956C15.95 12.956 16.46 12.818 16.892 12.542C17.336 12.266 17.678 11.87 17.918 11.354L18.944 12.092C18.644 12.728 18.176 13.244 17.54 13.64C16.904 14.024 16.148 14.216 15.272 14.216ZM15.272 5.702C14.876 5.702 14.516 5.774 14.192 5.918C13.868 6.05 13.586 6.242 13.346 6.494C13.118 6.746 12.938 7.046 12.806 7.394C12.674 7.73 12.608 8.102 12.608 8.51V8.636H17.738V8.438C17.738 7.61 17.51 6.95 17.054 6.458C16.61 5.954 16.016 5.702 15.272 5.702ZM24.4489 14.216C23.5849 14.216 22.8589 14.054 22.2709 13.73C21.6949 13.394 21.1969 12.95 20.7769 12.398L21.8029 11.57C22.1629 12.026 22.5649 12.38 23.0089 12.632C23.4529 12.872 23.9689 12.992 24.5569 12.992C25.1689 12.992 25.6429 12.86 25.9789 12.596C26.3269 12.332 26.5009 11.96 26.5009 11.48C26.5009 11.12 26.3809 10.814 26.1409 10.562C25.9129 10.298 25.4929 10.118 24.8809 10.022L24.1429 9.914C23.7109 9.854 23.3149 9.764 22.9549 9.644C22.5949 9.512 22.2769 9.344 22.0009 9.14C21.7369 8.924 21.5269 8.66 21.3709 8.348C21.2269 8.036 21.1549 7.664 21.1549 7.232C21.1549 6.776 21.2389 6.38 21.4069 6.044C21.5749 5.696 21.8029 5.408 22.0909 5.18C22.3909 4.952 22.7449 4.784 23.1529 4.676C23.5609 4.556 23.9989 4.496 24.4669 4.496C25.2229 4.496 25.8529 4.628 26.3569 4.892C26.8729 5.156 27.3229 5.522 27.7069 5.99L26.7529 6.854C26.5489 6.566 26.2489 6.308 25.8529 6.08C25.4569 5.84 24.9589 5.72 24.3589 5.72C23.7589 5.72 23.3029 5.852 22.9909 6.116C22.6909 6.368 22.5409 6.716 22.5409 7.16C22.5409 7.616 22.6909 7.946 22.9909 8.15C23.3029 8.354 23.7469 8.504 24.3229 8.6L25.0429 8.708C26.0749 8.864 26.8069 9.164 27.2389 9.608C27.6709 10.04 27.8869 10.61 27.8869 11.318C27.8869 12.218 27.5809 12.926 26.9689 13.442C26.3569 13.958 25.5169 14.216 24.4489 14.216ZM33.9224 14.216C33.2864 14.216 32.7104 14.102 32.1944 13.874C31.6904 13.646 31.2524 13.322 30.8804 12.902C30.5204 12.47 30.2384 11.96 30.0344 11.372C29.8424 10.772 29.7464 10.1 29.7464 9.356C29.7464 8.624 29.8424 7.958 30.0344 7.358C30.2384 6.758 30.5204 6.248 30.8804 5.828C31.2524 5.396 31.6904 5.066 32.1944 4.838C32.7104 4.61 33.2864 4.496 33.9224 4.496C34.5464 4.496 35.1044 4.61 35.5964 4.838C36.0884 5.066 36.5084 5.384 36.8564 5.792C37.2044 6.188 37.4684 6.662 37.6484 7.214C37.8404 7.766 37.9364 8.372 37.9364 9.032V9.716H31.2584V10.148C31.2584 10.544 31.3184 10.916 31.4384 11.264C31.5704 11.6 31.7504 11.894 31.9784 12.146C32.2184 12.398 32.5064 12.596 32.8424 12.74C33.1904 12.884 33.5804 12.956 34.0124 12.956C34.6004 12.956 35.1104 12.818 35.5424 12.542C35.9864 12.266 36.3284 11.87 36.5684 11.354L37.5944 12.092C37.2944 12.728 36.8264 13.244 36.1904 13.64C35.5544 14.024 34.7984 14.216 33.9224 14.216ZM33.9224 5.702C33.5264 5.702 33.1664 5.774 32.8424 5.918C32.5184 6.05 32.2364 6.242 31.9964 6.494C31.7684 6.746 31.5884 7.046 31.4564 7.394C31.3244 7.73 31.2584 8.102 31.2584 8.51V8.636H36.3884V8.438C36.3884 7.61 36.1604 6.95 35.7044 6.458C35.2604 5.954 34.6664 5.702 33.9224 5.702ZM47.0593 14C46.5193 14 46.1293 13.856 45.8893 13.568C45.6613 13.28 45.5173 12.92 45.4573 12.488H45.3673C45.1633 13.064 44.8273 13.496 44.3593 13.784C43.8913 14.072 43.3333 14.216 42.6853 14.216C41.7013 14.216 40.9333 13.964 40.3813 13.46C39.8413 12.956 39.5713 12.272 39.5713 11.408C39.5713 10.532 39.8893 9.86 40.5253 9.392C41.1733 8.924 42.1753 8.69 43.5313 8.69H45.3673V7.772C45.3673 7.112 45.1873 6.608 44.8273 6.26C44.4673 5.912 43.9153 5.738 43.1713 5.738C42.6073 5.738 42.1333 5.864 41.7493 6.116C41.3773 6.368 41.0653 6.704 40.8133 7.124L39.9493 6.314C40.2013 5.81 40.6033 5.384 41.1553 5.036C41.7073 4.676 42.4033 4.496 43.2433 4.496C44.3713 4.496 45.2473 4.772 45.8713 5.324C46.4953 5.876 46.8073 6.644 46.8073 7.628V12.74H47.8693V14H47.0593ZM42.9193 12.992C43.2793 12.992 43.6093 12.95 43.9093 12.866C44.2093 12.782 44.4673 12.662 44.6833 12.506C44.8993 12.35 45.0673 12.17 45.1873 11.966C45.3073 11.762 45.3673 11.54 45.3673 11.3V9.77H43.4593C42.6313 9.77 42.0253 9.89 41.6413 10.13C41.2693 10.37 41.0833 10.718 41.0833 11.174V11.552C41.0833 12.008 41.2453 12.362 41.5693 12.614C41.9053 12.866 42.3553 12.992 42.9193 12.992ZM49.9245 14V4.712H51.3645V6.422H51.4545C51.6225 5.978 51.9225 5.582 52.3545 5.234C52.7865 4.886 53.3805 4.712 54.1365 4.712H54.6945V6.152H53.8485C53.0685 6.152 52.4565 6.302 52.0125 6.602C51.5805 6.89 51.3645 7.256 51.3645 7.7V14H49.9245ZM59.902 14.216C59.254 14.216 58.672 14.102 58.156 13.874C57.64 13.646 57.202 13.322 56.842 12.902C56.494 12.482 56.224 11.972 56.032 11.372C55.852 10.772 55.762 10.1 55.762 9.356C55.762 8.612 55.852 7.94 56.032 7.34C56.224 6.74 56.494 6.23 56.842 5.81C57.202 5.39 57.64 5.066 58.156 4.838C58.672 4.61 59.254 4.496 59.902 4.496C60.826 4.496 61.564 4.7 62.116 5.108C62.68 5.504 63.1 6.026 63.376 6.674L62.17 7.286C62.002 6.806 61.726 6.434 61.342 6.17C60.958 5.906 60.478 5.774 59.902 5.774C59.47 5.774 59.092 5.846 58.768 5.99C58.444 6.122 58.174 6.314 57.958 6.566C57.742 6.806 57.58 7.1 57.472 7.448C57.364 7.784 57.31 8.156 57.31 8.564V10.148C57.31 10.964 57.526 11.636 57.958 12.164C58.402 12.68 59.05 12.938 59.902 12.938C61.066 12.938 61.906 12.398 62.422 11.318L63.466 12.02C63.166 12.692 62.716 13.226 62.116 13.622C61.528 14.018 60.79 14.216 59.902 14.216ZM65.4988 0.68H66.9388V6.224H67.0108C67.2388 5.696 67.5568 5.276 67.9648 4.964C68.3848 4.652 68.9428 4.496 69.6388 4.496C70.5988 4.496 71.3548 4.808 71.9068 5.432C72.4708 6.044 72.7528 6.914 72.7528 8.042V14H71.3128V8.294C71.3128 6.626 70.6108 5.792 69.2068 5.792C68.9188 5.792 68.6368 5.828 68.3608 5.9C68.0968 5.972 67.8568 6.08 67.6408 6.224C67.4248 6.368 67.2508 6.554 67.1188 6.782C66.9988 6.998 66.9388 7.256 66.9388 7.556V14H65.4988V0.68ZM76.6472 11.894C77.0312 11.894 77.3072 11.996 77.4752 12.2C77.6552 12.392 77.7452 12.644 77.7452 12.956V13.208C77.7452 13.7 77.6012 14.24 77.3132 14.828C77.0252 15.428 76.6232 15.95 76.1072 16.394H74.9012C75.2612 16.01 75.5492 15.644 75.7652 15.296C75.9932 14.96 76.1552 14.582 76.2512 14.162C76.0112 14.102 75.8312 13.988 75.7112 13.82C75.6032 13.652 75.5492 13.448 75.5492 13.208V12.956C75.5492 12.644 75.6332 12.392 75.8012 12.2C75.9812 11.996 76.2632 11.894 76.6472 11.894ZM95.5974 3.452H95.5074L94.0494 5.558L90.1434 11.012L88.3614 5.558L87.6954 3.47H87.6054L85.4994 14H84.0594L86.5794 1.436H88.4694L90.5934 8.258H90.6474L95.3814 1.436H97.4154L94.8954 14H93.4554L95.5974 3.452ZM105.339 14C104.931 14 104.625 13.898 104.421 13.694C104.229 13.49 104.133 13.22 104.133 12.884C104.133 12.74 104.151 12.578 104.187 12.398L104.277 11.984H104.223C103.839 12.764 103.413 13.334 102.945 13.694C102.477 14.042 101.901 14.216 101.217 14.216C100.365 14.216 99.6807 13.904 99.1647 13.28C98.6487 12.644 98.3907 11.774 98.3907 10.67C98.3907 9.986 98.4807 9.284 98.6607 8.564C98.8527 7.832 99.1347 7.166 99.5067 6.566C99.8787 5.954 100.347 5.456 100.911 5.072C101.487 4.688 102.159 4.496 102.927 4.496C103.203 4.496 103.473 4.532 103.737 4.604C104.001 4.676 104.241 4.784 104.457 4.928C104.673 5.072 104.859 5.252 105.015 5.468C105.171 5.684 105.285 5.936 105.357 6.224H105.429L105.735 4.712H107.121L105.501 12.776H106.815L106.581 14H105.339ZM101.595 12.956C102.003 12.956 102.357 12.872 102.657 12.704C102.969 12.536 103.263 12.314 103.539 12.038C103.839 11.738 104.085 11.408 104.277 11.048C104.469 10.688 104.613 10.274 104.709 9.806L105.087 7.916C105.147 7.628 105.153 7.358 105.105 7.106C105.057 6.842 104.949 6.614 104.781 6.422C104.613 6.218 104.385 6.056 104.097 5.936C103.809 5.816 103.461 5.756 103.053 5.756C102.297 5.756 101.673 6.002 101.181 6.494C100.689 6.986 100.353 7.682 100.173 8.582L99.9027 9.932C99.8427 10.268 99.8127 10.574 99.8127 10.85C99.8127 11.462 99.9507 11.966 100.227 12.362C100.515 12.758 100.971 12.956 101.595 12.956ZM111.297 0.68H112.683L110.991 9.05H111.081L112.737 7.466L115.869 4.712H117.543L113.403 8.456L115.293 12.776H116.481L116.247 14H115.455C115.035 14 114.711 13.928 114.483 13.784C114.267 13.628 114.081 13.376 113.925 13.028L112.287 9.266L110.649 10.742L110.001 14H108.615L111.297 0.68ZM121.341 14.216C120.225 14.216 119.361 13.886 118.749 13.226C118.137 12.566 117.831 11.6 117.831 10.328C117.831 9.56 117.945 8.828 118.173 8.132C118.413 7.424 118.743 6.8 119.163 6.26C119.595 5.72 120.105 5.294 120.693 4.982C121.293 4.658 121.959 4.496 122.691 4.496C123.087 4.496 123.465 4.55 123.825 4.658C124.185 4.754 124.503 4.904 124.779 5.108C125.055 5.312 125.271 5.57 125.427 5.882C125.595 6.194 125.679 6.56 125.679 6.98C125.679 8 125.151 8.756 124.095 9.248C123.051 9.74 121.443 9.998 119.271 10.022C119.247 10.154 119.229 10.292 119.217 10.436C119.217 10.568 119.217 10.682 119.217 10.778C119.217 11.438 119.403 11.972 119.775 12.38C120.159 12.776 120.711 12.974 121.431 12.974C122.019 12.974 122.547 12.842 123.015 12.578C123.495 12.302 123.915 11.942 124.275 11.498L125.175 12.308C124.599 13.016 123.981 13.514 123.321 13.802C122.673 14.078 122.013 14.216 121.341 14.216ZM122.547 5.684C122.187 5.684 121.839 5.75 121.503 5.882C121.179 6.014 120.885 6.2 120.621 6.44C120.369 6.668 120.147 6.956 119.955 7.304C119.775 7.64 119.643 8.012 119.559 8.42L119.451 8.942C120.447 8.906 121.257 8.846 121.881 8.762C122.505 8.666 122.991 8.54 123.339 8.384C123.699 8.216 123.939 8.018 124.059 7.79C124.191 7.562 124.257 7.286 124.257 6.962C124.257 6.71 124.209 6.506 124.113 6.35C124.017 6.182 123.891 6.05 123.735 5.954C123.579 5.858 123.393 5.792 123.177 5.756C122.973 5.708 122.763 5.684 122.547 5.684ZM128.591 11.894C128.975 11.894 129.251 11.996 129.419 12.2C129.599 12.392 129.689 12.644 129.689 12.956V13.208C129.689 13.7 129.545 14.24 129.257 14.828C128.969 15.428 128.567 15.95 128.051 16.394H126.845C127.205 16.01 127.493 15.644 127.709 15.296C127.937 14.96 128.099 14.582 128.195 14.162C127.955 14.102 127.775 13.988 127.655 13.82C127.547 13.652 127.493 13.448 127.493 13.208V12.956C127.493 12.644 127.577 12.392 127.745 12.2C127.925 11.996 128.207 11.894 128.591 11.894ZM141.403 14.216C139.807 14.216 138.565 13.676 137.677 12.596C136.789 11.504 136.345 9.902 136.345 7.79C136.345 5.678 136.789 4.058 137.677 2.93C138.565 1.79 139.807 1.22 141.403 1.22C142.459 1.22 143.341 1.46 144.049 1.94C144.769 2.42 145.327 3.098 145.723 3.974L144.499 4.712C144.247 4.064 143.863 3.548 143.347 3.164C142.831 2.768 142.183 2.57 141.403 2.57C140.863 2.57 140.377 2.672 139.945 2.876C139.525 3.08 139.165 3.374 138.865 3.758C138.577 4.13 138.355 4.58 138.199 5.108C138.043 5.624 137.965 6.206 137.965 6.854V8.726C137.965 10.022 138.265 11.036 138.865 11.768C139.465 12.5 140.311 12.866 141.403 12.866C142.207 12.866 142.879 12.662 143.419 12.254C143.959 11.834 144.355 11.282 144.607 10.598L145.813 11.354C145.417 12.242 144.847 12.944 144.103 13.46C143.359 13.964 142.459 14.216 141.403 14.216ZM148.01 0.68H149.45V6.224H149.522C149.75 5.696 150.068 5.276 150.476 4.964C150.896 4.652 151.454 4.496 152.15 4.496C153.11 4.496 153.866 4.808 154.418 5.432C154.982 6.044 155.264 6.914 155.264 8.042V14H153.824V8.294C153.824 6.626 153.122 5.792 151.718 5.792C151.43 5.792 151.148 5.828 150.872 5.9C150.608 5.972 150.368 6.08 150.152 6.224C149.936 6.368 149.762 6.554 149.63 6.782C149.51 6.998 149.45 7.256 149.45 7.556V14H148.01V0.68ZM164.991 14C164.451 14 164.061 13.856 163.821 13.568C163.593 13.28 163.449 12.92 163.389 12.488H163.299C163.095 13.064 162.759 13.496 162.291 13.784C161.823 14.072 161.265 14.216 160.617 14.216C159.633 14.216 158.865 13.964 158.313 13.46C157.773 12.956 157.503 12.272 157.503 11.408C157.503 10.532 157.821 9.86 158.457 9.392C159.105 8.924 160.107 8.69 161.463 8.69H163.299V7.772C163.299 7.112 163.119 6.608 162.759 6.26C162.399 5.912 161.847 5.738 161.103 5.738C160.539 5.738 160.065 5.864 159.681 6.116C159.309 6.368 158.997 6.704 158.745 7.124L157.881 6.314C158.133 5.81 158.535 5.384 159.087 5.036C159.639 4.676 160.335 4.496 161.175 4.496C162.303 4.496 163.179 4.772 163.803 5.324C164.427 5.876 164.739 6.644 164.739 7.628V12.74H165.801V14H164.991ZM160.851 12.992C161.211 12.992 161.541 12.95 161.841 12.866C162.141 12.782 162.399 12.662 162.615 12.506C162.831 12.35 162.999 12.17 163.119 11.966C163.239 11.762 163.299 11.54 163.299 11.3V9.77H161.391C160.563 9.77 159.957 9.89 159.573 10.13C159.201 10.37 159.015 10.718 159.015 11.174V11.552C159.015 12.008 159.177 12.362 159.501 12.614C159.837 12.866 160.287 12.992 160.851 12.992ZM167.856 14V4.712H169.296V6.224H169.368C169.596 5.696 169.914 5.276 170.322 4.964C170.742 4.652 171.3 4.496 171.996 4.496C172.956 4.496 173.712 4.808 174.264 5.432C174.828 6.044 175.11 6.914 175.11 8.042V14H173.67V8.294C173.67 6.626 172.968 5.792 171.564 5.792C171.276 5.792 170.994 5.828 170.718 5.9C170.454 5.972 170.214 6.08 169.998 6.224C169.782 6.368 169.608 6.554 169.476 6.782C169.356 6.998 169.296 7.256 169.296 7.556V14H167.856ZM185.917 15.026C185.917 15.986 185.539 16.688 184.783 17.132C184.039 17.588 182.917 17.816 181.417 17.816C179.965 17.816 178.921 17.618 178.285 17.222C177.649 16.826 177.331 16.262 177.331 15.53C177.331 15.026 177.463 14.63 177.727 14.342C177.991 14.066 178.351 13.862 178.807 13.73V13.532C178.255 13.268 177.979 12.836 177.979 12.236C177.979 11.768 178.129 11.414 178.429 11.174C178.729 10.922 179.113 10.736 179.581 10.616V10.544C179.029 10.28 178.597 9.902 178.285 9.41C177.985 8.918 177.835 8.348 177.835 7.7C177.835 7.232 177.919 6.8 178.087 6.404C178.255 6.008 178.489 5.672 178.789 5.396C179.101 5.108 179.467 4.886 179.887 4.73C180.319 4.574 180.799 4.496 181.327 4.496C181.987 4.496 182.575 4.616 183.091 4.856V4.694C183.091 4.334 183.175 4.04 183.343 3.812C183.511 3.572 183.787 3.452 184.171 3.452H185.557V4.712H183.793V5.306C184.129 5.594 184.387 5.942 184.567 6.35C184.759 6.746 184.855 7.196 184.855 7.7C184.855 8.168 184.771 8.6 184.603 8.996C184.435 9.392 184.195 9.734 183.883 10.022C183.583 10.298 183.217 10.514 182.785 10.67C182.353 10.826 181.873 10.904 181.345 10.904C181.045 10.904 180.745 10.874 180.445 10.814C180.133 10.898 179.851 11.024 179.599 11.192C179.347 11.348 179.221 11.57 179.221 11.858C179.221 12.134 179.353 12.32 179.617 12.416C179.881 12.512 180.223 12.56 180.643 12.56H182.623C183.775 12.56 184.609 12.782 185.125 13.226C185.653 13.658 185.917 14.258 185.917 15.026ZM184.567 15.134C184.567 14.762 184.423 14.462 184.135 14.234C183.859 14.018 183.361 13.91 182.641 13.91H179.545C178.969 14.174 178.681 14.594 178.681 15.17C178.681 15.578 178.831 15.926 179.131 16.214C179.443 16.502 179.965 16.646 180.697 16.646H182.029C182.833 16.646 183.457 16.52 183.901 16.268C184.345 16.016 184.567 15.638 184.567 15.134ZM181.345 9.752C181.957 9.752 182.443 9.608 182.803 9.32C183.163 9.02 183.343 8.564 183.343 7.952V7.448C183.343 6.836 183.163 6.386 182.803 6.098C182.443 5.798 181.957 5.648 181.345 5.648C180.733 5.648 180.247 5.798 179.887 6.098C179.527 6.386 179.347 6.836 179.347 7.448V7.952C179.347 8.564 179.527 9.02 179.887 9.32C180.247 9.608 180.733 9.752 181.345 9.752ZM190.983 14.216C190.347 14.216 189.771 14.102 189.255 13.874C188.751 13.646 188.313 13.322 187.941 12.902C187.581 12.47 187.299 11.96 187.095 11.372C186.903 10.772 186.807 10.1 186.807 9.356C186.807 8.624 186.903 7.958 187.095 7.358C187.299 6.758 187.581 6.248 187.941 5.828C188.313 5.396 188.751 5.066 189.255 4.838C189.771 4.61 190.347 4.496 190.983 4.496C191.607 4.496 192.165 4.61 192.657 4.838C193.149 5.066 193.569 5.384 193.917 5.792C194.265 6.188 194.529 6.662 194.709 7.214C194.901 7.766 194.997 8.372 194.997 9.032V9.716H188.319V10.148C188.319 10.544 188.379 10.916 188.499 11.264C188.631 11.6 188.811 11.894 189.039 12.146C189.279 12.398 189.567 12.596 189.903 12.74C190.251 12.884 190.641 12.956 191.073 12.956C191.661 12.956 192.171 12.818 192.603 12.542C193.047 12.266 193.389 11.87 193.629 11.354L194.655 12.092C194.355 12.728 193.887 13.244 193.251 13.64C192.615 14.024 191.859 14.216 190.983 14.216ZM190.983 5.702C190.587 5.702 190.227 5.774 189.903 5.918C189.579 6.05 189.297 6.242 189.057 6.494C188.829 6.746 188.649 7.046 188.517 7.394C188.385 7.73 188.319 8.102 188.319 8.51V8.636H193.449V8.438C193.449 7.61 193.221 6.95 192.765 6.458C192.321 5.954 191.727 5.702 190.983 5.702Z" fill="black"/>
</svg>
