<svg width="40" height="40" viewBox="0 0 40 40" fill="none" xmlns="http://www.w3.org/2000/svg">
<path d="M20 0L23.0355 5.71905L28.1347 1.72909L28.5817 8.18835L34.8629 6.61739L32.644 12.7L39.0211 13.8197L34.52 18.4739L39.8904 22.0906L33.8854 24.5116L37.3205 30L30.8499 29.7693L31.7557 36.1803L25.9384 33.3378L24.1582 39.563L20 34.6L15.8418 39.563L14.0616 33.3378L8.24429 36.1803L9.15008 29.7693L2.67949 30L6.11457 24.5116L0.109558 22.0906L5.47998 18.4739L0.978867 13.8197L7.35603 12.7L5.1371 6.61739L11.4183 8.18835L11.8653 1.72909L16.9645 5.71905L20 0Z" fill="#F5EA87"/>
</svg>
