<svg width="102" height="48" viewBox="0 0 102 48" fill="none" xmlns="http://www.w3.org/2000/svg">
<path d="M58.1395 26.1106H55.749V35.4209H58.1395V26.1106Z" fill="#92979D"/>
<path d="M48.1388 31.5324H51.3261V35.4209H53.713V26.1106H51.3261V29.7086H48.1388V26.1106H45.752V35.4209H48.1388V31.5324Z" fill="#92979D"/>
<path d="M29.578 0H27.5417V20.4444L13.6205 0H0.00746246V36.4762C-0.0299518 37.7163 0.0734085 38.9566 0.315562 40.1734C1.37798 44.9791 5.13892 47.5536 11.2938 47.5536H13.3301V26.8012L27.4319 47.5501H40.8643V11.0739C40.9026 9.83144 40.7992 8.58867 40.5563 7.36961C39.4726 2.57458 35.7187 0 29.578 0ZM38.612 45.3297H28.6147L11.0778 19.4953V45.4359H10.667C6.38194 45.4359 3.54884 43.5377 2.5785 39.8936C2.31255 38.7077 2.19949 37.4926 2.24207 36.2779V2.23461H12.4023L29.755 27.7042V2.1142H30.1694C34.4438 2.1142 37.3053 4.01238 38.2544 7.65646C38.5293 8.84596 38.6483 10.0662 38.6085 11.2864L38.612 45.3297Z" fill="#92979D"/>
<path d="M50.1328 44.3947L47.4626 38.2397H45.7627V47.55H47.0022V39.7838H47.034C47.2406 40.5224 47.5022 41.2445 47.8167 41.944L49.7609 46.3106H50.4975L52.4417 41.944C52.7693 41.2435 53.0359 40.516 53.2385 39.7696H53.2704V47.5359H54.5099V38.2397H52.81L50.1328 44.3947Z" fill="#92979D"/>
<path d="M66.9611 40.5275C66.9611 39.6422 67.6694 39.072 68.7956 39.072C69.2696 39.0655 69.7399 39.1564 70.1773 39.3392C70.6147 39.5219 71.0098 39.7926 71.3383 40.1345L72.1068 39.366C71.6816 38.9261 71.1687 38.5805 70.6013 38.3517C70.0339 38.1229 69.4247 38.016 68.8133 38.038C66.8053 38.038 65.704 39.1004 65.704 40.6232C65.704 43.8706 70.7894 42.7692 70.7894 45.142C70.7894 46.1831 69.9147 46.7356 68.5548 46.7356C68.0473 46.7441 67.5436 46.646 67.0764 46.4478C66.6091 46.2495 66.1886 45.9555 65.8421 45.5846L65.1338 46.4877C65.5956 46.9219 66.1397 47.2593 66.7339 47.4801C67.3281 47.7008 67.9604 47.8005 68.5937 47.7732C70.5238 47.7732 72.1634 46.9162 72.1634 45.0499C72.1528 41.7777 66.9611 42.6949 66.9611 40.5275Z" fill="#92979D"/>
<path d="M62.5049 44.3486C62.5049 46.0804 61.4177 46.6753 60.2525 46.6753C59.0874 46.6753 58.0002 46.0804 58.0002 44.3486V39.2349C58.0002 38.5443 57.7098 38.2397 57.0193 38.2397H56.7607V44.423C56.7607 46.902 58.5987 47.7767 60.2525 47.7767C61.9064 47.7767 63.7514 46.8736 63.7514 44.423V38.2397H62.5119L62.5049 44.3486Z" fill="#92979D"/>
<path d="M75.4598 43.141H79.3801V42.1282H75.4598V39.249H79.0402C79.7484 39.249 80.0388 38.9586 80.0388 38.4062V38.2397H74.2168V47.55H80.2371V46.5478H75.4598V43.141Z" fill="#92979D"/>
<path d="M93.3754 35.4209L91.2506 31.5608C92.3378 31.0721 92.8124 30.2469 92.8124 29.0393C92.8124 27.2686 91.6508 26.1106 89.3064 26.1106H85.4463V35.4209H87.8332V31.9007H88.9947L90.1599 34.2876C90.514 35.0242 90.9708 35.513 92.2422 35.513C92.6217 35.5105 93.0005 35.4797 93.3754 35.4209ZM89.1647 30.1371H87.8332V27.9167H89.1187C90.0678 27.9167 90.4219 28.4054 90.4219 28.9791C90.4219 29.5528 90.1457 30.1371 89.1647 30.1371Z" fill="#92979D"/>
<path d="M95.6248 44.3947L92.944 38.2397H91.2441V47.55H92.4836V39.7838H92.5155C92.7264 40.5275 92.9928 41.2543 93.3123 41.9582L95.2707 46.3247H95.979L97.9267 41.9582C98.251 41.2563 98.5175 40.5291 98.7235 39.7838H98.7519V47.55H99.9949V38.2397H98.2915L95.6248 44.3947Z" fill="#92979D"/>
<path d="M87.7422 39.2349V44.3486C87.7422 46.0804 86.6514 46.6753 85.4899 46.6753C84.3283 46.6753 83.2375 46.0804 83.2375 44.3486V38.2397H81.998V44.423C81.998 46.902 83.836 47.7767 85.4899 47.7767C87.1437 47.7767 88.9816 46.8878 88.9816 44.423V38.2397H88.7196C88.0326 38.2397 87.7422 38.5443 87.7422 39.2349Z" fill="#92979D"/>
<path d="M74.9392 26.5568V26.1106H67.7715V27.9946H70.1265V35.4315H72.5169V27.9946H73.2819C74.5391 27.9946 74.9392 27.5661 74.9392 26.5568Z" fill="#92979D"/>
<path d="M89.3633 21.6095H92.1681L92.547 23.2314H94.9162L92.3133 13.9211H89.1579L86.6436 23.2314H88.9879L89.3633 21.6095ZM90.7268 15.6812H90.7586L91.729 19.7857H89.7989L90.7268 15.6812Z" fill="#92979D"/>
<path d="M47.8938 17.427H47.9256C48.2954 18.3773 48.7456 19.2943 49.2714 20.168L50.4223 22.0839C50.9429 22.9551 51.3395 23.2313 52.2426 23.2313H53.2554V13.921H51.1093V19.6333H51.0775C50.7261 18.7103 50.296 17.8194 49.7919 16.9702L48.7295 15.1995C48.1169 14.1725 47.7486 13.8962 46.8313 13.8962H45.7441V23.2313H47.8867L47.8938 17.427Z" fill="#92979D"/>
<path d="M101.632 23.2314V21.3474H98.3062V13.9211H95.9795V23.2314H98.0016H101.632Z" fill="#92979D"/>
<path d="M96.4719 32.3257V35.4209H98.8305V32.3257L102 26.1106H99.3971L97.6654 30.0769H97.6335L95.9053 26.1106H93.2988L96.4719 32.3257Z" fill="#92979D"/>
<path d="M79.5606 25.8945C76.5752 25.8945 75.2578 27.7325 75.2578 30.7675C75.2578 33.8024 76.5752 35.6369 79.5606 35.6369C82.546 35.6369 83.8634 33.7989 83.8634 30.7675C83.8634 27.736 82.5495 25.8945 79.5606 25.8945ZM79.5606 33.7528C78.183 33.7528 77.7545 32.74 77.7545 30.7675C77.7545 28.7949 78.183 27.7785 79.5606 27.7785C80.9382 27.7785 81.3702 28.7914 81.3702 30.7675C81.3702 32.7436 80.9417 33.7528 79.5606 33.7528Z" fill="#92979D"/>
<path d="M81.2502 19.7078H82.3126L83.2156 22.084C83.5202 22.8631 83.8283 23.2916 85.128 23.2916C85.4559 23.2914 85.7835 23.2713 86.1089 23.2314L84.487 19.4032C85.5281 18.9747 86.0771 18.0716 86.0771 16.8605C86.0771 15.0898 84.9155 13.9211 82.5711 13.9211H78.9199V23.2314H81.2502V19.7078ZM81.2502 15.7272H82.4436C83.3927 15.7272 83.7433 16.216 83.7433 16.7897C83.7433 17.3634 83.4529 17.9371 82.4719 17.9371H81.2502V15.7272Z" fill="#92979D"/>
<path d="M73.545 23.4475C75.429 23.4475 77.1749 22.6967 77.1749 20.1681V13.9211H74.8482V20.1079C74.8482 21.1172 74.4197 21.5776 73.545 21.5776C72.6702 21.5776 72.2524 21.1172 72.2524 20.1079V15.791C72.2524 14.548 71.8061 13.9211 70.4817 13.9211H69.915V20.1681C69.915 22.6967 71.6609 23.4475 73.545 23.4475Z" fill="#92979D"/>
<path d="M57.0983 21.6095H59.8854L60.2997 23.2314H62.6901L59.9633 13.9211H56.8115L54.4033 23.2314H56.7442L57.0983 21.6095ZM58.3838 15.6812H58.4157L59.425 19.7857H57.4949L58.3838 15.6812Z" fill="#92979D"/>
<path d="M63.2531 33.8273C62.2404 33.7967 61.2705 33.412 60.5121 32.7401L59.5488 34.3479C60.6313 35.2085 61.9802 35.6644 63.3629 35.637C65.5196 35.637 67.1309 34.532 67.1309 32.6799C67.1309 29.3581 62.258 30.123 62.258 28.5011C62.258 27.9947 62.6865 27.7043 63.455 27.7043C64.3709 27.7313 65.2522 28.06 65.9623 28.6392L66.8228 27.0279C65.8689 26.2649 64.6761 25.8635 63.455 25.8946C61.6312 25.8946 59.9596 26.8154 59.9596 28.7596C59.9596 32.0672 64.8326 31.2881 64.8326 32.9243C64.8326 33.6148 64.1278 33.8273 63.2531 33.8273Z" fill="#92979D"/>
<path d="M64.4181 23.2314H66.7448V15.7945H67.3574C68.6288 15.7945 69.0289 15.366 69.0289 14.3532V13.9211H62.2295V15.8052H64.4181V23.2314Z" fill="#92979D"/>
</svg>
