<svg width="107" height="40" viewBox="0 0 107 40" fill="none" xmlns="http://www.w3.org/2000/svg">
<path d="M99.0555 35.073C99.0555 37.07 100.229 38.0941 101.658 38.0941C103.086 38.0941 104.255 37.07 104.255 35.073C104.255 33.1278 103.086 32.1037 101.658 32.1037C100.229 32.1037 99.0555 33.1278 99.0555 35.073ZM105.33 37.9407H106.554V38.9648H104.255V37.8383C103.8 38.5547 102.78 39.1183 101.556 39.1183C99.3616 39.1183 97.9336 37.3771 97.9336 35.073C97.9336 32.7695 99.3615 31.0284 101.556 31.0284C102.725 31.0284 103.698 31.5407 104.208 32.3083V29.1343H102.984V28.1102H105.33V37.9407Z" fill="#92979D"/>
<path d="M94.3608 37.941H95.5854V38.9651H91.9639V37.941H93.1878V32.2063H91.9639V31.2334H94.2588V32.3087C94.7178 31.4899 95.8404 30.7216 97.3704 31.2334V32.3598C95.5345 31.8481 94.3608 32.821 94.3608 34.6127V37.941Z" fill="#92979D"/>
<path d="M61.5153 11.5197C59.4747 12.2873 58.0971 13.6191 58.0971 13.6191C58.0495 12.9532 57.893 12.2873 57.6891 11.7755C57.6891 11.7755 58.3555 10.4956 60.2913 9.16439C62.3822 7.73095 64.7792 7.32153 64.7792 7.32153C65.2898 8.39609 65.6468 9.52264 65.7998 10.7003C65.7998 10.7003 64.0652 10.5468 61.5153 11.5197Z" fill="#92979D"/>
<path d="M60.0374 7.27674C58.0512 9.22192 57.3372 11.1678 57.3372 11.1678C56.9768 10.5531 56.5213 10.0414 55.9093 9.63134C55.9093 9.63134 56.6709 7.3279 57.8473 5.63792C59.0168 3.89739 60.9561 2.51501 60.9561 2.51501C61.925 3.23142 62.741 4.10205 63.4551 5.02384C63.4551 5.02384 61.5172 5.89374 60.0375 7.27674H60.0374Z" fill="#92979D"/>
<path d="M56.5713 4.86417C55.6533 7.16761 55.4494 9.36934 55.4494 9.36934C54.8375 9.06236 54.0758 8.80643 53.4095 8.75527C53.4095 8.75527 53.3619 6.55353 53.8718 4.24947C54.4294 1.58715 55.0413 0.00012207 55.0413 0.00012207C56.2177 0.102451 57.3396 0.460706 58.4072 0.921913C58.4072 0.921913 57.1833 3.27652 56.5713 4.86417Z" fill="#92979D"/>
<path d="M59.8293 19.3088C57.3331 18.1312 54.8308 18.3871 54.8308 18.3871C55.7488 18.0289 56.5171 17.466 57.0747 16.7489C57.0747 16.7489 59.271 16.493 60.9519 16.8C63.5528 17.3629 64.6748 18.2335 64.6748 18.2335C64.1648 19.3087 63.5018 20.3329 62.6859 21.2035C62.6859 21.2035 61.666 20.1794 59.8293 19.3087V19.3088Z" fill="#92979D"/>
<path d="M61.7235 15.5651C59.2232 15.4627 57.4893 16.1286 57.4893 16.1286C57.7953 15.5651 57.9993 14.8998 58.0537 14.2339C58.0537 14.2339 60.0909 13.1074 61.9275 12.8516C64.4774 12.4934 65.957 13.0052 65.957 13.0052C65.906 14.1828 65.7531 15.3604 65.3961 16.4869C65.3961 16.4869 63.7635 15.6674 61.7236 15.5651H61.7235Z" fill="#92979D"/>
<path d="M44.7865 11.5196C46.8271 12.2872 48.2047 13.619 48.2047 13.619C48.2523 12.953 48.4087 12.2872 48.6127 11.7754C48.6127 11.7754 47.9463 10.4955 46.0105 9.16427C43.9195 7.73083 41.5226 7.32141 41.5226 7.32141C41.012 8.39597 40.655 9.52252 40.502 10.7001C40.502 10.7001 42.2366 10.5466 44.7865 11.5196Z" fill="#92979D"/>
<path d="M46.2643 7.27661C48.2506 9.2218 48.9645 11.1677 48.9645 11.1677C49.3249 10.553 49.7805 10.0413 50.3924 9.63122C50.3924 9.63122 49.6309 7.32778 48.4545 5.63779C47.285 3.89727 45.3456 2.51489 45.3456 2.51489C44.3767 3.2313 43.5607 4.10193 42.8467 5.02372C42.8467 5.02372 44.7846 5.89361 46.2642 7.27661H46.2643Z" fill="#92979D"/>
<path d="M49.7304 4.86405C50.6484 7.16748 50.8524 9.36922 50.8524 9.36922C51.4643 9.06223 52.2259 8.8063 52.8923 8.75514C52.8923 8.75514 52.9399 6.55341 52.43 4.24935C51.8724 1.58703 51.2605 0 51.2605 0C50.0841 0.102329 48.9621 0.460583 47.8945 0.921791C47.8945 0.921791 49.1185 3.27639 49.7304 4.86405Z" fill="#92979D"/>
<path d="M46.4724 19.3087C48.9687 18.1311 51.4709 18.3869 51.4709 18.3869C50.5529 18.0288 49.7846 17.4659 49.227 16.7487C49.227 16.7487 47.0307 16.4929 45.3499 16.7999C42.749 17.3628 41.627 18.2333 41.627 18.2333C42.137 19.3086 42.7999 20.3327 43.6159 21.2034C43.6159 21.2034 44.6358 20.1792 46.4724 19.3086V19.3087Z" fill="#92979D"/>
<path d="M44.5773 15.5649C47.0776 15.4626 48.8114 16.1285 48.8114 16.1285C48.5055 15.565 48.3014 14.8997 48.2471 14.2337C48.2471 14.2337 46.2099 13.1073 44.3732 12.8515C41.8234 12.4933 40.3438 13.0051 40.3438 13.0051C40.3948 14.1827 40.5477 15.3603 40.9047 16.4867C40.9047 16.4867 42.5372 15.6673 44.5772 15.5649H44.5773Z" fill="#92979D"/>
<path d="M53.1455 21.2534C56.7698 21.2534 58.3541 24.3762 58.3541 24.3762C59.476 23.8644 60.496 23.2497 61.4615 22.4303C61.4615 22.4303 58.4016 18.5903 53.1454 18.5903C47.9435 18.5903 44.8857 22.4303 44.8857 22.4303C45.8037 23.2497 46.8754 23.8644 47.998 24.3762C47.998 24.3762 49.5755 21.2533 53.1454 21.2534H53.1455Z" fill="#92979D"/>
<path d="M2.55058 29.2401V33.8483H4.43749C6.47805 33.8483 7.39605 33.0288 7.39605 31.5442C7.39605 30.0595 6.52907 29.2402 4.43749 29.2402L2.55058 29.2401ZM2.55058 37.8929H3.87657V38.9682H0V37.8929H1.32599V29.1889H0V28.1648H4.43749C6.88604 28.1648 8.56901 29.2401 8.56901 31.5441C8.56901 33.8482 6.88604 34.9229 4.43749 34.9229H2.55058V37.8929Z" fill="#92979D"/>
<path d="M15.71 34.6641C15.71 33.2306 14.6391 32.1041 13.1602 32.1041C11.6812 32.1041 10.6096 33.2305 10.6096 34.6641H15.71ZM16.6286 36.7635C16.2717 38.0946 15.047 39.1187 13.1601 39.1187C10.8644 39.1187 9.43652 37.6852 9.43652 35.0734C9.43652 32.6165 10.9154 31.0288 13.1601 31.0288C15.608 31.0288 17.1386 32.9236 16.8326 35.6882H10.6095C10.7115 36.8658 11.5281 38.0946 13.1601 38.0947C14.231 38.0947 14.996 37.6335 15.4039 36.7636L16.6286 36.7635Z" fill="#92979D"/>
<path d="M20.811 37.941H22.0356V38.9651H18.4141V37.941H19.638V32.2063H18.4141V31.2334H20.709V32.3087C21.168 31.4899 22.2906 30.7216 23.8206 31.2334V32.3598C21.9847 31.8481 20.811 32.821 20.811 34.6127V37.941Z" fill="#92979D"/>
<path d="M32.7931 37.9411H34.0171V38.9652H30.4465V37.9411H31.6711V34.6641C31.6711 32.8724 30.5994 32.1041 29.3754 32.1041C28.2025 32.1041 27.1826 32.9235 27.1826 34.7664V37.9411H28.4065V38.9652H24.8359V37.9411H26.0599V32.2064H24.8359V31.2335H27.1316V32.3087C27.5396 31.6947 28.4065 31.08 29.6305 31.08C31.3141 31.08 32.7931 32.0529 32.7931 34.6641V37.9411Z" fill="#92979D"/>
<path d="M38.8202 38.095C40.3501 38.095 41.4218 37.0197 41.4218 35.0738C41.4218 33.1286 40.3501 32.1045 38.8202 32.1045C37.3413 32.1045 36.2194 33.1286 36.2194 35.0738C36.2194 37.0197 37.3413 38.095 38.8203 38.095H38.8202ZM38.8202 31.0292C41.2178 31.0292 42.5948 32.7704 42.5948 35.0738C42.5948 37.429 41.2178 39.1191 38.8202 39.1191C36.4743 39.1191 35.0967 37.4291 35.0967 35.0738C35.0967 32.7703 36.4743 31.0292 38.8202 31.0292Z" fill="#92979D"/>
<path d="M45.0887 35.0731C45.0887 37.0701 46.2624 38.0943 47.691 38.0943C49.1189 38.0943 50.2885 37.0701 50.2885 35.0731C50.2885 33.1279 49.119 32.1038 47.691 32.1038C46.2623 32.1038 45.0887 33.1279 45.0887 35.0731ZM51.3628 37.9408H52.5868V38.9649H50.2885V37.8384C49.8329 38.5548 48.8129 39.1184 47.589 39.1184C45.3948 39.1184 43.9668 37.3772 43.9668 35.0731C43.9668 32.7696 45.3947 31.0285 47.589 31.0285C48.7586 31.0285 49.731 31.5409 50.2409 32.3084V29.1345H49.0169V28.1104H51.3628V37.9408Z" fill="#92979D"/>
<path d="M60.2863 29.24V33.2334H62.7818C64.4137 33.2334 65.0801 32.4651 65.0801 31.2363C65.0801 30.0593 64.4137 29.24 62.7818 29.24H60.2863ZM57.7363 28.1135H62.7818C64.8217 28.1135 66.3041 29.24 66.3041 31.2363C66.3041 32.9776 65.2297 34.0017 63.6522 34.3087L65.3862 37.8928H66.8141V38.9681H64.5702L62.3263 34.3598H60.2864V37.8928H61.4559V38.9681H57.7364V37.8928H59.0624V29.1888H57.7364L57.7363 28.1135Z" fill="#92979D"/>
<path d="M69.3135 29.5936H70.5918V28.1089H69.3135V29.5936ZM70.5918 37.9393H71.8157V38.9634H68.1914V37.9393H69.4154V32.2046H68.1914V31.2317H70.5918V37.9393Z" fill="#92979D"/>
<path d="M80.3373 36.1482C79.9293 37.8894 78.7529 39.1182 76.611 39.1182C74.2651 39.1182 72.8848 37.4282 72.8848 35.0729C72.8848 32.7695 74.2651 31.0283 76.611 31.0283C77.733 31.0283 78.753 31.5919 79.2153 32.3083V31.233H80.2829V34.0495H79.059C78.7054 32.9742 77.9846 32.1036 76.611 32.1036C75.1287 32.1036 74.0067 33.1277 74.0067 35.0729C74.0067 37.0188 75.1287 38.0941 76.611 38.0941C77.937 38.0941 78.8073 37.2746 79.161 36.1482H80.3373Z" fill="#92979D"/>
<path d="M82.8893 35.0729C82.8893 37.07 84.0112 38.0941 85.4391 38.0941C86.867 38.0941 88.0367 37.07 88.0367 35.0729C88.0367 33.1277 86.8671 32.1036 85.4391 32.1036C84.0112 32.1036 82.8893 33.1277 82.8893 35.0729ZM87.9891 31.233H90.335V32.2059H89.111V37.9406H90.335V38.9647H87.9891V37.8383C87.5268 38.6059 86.5067 39.1182 85.3372 39.1182C83.1409 39.1182 81.7129 37.3771 81.7129 35.0729C81.7129 32.7695 83.1408 31.0283 85.3371 31.0283C86.5066 31.0283 87.5266 31.5407 87.989 32.3083L87.9891 31.233Z" fill="#92979D"/>
</svg>
