<svg width="123" height="45" viewBox="0 0 123 45" fill="none" xmlns="http://www.w3.org/2000/svg">
<path d="M2.48825 4.70308C2.48825 2.02616 2.40378 1.55461 1.252 1.40841L0.351587 1.29721C0.155846 1.15719 0.155847 0.706233 0.380434 0.595038C1.95666 0.452956 3.89759 0.36853 6.65239 0.36853C8.39757 0.36853 10.0562 0.508553 11.3502 1.21279C12.6998 1.91702 13.6846 3.18135 13.6846 5.14786C13.6846 7.82478 11.5748 9.28061 10.1695 9.84276C10.0294 10.0116 10.1695 10.2917 10.3096 10.5161C12.5596 14.1423 14.0514 16.3909 15.9635 17.995C16.5101 18.4555 17.1891 18.7303 17.9023 18.7795C17.9369 18.7984 17.9662 18.8256 17.9876 18.8587C18.009 18.8918 18.0218 18.9296 18.0249 18.9689C18.0279 19.0081 18.0212 19.0475 18.0052 19.0835C17.9892 19.1195 17.9645 19.1509 17.9332 19.1749C17.5299 19.28 17.1136 19.3272 16.697 19.3149C14.3048 19.3149 12.8708 18.6128 10.8742 15.7732C10.1428 14.7333 8.98891 12.7935 8.11735 11.5292C7.70527 10.9115 7.24785 10.6294 6.12079 10.6294C4.85569 10.6294 4.798 10.6582 4.798 11.2471V14.7909C4.798 17.7417 4.85569 18.0856 6.48755 18.3039L7.07683 18.3862C7.24785 18.5283 7.1881 19.004 7.0212 19.0905C5.7561 19.0349 4.798 19.0061 3.673 19.0061C2.49238 19.0061 1.47864 19.0349 0.157907 19.0905C-0.0110481 19.0061 -0.0666798 18.5839 0.102276 18.3862L0.804882 18.3039C2.43674 18.098 2.49238 17.7417 2.49238 14.7909L2.48825 4.70308ZM4.79388 8.72257C4.79388 9.22913 4.79388 9.54624 4.87835 9.6492C4.96283 9.75216 5.38522 9.79128 6.81928 9.79128C7.83301 9.79128 8.90238 9.67803 9.71625 9.06028C10.4765 8.4693 11.1235 7.48501 11.1235 5.57411C11.1235 3.35432 9.74509 1.24985 6.62148 1.24985C4.87835 1.24985 4.79388 1.36311 4.79388 2.15177V8.72257Z" fill="#92979D"/>
<path d="M17.5879 9.93143C17.5879 4.30784 21.8077 0.00830078 27.6016 0.00830078C34.0981 0.00830078 37.3598 4.7032 37.3598 9.65138C37.3598 15.3264 33.0329 19.4613 27.6016 19.4613C21.3564 19.4613 17.5879 14.9908 17.5879 9.93143ZM34.5473 10.5204C34.5473 5.88311 32.4869 0.879328 27.1298 0.879328C24.206 0.879328 20.4086 2.87466 20.4086 9.02951C20.4086 13.1911 22.434 18.5882 27.9745 18.5882C31.3516 18.5882 34.5555 16.0575 34.5555 10.5204" fill="#92979D"/>
<path d="M43.713 2.38863C45.7734 0.786602 48.384 0 51.3098 0C52.9891 0.0311559 54.659 0.257821 56.2858 0.675407C56.5396 0.761271 56.8072 0.798984 57.0749 0.786602C57.1017 1.43318 57.2439 3.20406 57.4684 4.91935C57.3684 5.01639 57.2374 5.07514 57.0984 5.0853C56.9594 5.09547 56.8212 5.0564 56.7081 4.97495C56.2858 3.06404 55.0206 0.871027 50.9389 0.871027C46.6347 0.871027 42.9795 3.59737 42.9795 9.41657C42.9795 15.3181 46.7192 18.5799 51.3325 18.5799C54.9609 18.5799 56.5639 16.218 57.2109 14.5604C57.4169 14.4204 57.829 14.478 57.9423 14.6736C57.7363 16.1356 57.0152 17.9889 56.5907 18.5243C56.2554 18.5882 55.9265 18.6819 55.6079 18.8043C54.9897 19.0288 52.9643 19.453 51.1635 19.453C48.6313 19.453 46.2185 18.9464 44.1581 17.5688C41.9081 16.0224 40.1629 13.4649 40.1629 9.8387C40.1445 8.40816 40.455 6.9925 41.0705 5.70083C41.686 4.40916 42.5901 3.27598 43.713 2.38863Z" fill="#92979D"/>
<path d="M60.085 9.93143C60.085 4.30784 64.3047 0.00830078 70.0987 0.00830078C76.5973 0.00830078 79.8589 4.7032 79.8589 9.65138C79.8589 15.3264 75.532 19.4613 70.0987 19.4613C63.8556 19.4613 60.085 14.9908 60.085 9.93143ZM77.0464 10.5204C77.0464 5.88311 74.986 0.879328 69.6289 0.879328C66.7051 0.879328 62.9078 2.87466 62.9078 9.02951C62.9078 13.1911 64.9311 18.5882 70.4737 18.5882C73.8486 18.5882 77.0547 16.0575 77.0547 10.5204" fill="#92979D"/>
<path d="M86.2054 2.38863C88.2658 0.786602 90.8723 0 93.7981 0C95.478 0.031183 97.1486 0.257846 98.7761 0.675407C99.0299 0.761271 99.2976 0.798984 99.5652 0.786602C99.5941 1.43318 99.7321 3.20406 99.9588 4.91935C99.8588 5.01639 99.7278 5.07514 99.5888 5.0853C99.4497 5.09547 99.3116 5.0564 99.1985 4.97495C98.7761 3.06404 97.511 0.871027 93.4293 0.871027C89.1271 0.871027 85.4698 3.59737 85.4698 9.41657C85.4698 15.3181 89.2095 18.5799 93.8228 18.5799C97.4512 18.5799 99.0543 16.218 99.7012 14.5604C99.9073 14.4204 100.319 14.478 100.433 14.6736C100.227 16.1356 99.5034 17.9889 99.0831 18.5243C98.7471 18.5879 98.4174 18.6816 98.0982 18.8043C97.4801 19.0288 95.4526 19.453 93.6539 19.453C91.1236 19.453 88.7088 18.9464 86.6484 17.5688C84.3984 16.0224 82.6553 13.4649 82.6553 9.8387C82.6553 6.71906 84.0605 4.04832 86.1992 2.38863" fill="#92979D"/>
<path d="M102.571 9.93143C102.571 4.30784 106.789 0.00830078 112.583 0.00830078C119.082 0.00830078 122.343 4.7032 122.343 9.65138C122.343 15.3264 118.016 19.4613 112.583 19.4613C106.34 19.4613 102.571 14.9908 102.571 9.93143ZM119.531 10.5204C119.531 5.88311 117.47 0.879328 112.113 0.879328C109.189 0.879328 105.392 2.87466 105.392 9.02951C105.392 13.1911 107.415 18.5882 112.958 18.5882C116.333 18.5882 119.539 16.0575 119.539 10.5204" fill="#92979D"/>
<path fill-rule="evenodd" clip-rule="evenodd" d="M66.4028 34.0484C66.9838 33.9846 67.5855 33.9063 68.1047 33.5439C68.1164 33.3288 68.1509 33.1155 68.2077 32.9076C68.2675 32.7532 68.2881 32.5946 68.3458 32.4443C68.4179 32.2384 68.4714 32.0325 68.5374 31.8266C68.5374 31.7936 68.5374 31.7545 68.5621 31.7318C68.7063 31.5506 68.7084 31.32 68.799 31.1141C68.8709 30.9562 68.9535 30.8035 69.0463 30.657C69.1534 30.486 69.2688 30.3172 69.3904 30.1545C69.5597 29.9747 69.6945 29.7653 69.7881 29.5368C69.826 29.3594 69.8798 29.1857 69.9488 29.0179C70.0227 28.807 70.1391 28.6136 70.2908 28.4495C70.3835 28.3672 70.4206 28.2251 70.5174 28.1201C70.8492 27.7535 71.1603 27.3664 71.4838 26.9916C71.6363 26.8187 71.8052 26.6581 71.9556 26.4871C72.1472 26.2812 72.3244 26.0444 72.5161 25.8323C72.6131 25.7079 72.7318 25.6019 72.8663 25.5193C73.1391 25.3607 73.3976 25.1788 73.639 24.9757C73.7647 24.8859 73.9038 24.8164 74.0511 24.7698C74.1694 24.7132 74.2779 24.6381 74.3725 24.5474C74.445 24.5577 74.5185 24.5577 74.5909 24.5474C74.933 24.4321 75.2667 24.29 75.6397 24.3415C75.8206 24.3502 76.0001 24.3066 76.1568 24.2159C76.2975 24.1443 76.4495 24.0977 76.606 24.0779C76.913 24.0573 77.2242 24.0779 77.5353 24.0779C77.7262 24.0894 77.9127 24.1399 78.0834 24.2262C78.1905 24.2735 78.3059 24.3003 78.4089 24.3518C78.5119 24.4033 78.6149 24.4506 78.6376 24.5248C78.6911 24.6283 78.7208 24.7426 78.7243 24.8591C78.7279 24.9756 78.7053 25.0915 78.6582 25.1981C78.5993 25.2957 78.5766 25.4109 78.5943 25.5235C78.5891 25.6704 78.5563 25.815 78.4975 25.9497C78.4809 25.9909 78.4725 26.035 78.4728 26.0794C78.4911 26.2079 78.4823 26.3388 78.4468 26.4637C78.4113 26.5886 78.35 26.7046 78.2667 26.8043C78.1469 26.9511 78.0795 27.1337 78.0751 27.3232C78.0519 27.4767 77.9838 27.62 77.8794 27.735C77.7842 27.883 77.6989 28.0371 77.6239 28.1963C77.5518 28.3276 77.4713 28.4542 77.3828 28.5751C77.3581 28.6081 77.2798 28.5998 77.2489 28.6307C77.1417 28.744 77.0428 28.8675 76.9439 28.9849C76.9068 29.0282 76.8759 29.1105 76.8347 29.1167C76.6184 29.1435 76.5525 29.3453 76.4226 29.4647C76.3287 29.5731 76.2497 29.6936 76.1878 29.823C76.1618 29.8671 76.1314 29.9085 76.0971 29.9465C75.9446 30.0886 75.8025 30.2369 75.6623 30.3872C75.5266 30.5073 75.3796 30.6142 75.2235 30.7064C75.1987 30.7229 75.1369 30.7229 75.1349 30.7373C75.0875 31.0091 74.7722 31.0585 74.6795 31.3015C74.6424 31.3962 74.4961 31.4415 74.4302 31.53C74.2892 31.7044 74.1053 31.8392 73.8966 31.9213C73.6479 32.0611 73.4096 32.2187 73.1836 32.3928C73.144 32.4206 73.1027 32.4461 73.06 32.469C72.9035 32.5356 72.7599 32.629 72.6356 32.745C72.5213 32.8629 72.3685 32.936 72.2049 32.9509C72.1473 32.9509 72.0937 33.0147 72.036 33.0332C71.7045 33.1285 71.3892 33.2728 71.1005 33.4615C70.7874 33.686 70.3938 33.7539 70.1095 34.0299C70.0249 34.0959 69.9548 34.1786 69.9034 34.2729C69.8128 34.4952 69.7242 34.7176 69.6294 34.938C69.5137 35.2759 69.3647 35.6015 69.1843 35.9099C69.1074 36.017 69.0689 36.1468 69.0751 36.2785C69.0873 36.3939 69.0565 36.5097 68.9886 36.6038C68.9344 36.7061 68.9183 36.8244 68.9433 36.9374C68.9517 36.9729 68.952 37.0099 68.9441 37.0456C68.9363 37.0812 68.9205 37.1146 68.8979 37.1433C68.8521 37.1937 68.8204 37.2553 68.8063 37.3219C68.7922 37.3885 68.7961 37.4576 68.8176 37.5222C68.8526 37.6252 68.7723 37.7755 68.7187 37.8949C68.6878 37.9691 68.6136 38.0205 68.6672 38.1153C68.6721 38.1347 68.6721 38.1551 68.667 38.1746C68.662 38.194 68.6521 38.2118 68.6383 38.2265C68.5905 38.4382 68.5561 38.6528 68.5353 38.8689C68.5574 39.0542 68.5245 39.2418 68.4405 39.4084C68.4508 39.3714 68.4838 39.9026 68.4405 39.8635C68.4859 39.9129 68.455 40.0365 68.4508 40.125C68.4405 40.2547 68.4137 40.3865 68.4117 40.5163C68.4096 40.646 68.5312 40.8313 68.3725 40.9096C68.4055 41.029 68.4076 41.099 68.4405 41.2205C68.7063 41.2205 68.7887 41.0146 68.9989 40.9013C69.1331 40.8105 69.276 40.7333 69.4254 40.6707C69.6428 40.5657 69.8337 40.4129 69.9838 40.2239C70.1732 40.0144 70.3977 39.8395 70.6473 39.707C70.7987 39.6239 70.9446 39.531 71.0841 39.429C71.2674 39.3199 71.4652 39.2231 71.6486 39.116C71.7705 39.0469 71.8845 38.9648 71.9886 38.871C72.2626 38.5971 72.5264 38.3068 72.7963 38.0267C72.8423 37.9833 72.9002 37.9546 72.9626 37.9444C73.025 37.9341 73.0891 37.9427 73.1466 37.9691C73.2352 38.0288 73.2599 38.14 73.1981 38.2821C73.0681 38.6491 72.9061 39.0039 72.7139 39.3425C72.6191 39.4949 72.6047 39.6967 72.5078 39.8491C72.2338 40.2959 71.9433 40.7325 71.6466 41.1649C71.5683 41.2782 71.4405 41.3585 71.356 41.4676C71.2244 41.6168 71.1071 41.7782 71.0058 41.9494C70.8884 42.141 70.7292 42.3036 70.5401 42.4251C70.3093 42.5889 70.1156 42.7994 69.9714 43.0429C69.9464 43.0996 69.9104 43.1508 69.8655 43.1936C69.8206 43.2364 69.7677 43.2698 69.7098 43.292C69.6688 43.3026 69.633 43.3274 69.6088 43.362C69.5346 43.5885 69.31 43.5679 69.1493 43.64C68.9695 43.6977 68.7846 43.7383 68.5971 43.7615L68.3561 43.8109L68.1644 43.8501C68.0982 43.7672 68.0236 43.6913 67.9419 43.6235C67.8306 43.5494 67.8306 43.4176 67.7709 43.3291C67.6275 43.1241 67.4691 42.93 67.297 42.7484C67.2347 42.6849 67.1875 42.6082 67.1589 42.5239C67.0234 42.1059 66.9498 41.6702 66.9405 41.2308C66.9405 40.9096 66.9241 40.5883 66.9405 40.2692C66.957 39.95 67.0291 39.6288 67.0745 39.3075C67.1322 38.873 67.1898 38.4406 67.2496 38.0061C67.2657 37.8495 67.2726 37.692 67.2702 37.5346C67.29 37.244 67.3292 36.9551 67.3877 36.6697C67.398 36.6059 67.4165 36.54 67.4247 36.4762C67.4556 36.2291 67.4845 35.982 67.5154 35.7369C67.5154 35.7102 67.5154 35.6793 67.5381 35.6649C67.7111 35.5063 67.639 35.2798 67.7132 35.0862C67.5587 35.0245 67.4762 35.1624 67.3629 35.183C67.3073 35.183 67.264 35.251 67.2084 35.2571C66.8911 35.3066 66.6706 35.5331 66.4275 35.7081C66.3307 35.7676 66.2511 35.8513 66.1967 35.9511C66.1246 36.1055 65.9907 36.2682 66.1329 36.4535C66.1443 36.4834 66.1443 36.5163 66.1329 36.5462C66.0916 36.6944 66.0916 36.8654 66.0422 36.9971C65.9701 37.2031 66.0113 37.4234 65.9186 37.584C65.8258 37.7446 65.8732 37.9444 65.8197 38.105C65.7475 38.3109 65.8403 38.5642 65.661 38.7536C65.634 38.7893 65.6157 38.8307 65.6074 38.8747C65.5992 38.9186 65.6013 38.9639 65.6136 39.0069C65.6437 39.0581 65.6551 39.1181 65.6457 39.1768C65.6363 39.2354 65.6067 39.2889 65.5621 39.3281C65.4179 39.4929 65.3952 39.707 65.2901 39.8862C65.2695 39.9212 65.2407 39.952 65.2221 39.9871C65.194 40.0524 65.1803 40.123 65.1821 40.1941C65.1839 40.2652 65.2011 40.3351 65.2324 40.3989C65.1541 40.4854 65.0449 40.5657 65.0903 40.7139C65.0918 40.7221 65.0917 40.7305 65.09 40.7387C65.0882 40.7468 65.0848 40.7545 65.08 40.7613C64.8636 40.9487 64.8966 41.2493 64.7709 41.4676C64.6452 41.6859 64.5752 41.9412 64.3444 42.0853C64.301 42.11 64.2681 42.1495 64.2517 42.1965C64.2063 42.524 63.9673 42.7196 63.7592 42.942C63.6933 43.012 63.5717 43.0655 63.6026 43.2055C63.6026 43.2344 63.547 43.2838 63.5099 43.3147C63.3388 43.4425 63.185 43.592 63.0525 43.7595C62.998 43.8379 62.9209 43.8978 62.8314 43.9313C62.742 43.9647 62.6444 43.9702 62.5518 43.9468C62.4529 43.9304 62.3458 43.8851 62.2489 43.9901C62.2201 44.021 62.1397 44.0168 62.0882 44.0086C61.9876 43.9797 61.885 43.9583 61.7812 43.9448C61.6696 43.9511 61.5583 43.9271 61.4592 43.8752C61.3602 43.8234 61.2771 43.7457 61.2187 43.6503C61.05 43.431 60.8691 43.2213 60.6768 43.0223C60.5797 42.879 60.5215 42.713 60.5079 42.5404C60.4234 42.1965 60.4584 41.8403 60.4069 41.4964C60.4074 41.2895 60.4246 41.0829 60.4584 40.8787C60.4584 40.7737 60.4584 40.6728 60.4584 40.5142C60.3842 40.5822 60.3472 40.6027 60.3307 40.6357C60.2476 40.7891 60.1298 40.921 59.9866 41.0208C59.8654 41.1206 59.7706 41.2485 59.7105 41.3935C59.6444 41.5191 59.5397 41.6202 59.4117 41.6817C59.3427 41.7173 59.2821 41.767 59.2338 41.8277C59.1855 41.8884 59.1506 41.9587 59.1315 42.0339C59.1123 42.1146 59.0766 42.1905 59.0266 42.2568C58.9766 42.3231 58.9134 42.3783 58.841 42.4189C58.7688 42.4746 58.7001 42.5344 58.6349 42.5981L58.2125 42.9543L57.8602 43.2282C57.8396 43.2426 57.8108 43.255 57.8005 43.2735C57.7494 43.3774 57.6727 43.4666 57.5775 43.5325C57.4823 43.5985 57.3718 43.639 57.2565 43.6503C57.1123 43.6791 56.999 43.8562 56.8444 43.986C56.7505 43.9901 56.6592 44.0186 56.5797 44.0688C56.5002 44.1191 56.4352 44.1891 56.3911 44.2722C56.3577 44.325 56.3127 44.3694 56.2595 44.4023C56.2063 44.4351 56.1463 44.4554 56.0841 44.4616C55.8533 44.4843 55.6267 44.544 55.4042 44.5769C55.1817 44.6099 54.885 44.6264 54.7242 44.3484C54.6501 44.2207 54.5594 44.1013 54.4729 43.9798C54.4376 43.9245 54.3946 43.8746 54.3451 43.8315C54.1989 43.7318 54.0738 43.6043 53.977 43.4562C53.8801 43.3082 53.8134 43.1426 53.7806 42.9687C53.7661 42.8925 53.6878 42.8308 53.6652 42.7525C53.5725 42.4375 53.4468 42.1348 53.5045 41.7847C53.5282 41.5212 53.5364 41.2564 53.5292 40.9919C53.5292 40.8087 53.5539 40.6254 53.5601 40.4442C53.5725 40.1518 53.5745 39.8594 53.5889 39.569C53.5992 39.3631 53.6137 39.1572 53.6343 38.9636C53.6755 38.5518 53.6961 38.1256 53.7744 37.7137C53.8609 37.2422 54.001 36.7768 54.1164 36.3094C54.1329 36.2414 54.1473 36.1694 54.1679 36.0767C54.1215 36.0807 54.0754 36.0876 54.0299 36.0973C53.8462 36.1771 53.6413 36.1945 53.4468 36.1467C53.4151 36.1375 53.3815 36.1375 53.3499 36.1467C53.2285 36.1913 53.0993 36.2109 52.9701 36.2046C52.8409 36.1982 52.7143 36.1659 52.5979 36.1096C52.5855 36.1096 52.567 36.1096 52.5237 36.124C52.499 36.3073 52.4598 36.5009 52.4495 36.6944C52.4392 36.888 52.4495 37.131 52.4495 37.3472C52.4623 37.5448 52.4225 37.7423 52.3341 37.9196C52.2462 38.1509 52.188 38.3924 52.1611 38.6383C52.0828 38.9719 52.0889 39.3384 51.8128 39.602C51.784 39.8903 51.5161 40.0756 51.4873 40.368C51.4778 40.4729 51.4284 40.5702 51.3493 40.6398C51.1762 40.751 51.1782 40.9858 50.9969 41.0846C50.9536 41.1093 50.931 41.1752 50.9063 41.2246C50.8815 41.274 50.8506 41.3482 50.8218 41.4079C50.7364 41.6218 50.6338 41.8284 50.5148 42.0256C50.4159 42.1677 50.3438 42.351 50.1542 42.421C50.0532 42.456 50.0161 42.5445 49.9626 42.6269C49.8486 42.851 49.6951 43.0526 49.5093 43.222C49.4482 43.2777 49.391 43.3375 49.3383 43.4012C49.0754 43.6516 48.7641 43.8457 48.4234 43.9715C48.3123 44.0235 48.1932 44.0562 48.0711 44.0683C47.6899 44.0683 47.3108 44.161 46.9296 44.0807C46.8749 44.07 46.8243 44.0443 46.7833 44.0065C46.6144 43.85 46.4475 43.6894 46.2929 43.5185C46.2113 43.4373 46.1518 43.3367 46.1199 43.2261C46.0925 43.1228 46.026 43.0342 45.9344 42.979C45.8232 42.8967 45.7078 42.8205 45.5986 42.736C45.5599 42.7042 45.5289 42.6641 45.5079 42.6187C45.4502 42.4601 45.4028 42.2954 45.3431 42.1348C45.3101 42.0503 45.2565 41.9762 45.2153 41.8938C45.05 41.5969 44.9974 41.2504 45.067 40.9178L45.1535 40.5286C45.1638 40.4915 45.17 40.4524 45.1844 40.3906C44.9622 40.4401 44.7645 40.5662 44.6261 40.7469C44.6261 41.0558 44.3561 41.0413 44.1604 41.1361C44.1189 41.2664 44.0417 41.3826 43.9375 41.4714C43.8334 41.5602 43.7065 41.618 43.5711 41.6385C43.5557 41.7904 43.5018 41.9359 43.4146 42.0613C43.3273 42.1866 43.2096 42.2877 43.0725 42.3551C42.8129 42.4869 42.6604 42.7422 42.3802 42.8266C42.2916 42.9996 42.0835 43.049 41.9887 43.2529C41.9288 43.36 41.8373 43.4459 41.7266 43.499C41.616 43.5521 41.4916 43.5697 41.3706 43.5494C41.3207 43.548 41.2721 43.5331 41.23 43.5062C41.1879 43.4794 41.1539 43.4417 41.1316 43.397C41.01 43.152 40.8596 42.9234 40.738 42.6804C40.6968 42.565 40.6644 42.4466 40.6412 42.3263C40.602 42.2048 40.5464 42.0915 40.5031 41.97C40.4704 41.8779 40.4469 41.7827 40.4331 41.6859C40.3695 41.1143 40.373 40.5372 40.4434 39.9665C40.4743 39.6967 40.4578 39.4187 40.4784 39.1428C40.5155 38.632 40.5011 38.1187 40.4351 37.6108C40.4326 37.5604 40.4236 37.5106 40.4084 37.4625C40.4032 37.4459 40.3936 37.431 40.3806 37.4194C40.3676 37.4078 40.3518 37.3998 40.3347 37.3965C40.3176 37.3931 40.2999 37.3944 40.2835 37.4002C40.2671 37.406 40.2526 37.4162 40.2415 37.4296C40.1467 37.5428 40.0704 37.6705 39.9571 37.8414C39.7686 37.8967 39.603 38.0116 39.4853 38.1688C39.4647 38.2038 39.4214 38.2326 39.4152 38.2697C39.3487 38.4905 39.2147 38.6849 39.032 38.8257C38.8349 39.0062 38.6765 39.2247 38.5663 39.4681C38.4824 39.6139 38.3625 39.7359 38.2181 39.8223C38.1275 39.8903 37.9997 39.9067 37.9729 40.0468C37.9729 40.0612 37.9606 40.088 37.9523 40.09C37.7731 40.1271 37.6948 40.2753 37.5938 40.4009L37.4599 40.5636C37.4293 40.599 37.3955 40.6314 37.3589 40.6604C37.3342 40.681 37.2806 40.6789 37.2724 40.6995C37.1323 41.0516 36.7449 41.1814 36.5615 41.4923C36.4564 41.6715 36.3246 41.8362 36.238 42.0195C36.1387 42.2251 36.0118 42.4163 35.861 42.5878L35.8424 42.6084C35.7466 42.6437 35.6636 42.707 35.6041 42.7899C35.5446 42.8729 35.5114 42.9717 35.5086 43.0737C35.5086 43.1788 35.3603 43.2797 35.2655 43.3764C35.1027 43.5371 35.0595 43.7636 34.9173 43.9365C34.8473 44.0271 34.7731 44.1157 34.6845 44.2289C34.6103 44.1507 34.5238 44.0972 34.5238 44.0457C34.5238 43.8624 34.3837 43.7718 34.3033 43.6338C34.2229 43.4959 34.0973 43.325 33.9942 43.1726C33.9839 43.1561 33.9654 43.1417 33.9674 43.1314C33.9942 42.9008 33.8191 42.8164 33.6357 42.7052C33.6357 42.4992 33.611 42.2769 33.6069 42.0565C33.6069 42.0092 33.6069 41.9371 33.646 41.9206C33.8665 41.7909 33.7861 41.552 33.8521 41.3688C33.8912 41.2617 33.8912 41.1402 33.9365 41.0393C33.9918 40.9254 34.0063 40.7961 33.9777 40.6728C33.9605 40.6185 33.9605 40.5602 33.9777 40.506C34.1838 40.1765 34.1529 39.7914 34.2683 39.4434C34.3153 39.3104 34.3457 39.1721 34.3589 39.0316C34.2456 39.0913 34.2456 39.0851 34.1426 39.1407C34.1199 39.0954 33.9036 39.3178 33.8685 39.2519C33.7415 39.3075 33.6201 39.3751 33.5059 39.4537C33.2751 39.6411 32.962 39.6988 32.7786 39.952C32.7686 39.9657 32.7551 39.9764 32.7394 39.9829C32.4318 40.1703 32.1475 40.3936 31.8926 40.648C31.736 40.7778 31.5464 40.8663 31.3775 40.9816C31.1714 41.1217 30.9654 41.2679 30.7594 41.4079C30.5039 41.587 30.2504 41.7682 29.9929 41.9453C29.9002 42.0092 29.7662 42.0442 29.7106 42.1306C29.4881 42.4663 29.1337 42.6125 28.804 42.7958C28.7573 42.8144 28.7131 42.8386 28.6721 42.8678C28.4893 43.0053 28.2899 43.1195 28.0787 43.2076C27.8496 43.3281 27.6298 43.4658 27.4215 43.6194C27.3411 43.6812 27.2504 43.7265 27.1248 43.8048C27.1062 43.9201 26.9949 43.9674 26.8384 44.0251C26.6323 44.1054 26.3768 44.1157 26.2079 44.301C26.175 44.3263 26.1337 44.3381 26.0925 44.334C25.8127 44.3436 25.5355 44.3907 25.2683 44.474C25.2267 44.4804 25.1847 44.4838 25.1426 44.4843C25.0316 44.4872 24.9243 44.5246 24.8356 44.5914C24.6742 44.6856 24.4887 44.7307 24.302 44.7211C23.9643 44.6931 23.6243 44.7266 23.2985 44.8199C23.2771 44.8315 23.2527 44.8365 23.2285 44.8343C22.9194 44.8199 22.6103 44.8076 22.3075 44.7849C22.2009 44.7687 22.0956 44.7453 21.9922 44.7149C21.8683 44.7001 21.7462 44.6732 21.6275 44.6346C21.4029 44.5358 21.1825 44.4184 20.9641 44.301C20.9002 44.2681 20.8466 44.2104 20.7848 44.1754C20.4235 43.9961 20.1405 43.6906 19.9895 43.3167C19.9055 43.1474 19.8062 42.9861 19.6928 42.8349C19.5576 42.6659 19.4745 42.4613 19.4538 42.246C19.4379 42.1389 19.4103 42.0339 19.3713 41.933C19.3446 41.8197 19.324 41.7065 19.3054 41.5911C19.2642 41.309 19.2374 41.0228 19.1797 40.7428C19.1571 40.6336 19.1529 40.5513 19.2148 40.5018C19.1818 40.3515 19.1509 40.2259 19.1323 40.09C19.1081 39.954 19.095 39.8163 19.0932 39.6782C19.1078 39.5653 19.1313 39.4538 19.1632 39.3446C19.1739 39.298 19.1795 39.2503 19.1797 39.2025C19.165 39.0885 19.1616 38.9733 19.1694 38.8586C19.1914 38.7442 19.1785 38.6258 19.1323 38.5189C19.118 38.4656 19.118 38.4095 19.1323 38.3562C19.2167 38.0628 19.242 37.7555 19.2065 37.4522C19.1955 37.2961 19.208 37.1392 19.2436 36.9868C19.2437 36.9368 19.262 36.8885 19.2951 36.8509C19.4538 36.7336 19.4393 36.5606 19.4538 36.3959C19.4782 36.0727 19.565 35.7574 19.7093 35.4672C19.8499 35.1662 19.9717 34.8567 20.074 34.5406C20.0957 34.4519 20.0957 34.3594 20.074 34.2708C20.0593 34.2174 20.0256 34.1713 19.9792 34.1411C19.8679 34.0731 19.7381 34.0299 19.6289 33.9557C19.4921 33.8507 19.3607 33.7386 19.2354 33.6201C19.0284 33.4106 18.8052 33.2178 18.5678 33.0435C18.4109 32.9354 18.264 32.8134 18.1289 32.6791C17.9641 32.5287 17.7951 32.3784 17.6426 32.2178C17.3171 31.8636 16.9936 31.5095 16.6825 31.1429C16.4435 30.8588 16.2251 30.554 15.9984 30.2595C15.8892 30.1175 15.7718 29.9816 15.6749 29.8312C15.4309 29.4344 15.0824 29.1124 14.6674 28.9005C14.4793 28.8431 14.2949 28.7744 14.1152 28.6946C14.076 28.6657 13.971 28.709 13.9091 28.744C13.7653 28.8509 13.5978 28.9216 13.4208 28.9499C13.3329 28.9578 13.2492 28.991 13.1797 29.0455C13.1102 29.0999 13.058 29.1733 13.0293 29.2567C12.9689 29.386 12.8794 29.4994 12.7677 29.5882C12.7201 29.6279 12.682 29.6777 12.6563 29.734C12.6306 29.7903 12.618 29.8517 12.6193 29.9136C12.6049 30.1772 12.574 30.4428 12.5513 30.7023C12.4236 30.7393 12.3144 30.6014 12.2258 30.727C12.2184 30.7306 12.2103 30.7325 12.2021 30.7325C12.1939 30.7325 12.1858 30.7306 12.1784 30.727C11.9414 30.6528 11.7024 30.5808 11.4675 30.5005C11.4366 30.4902 11.4098 30.4407 11.3934 30.4057C11.3706 30.3563 11.3363 30.313 11.2932 30.2797C11.2502 30.2463 11.1997 30.2239 11.1461 30.2142C11.0348 30.1895 10.9895 30.103 10.9195 30.0227C10.7715 29.8503 10.6878 29.6321 10.6825 29.405C10.6681 29.2629 10.6825 29.1991 10.7793 29.1167C10.9654 28.9892 11.1158 28.8162 11.2162 28.6143C11.3192 28.4083 11.4552 28.2024 11.5479 27.9965C11.6266 27.8454 11.7545 27.7255 11.9105 27.6568C12.1598 27.525 12.4009 27.3582 12.7162 27.3664C12.8655 27.3539 13.0104 27.3089 13.1406 27.2346C13.3154 27.1559 13.5053 27.1166 13.6969 27.1193C13.9905 27.1263 14.28 27.1892 14.5499 27.3046C14.785 27.3908 15.026 27.4596 15.2711 27.5105C15.8438 27.6119 16.3744 27.8781 16.7979 28.2766C16.8246 28.3082 16.8585 28.3329 16.8968 28.3486C17.2203 28.3795 17.3768 28.6349 17.5788 28.8367C17.7234 28.9909 17.8844 29.1289 18.0589 29.2485C18.2244 29.3956 18.3637 29.5696 18.4709 29.7633C18.4983 29.8111 18.5286 29.8572 18.5616 29.9012C18.62 29.9774 18.6614 30.0652 18.6832 30.1586C18.7382 30.3437 18.8285 30.5164 18.949 30.6673C19.1658 30.9399 19.4188 31.1817 19.701 31.3859C19.8844 31.5095 20.0183 31.6989 20.1893 31.8389C20.5376 32.1231 20.894 32.3928 21.2711 32.6852C21.4524 32.4526 21.609 32.2281 21.7903 32.0284C22.0272 31.7689 22.1591 31.4477 22.3652 31.1738C22.6042 30.8588 22.8576 30.5561 23.0966 30.2389C23.2038 30.101 23.2862 29.9507 23.3871 29.8086C23.4657 29.6818 23.5575 29.5637 23.6612 29.4565C24.0114 29.1558 24.2896 28.7831 24.6502 28.4928C24.8348 28.3371 24.9915 28.1512 25.1138 27.943C25.2746 27.7275 25.4584 27.53 25.6618 27.3541C25.736 27.2799 25.7772 27.1749 25.8452 27.0946C26.0101 26.8887 26.1893 26.7095 26.3521 26.5098C26.4424 26.3844 26.5468 26.2697 26.6632 26.168C26.8883 25.9779 27.1449 25.8288 27.4215 25.7273C27.6005 25.6534 27.7746 25.5681 27.9427 25.472C28.1488 25.3752 28.3754 25.2784 28.6021 25.2002C28.7068 25.1763 28.8147 25.17 28.9214 25.1816C28.9998 25.1957 29.0804 25.1915 29.1569 25.1694C29.2333 25.1472 29.3037 25.1077 29.3624 25.054C29.3982 25.0211 29.4438 25.0008 29.4922 24.9963C29.8569 24.9757 30.2216 24.9634 30.5883 24.9428C30.6934 24.9428 30.7944 24.9201 30.9056 24.9098C30.9464 24.9014 30.9885 24.9014 31.0293 24.9098C31.3342 25.0292 31.6639 25.0848 31.8699 25.3999C32.0144 25.5662 32.1799 25.713 32.3624 25.8364C32.346 25.9914 32.3558 26.148 32.3912 26.2998C32.4262 26.5057 32.5437 26.7239 32.4489 26.9546C32.418 27.0287 32.4633 27.1317 32.4675 27.2202C32.4675 27.2696 32.4839 27.3417 32.4675 27.3623C32.3892 27.4282 32.4262 27.4858 32.4365 27.5682C32.4378 27.6244 32.4188 27.6792 32.383 27.7226C32.2279 27.937 32.1319 28.1884 32.1048 28.4516C32.0558 28.6542 31.9967 28.8542 31.9276 29.0508C31.8802 29.1929 31.8267 29.3329 31.7772 29.475C31.7669 29.5079 31.7772 29.5574 31.7525 29.5697C31.5567 29.685 31.5835 29.9198 31.4702 30.0783C31.4437 30.1189 31.4118 30.1556 31.3754 30.1875C31.2868 30.2719 31.1941 30.3543 31.1034 30.4366C31.0602 30.4737 31.0107 30.5066 30.9716 30.5458C30.9324 30.5849 30.8541 30.6384 30.85 30.6878C30.8458 30.8166 30.7994 30.9403 30.7178 31.0401C30.6363 31.1398 30.5242 31.2099 30.3988 31.2397C30.3817 31.2503 30.3658 31.2627 30.3514 31.2768C30.352 31.3551 30.3286 31.4318 30.2844 31.4966C30.2403 31.5614 30.1774 31.6111 30.1041 31.6392C30.083 31.6519 30.0647 31.6689 30.0505 31.6892C30.0363 31.7094 30.0265 31.7323 30.0217 31.7566C29.9908 31.9625 29.8322 32.0407 29.6859 32.1375C29.5911 32.2013 29.4963 32.2693 29.4015 32.3311C29.3627 32.3595 29.3205 32.383 29.2758 32.4011C29.0966 32.467 28.9173 32.5184 28.8329 32.7244C28.8081 32.7861 28.7051 32.8191 28.6268 32.8541C28.3507 32.99 28.0787 33.128 27.8026 33.2453C27.7346 33.2742 27.6357 33.2268 27.5595 33.2186L27.2443 33.4245C27.2175 33.4451 27.1804 33.4595 27.166 33.4842C26.9867 33.7745 26.6838 33.8425 26.3912 33.9352C26.3275 33.949 26.2658 33.9712 26.2079 34.001C26.1494 34.0587 26.0777 34.1012 25.9991 34.1249C25.9205 34.1485 25.8372 34.1527 25.7566 34.137C25.7422 34.2852 25.6412 34.3429 25.5053 34.4149C25.2291 34.5509 24.936 34.6492 24.6337 34.7073C24.6337 34.7073 24.6151 34.7073 24.609 34.7073C24.4029 34.94 24.0794 34.868 23.8363 35.0059C23.7622 35.0423 23.6793 35.0565 23.5973 35.0471C23.5019 35.0425 23.4069 35.0624 23.3214 35.1049C23.2359 35.1475 23.1628 35.2112 23.109 35.2901C23.0327 35.3745 22.9462 35.4507 22.8658 35.531C22.8411 35.5537 22.802 35.5681 22.7917 35.5969C22.706 35.7784 22.5683 35.9303 22.3961 36.0335C22.3569 36.0643 22.3549 36.1364 22.326 36.1858C22.2539 36.3156 22.1756 36.4432 22.1014 36.575C22.0746 36.6224 22.0293 36.6759 22.0334 36.7274C22.0334 37.0589 21.8521 37.3019 21.6687 37.5511C21.5814 37.6711 21.5319 37.8145 21.5266 37.9629C21.4787 38.1474 21.4096 38.3256 21.3205 38.4942C21.3564 38.547 21.3756 38.6094 21.3756 38.6733C21.3756 38.7372 21.3564 38.7996 21.3205 38.8524C21.3097 38.865 21.3038 38.8811 21.304 38.8977C21.3782 39.1428 21.2443 39.3631 21.2381 39.5999C21.2179 39.9216 21.18 40.2419 21.1248 40.5595C21.1033 40.6249 21.0977 40.6945 21.1085 40.7626C21.1192 40.8306 21.146 40.8951 21.1866 40.9507C21.2151 41.0009 21.23 41.0577 21.2299 41.1155C21.2525 41.3008 21.269 41.4882 21.2917 41.6735C21.2917 41.7126 21.2917 41.7662 21.3267 41.7868C21.3637 41.8153 21.3879 41.8573 21.3941 41.9035C21.4002 41.9498 21.3879 41.9967 21.3597 42.0339C21.3357 42.0782 21.3223 42.1275 21.3205 42.1778C21.3187 42.2282 21.3286 42.2783 21.3494 42.3242C21.3723 42.3686 21.3862 42.4172 21.3901 42.4671C21.394 42.517 21.3878 42.5671 21.372 42.6146C21.3692 42.6218 21.3692 42.6299 21.372 42.6372C21.4213 42.8299 21.4853 43.0186 21.5636 43.2014C21.677 43.4279 21.9242 43.4176 22.1344 43.4465C22.2714 43.4588 22.409 43.4623 22.5465 43.4568C22.837 43.4568 23.1275 43.4217 23.4201 43.4341C23.8253 43.4208 24.2276 43.3614 24.6193 43.257C24.7315 43.2251 24.841 43.1844 24.9469 43.1355C25.2987 43.0051 25.633 42.8315 25.9421 42.6187C26.1956 42.4293 26.4726 42.2736 26.7662 42.1554C27.0403 42.0586 27.2257 41.8053 27.5265 41.7744C27.5658 41.7611 27.6017 41.7393 27.6316 41.7106C27.9345 41.4902 28.2291 41.2617 28.5403 41.0537C28.8143 40.8704 29.1069 40.7181 29.3912 40.5471C29.6364 40.3968 29.8775 40.2403 30.1227 40.0879C30.201 40.0406 30.2834 39.9994 30.3638 39.9603C30.5814 39.8191 30.7838 39.6555 30.9675 39.4723C31.1158 39.3569 31.2848 39.2663 31.4249 39.1387C31.684 38.8939 31.9639 38.672 32.2614 38.4756C32.5396 38.2985 32.7683 38.0514 33.0526 37.8949C33.3711 37.6874 33.6636 37.4427 33.9242 37.166C34.0231 37.0795 34.1302 36.9971 34.2291 36.9168C34.4637 36.7543 34.6887 36.5783 34.9029 36.3897C34.9991 36.2556 35.0729 36.1068 35.1213 35.949C35.1955 35.7946 35.1955 35.599 35.3479 35.5228C35.3706 35.0718 35.3891 34.6353 35.4221 34.2008C35.4407 33.9702 35.4819 33.7416 35.519 33.513C35.5356 33.443 35.5569 33.3742 35.5828 33.3071C35.655 33.0381 35.6965 32.7618 35.7064 32.4834C35.71 32.434 35.7233 32.3857 35.7456 32.3414C35.8532 32.079 35.9313 31.8055 35.9784 31.5259C35.9842 31.484 35.996 31.443 36.0135 31.4044C36.2195 31.04 36.2731 30.6281 36.3699 30.2266C36.4853 29.7365 36.6254 29.2505 36.7593 28.7625C36.8397 28.4742 36.9365 28.1901 37.0189 27.9018C37.0647 27.7369 37.1341 27.5794 37.225 27.4344C37.31 27.2733 37.379 27.1043 37.431 26.9299C37.5607 26.5928 37.7207 26.2682 37.9091 25.96C37.9853 25.8447 38.01 25.7005 38.0759 25.579C38.2339 25.2866 38.3994 24.9997 38.5725 24.7183C38.6442 24.6167 38.7272 24.5234 38.8198 24.4403C39.0764 24.1696 39.3578 23.9235 39.6604 23.7052C39.8026 23.6064 39.9015 23.419 40.0437 23.2934C40.2167 23.1451 40.4063 23.0113 40.5917 22.8815C40.6762 22.8156 40.7792 22.7724 40.8596 22.7044C41.2329 22.4016 41.6496 22.1565 42.0958 21.9776C42.1329 21.9585 42.1737 21.9479 42.2154 21.9467C42.2533 21.9528 42.2921 21.951 42.3293 21.9415C42.3665 21.9319 42.4014 21.9149 42.4317 21.8913C42.462 21.8677 42.4872 21.8382 42.5056 21.8045C42.5241 21.7708 42.5354 21.7337 42.5388 21.6955C42.8355 21.6543 43.1116 21.609 43.3919 21.5884C43.5161 21.5895 43.6393 21.6111 43.7566 21.6522C44.0327 21.7243 44.3046 21.8046 44.5807 21.887C44.6231 21.9074 44.6631 21.9323 44.7002 21.9611C44.8218 22.027 44.8877 22.1794 45.0464 22.1876C45.2524 22.4306 45.4956 22.6591 45.4296 23.0277C45.4225 23.0678 45.426 23.109 45.4399 23.1472C45.4861 23.2119 45.5133 23.2882 45.5184 23.3675C45.5235 23.4468 45.5063 23.526 45.4688 23.5961C45.4523 23.6187 45.4811 23.6723 45.4853 23.7134C45.4853 23.8288 45.4976 23.9399 45.5059 24.0553C45.5061 24.1297 45.5117 24.204 45.5224 24.2777C45.5518 24.3912 45.5378 24.5116 45.4832 24.6154C45.4533 24.6722 45.4438 24.7377 45.4564 24.8007C45.4758 24.8644 45.4778 24.9322 45.4622 24.997C45.4466 25.0618 45.414 25.1213 45.3678 25.1693C45.3173 25.2453 45.2771 25.3277 45.2483 25.4143C45.1673 25.6183 45.0751 25.8176 44.9722 26.0115C44.8754 26.2174 44.7888 26.4233 44.6714 26.6066C44.6384 26.6601 44.659 26.7528 44.659 26.8269C44.6685 26.8829 44.6616 26.9403 44.6394 26.9925C44.6171 27.0447 44.5803 27.0894 44.5333 27.1214C44.4325 27.2075 44.3606 27.3225 44.3273 27.4508C44.2625 27.6363 44.1648 27.8086 44.0388 27.9594C43.9942 28.0379 43.9576 28.1207 43.9296 28.2065C43.8328 28.4125 43.7236 28.5957 43.6329 28.7934C43.5794 28.9025 43.5485 29.024 43.4908 29.1291C43.365 29.3214 43.2527 29.5223 43.1549 29.7303C43.049 29.9555 42.9228 30.1705 42.7779 30.3728C42.6802 30.6026 42.5404 30.8121 42.3658 30.9905C42.3028 31.0561 42.2618 31.1396 42.2483 31.2294C42.2336 31.3116 42.2015 31.3897 42.1543 31.4586C42.107 31.5275 42.0457 31.5855 41.9743 31.6289C41.8568 31.6989 41.7456 31.7771 41.7971 31.9439C41.8026 31.9687 41.7981 31.9945 41.7847 32.016C41.6951 32.1815 41.5888 32.3375 41.4674 32.4814C41.3577 32.6234 41.2167 32.7383 41.0553 32.817C40.9667 33.1321 40.6309 33.2 40.4496 33.4348C40.2682 33.6695 40.1426 33.8363 39.9777 34.0278C39.8479 34.1761 39.7016 34.3079 39.5656 34.4499C39.5386 34.4838 39.5164 34.5212 39.4997 34.5611C39.4626 34.6353 39.4338 34.5941 39.3823 34.6538C39.228 34.8385 39.0621 35.0132 38.8857 35.1768C38.7658 35.2991 38.6332 35.4082 38.4901 35.5022C38.3419 35.7032 38.1397 35.8581 37.907 35.949C37.7955 36.0182 37.6882 36.0938 37.5856 36.1755C37.4063 36.332 37.4537 36.3567 37.2621 36.4968C37.0107 36.68 36.7655 37.0321 36.5018 37.1969C36.3802 37.271 36.2731 37.3431 36.2854 37.5037C36.3184 37.9341 36.1783 38.3438 36.1082 38.7639C36.1948 38.8277 36.0444 39.1551 36.0732 39.1037C36.2793 38.7824 36.8747 38.2491 37.1385 37.9855C37.374 37.7317 37.5962 37.4657 37.804 37.1886C37.8514 37.131 38.01 36.9189 38.0718 36.8674C38.2779 36.6739 38.3376 36.6244 38.5251 36.4165C38.8346 36.0671 39.1753 35.7466 39.543 35.4589C39.7099 35.3251 39.9077 35.2366 40.089 35.1171C40.2703 34.9977 40.4619 35.0492 40.6474 35.0059C40.7528 34.9745 40.8634 34.9646 40.9728 34.9766C41.0821 34.9886 41.188 35.0224 41.284 35.0759C41.3562 35.101 41.4323 35.1129 41.5086 35.1109C41.6487 35.2139 41.7147 35.3848 41.8671 35.496C41.9147 35.5419 41.9481 35.6004 41.9634 35.6646C41.9787 35.7288 41.9754 35.7961 41.9537 35.8584C41.9278 35.9445 41.9159 36.0342 41.9186 36.124C41.9259 36.3313 41.9086 36.5386 41.8671 36.7418C41.8404 36.958 41.7394 37.1701 41.8115 37.4028C41.8445 37.4996 41.7909 37.6087 41.7868 37.7281C41.7744 37.9181 41.7744 38.1086 41.7868 38.2985C41.8156 38.6301 41.692 38.9451 41.7332 39.2808C41.7468 39.5744 41.7337 39.8687 41.6941 40.16C41.6941 40.1827 41.6693 40.2156 41.6796 40.2321C41.8156 40.4957 41.6529 40.7263 41.589 40.9631C41.5631 41.0319 41.5562 41.1064 41.5689 41.1788C41.5815 41.2513 41.6134 41.319 41.6611 41.3749C41.7785 41.3008 41.9042 41.2246 42.0258 41.1422C42.4812 40.8313 42.7882 40.3762 43.1425 39.9685C43.3015 39.8143 43.4709 39.6712 43.6494 39.5402C43.7545 39.4517 43.8555 39.3549 43.9502 39.2561C44.1192 39.0893 44.2799 38.9163 44.4489 38.7495C44.6817 38.5189 44.9207 38.2965 45.1556 38.07C45.1965 38.0282 45.2406 37.9896 45.2875 37.9547C45.6164 37.7181 45.9283 37.4587 46.2208 37.1783C46.4002 37.0312 46.5919 36.8997 46.7936 36.785C46.9786 36.6523 47.1555 36.5086 47.3232 36.3547C47.4921 36.2229 47.6528 36.0808 47.8197 35.9428C47.9698 35.8435 48.113 35.7341 48.2483 35.6154C48.5201 35.3781 48.7379 35.0853 48.887 34.7568C48.8962 34.7225 48.9148 34.6914 48.9406 34.6671C48.9664 34.6427 48.9985 34.626 49.0333 34.6188C49.1178 34.5941 49.1817 34.4952 49.2517 34.4294C49.3015 34.3655 49.3597 34.3087 49.4248 34.2605C49.5828 34.204 49.7294 34.1196 49.8575 34.0113C49.8925 33.9722 49.9811 33.9722 50.0471 33.9702C50.1707 33.9702 50.2964 33.9702 50.4221 33.9702C50.4571 33.9702 50.5003 33.9702 50.521 33.9702C50.7517 34.1493 51.0422 34.0958 51.2998 34.1761C51.3225 34.1761 51.3451 34.2049 51.3678 34.2049C51.6763 34.249 51.97 34.3654 52.2249 34.5447C52.3796 34.6515 52.5676 34.6991 52.7545 34.6785C52.8971 34.6682 53.0404 34.6682 53.183 34.6785C53.2492 34.6692 53.3167 34.6739 53.3809 34.6923C53.4452 34.7108 53.5048 34.7426 53.556 34.7856C53.5942 34.8178 53.6414 34.8374 53.6911 34.8418C53.7409 34.8463 53.7908 34.8352 53.8341 34.8103C54.0711 34.7321 54.3121 34.6641 54.5429 34.5714C55.0086 34.3841 55.4763 34.1967 55.9399 34.0052C56.1486 33.9082 56.3625 33.823 56.5807 33.7498C56.7141 33.6892 56.84 33.6132 56.9557 33.5233C56.9938 33.4928 57.0393 33.4729 57.0876 33.4657C57.2617 33.4544 57.4306 33.4014 57.58 33.3112C57.6722 33.2763 57.7699 33.2582 57.8685 33.2577C58.3135 33.2577 58.7586 33.2412 59.1995 33.2803C59.3569 33.2916 59.5103 33.3352 59.65 33.4086C59.7897 33.4819 59.9127 33.5834 60.0113 33.7066C60.1576 33.8899 60.2689 34.0978 60.5058 34.1884C60.5408 34.2028 60.5614 34.2646 60.58 34.3079C60.6397 34.4602 60.6912 34.6167 60.7613 34.765C60.8503 34.9969 60.8944 35.2436 60.8911 35.4919C60.8911 35.6278 60.7778 35.7802 60.8025 35.9037C60.815 36.0419 60.8039 36.1811 60.7695 36.3156C60.7322 36.5571 60.6288 36.7837 60.4708 36.9704C60.4235 37.0265 60.3718 37.0789 60.3162 37.1269C60.2977 37.1433 60.2606 37.1475 60.2524 37.168C60.1597 37.374 59.9495 37.481 59.8073 37.6499C59.7079 37.7567 59.5845 37.8383 59.4473 37.8881C59.3101 37.9379 59.163 37.9543 59.0182 37.9361C58.9348 37.9358 58.853 37.9138 58.7807 37.8723C58.7085 37.8307 58.6483 37.7711 58.6061 37.6993C58.5463 37.584 58.4516 37.4934 58.3815 37.3781C58.3565 37.3358 58.3443 37.2871 58.3465 37.2381C58.3609 37.0198 58.3362 36.7953 58.5525 36.6409C58.6231 36.5701 58.6754 36.4831 58.705 36.3876C58.8059 36.1817 58.8925 35.9614 58.9935 35.7555C59.0676 35.6031 59.1603 35.4651 59.2407 35.3189C59.2576 35.2743 59.27 35.228 59.2778 35.181C59.0264 35.1315 58.8204 34.9297 58.5505 35.0018C58.2805 35.0739 57.9859 35.0492 57.7077 35.1789C57.2709 35.3848 56.8382 35.5907 56.4159 35.8111C56.278 35.8874 56.1529 35.9846 56.045 36.0993C55.8029 36.3267 55.5802 36.574 55.3795 36.8386C55.1507 37.1598 54.9159 37.4913 54.887 37.9196C54.8378 38.1676 54.8204 38.4209 54.8355 38.6733C54.8327 38.7887 54.821 38.9036 54.8005 39.0172C54.8217 39.2574 54.779 39.4989 54.6768 39.7173C54.6551 39.7637 54.6514 39.8166 54.6665 39.8656C54.7149 40.1492 54.7233 40.4383 54.6913 40.7242C54.7 40.9548 54.7241 41.1846 54.7634 41.412C54.8005 41.7373 54.8376 42.0606 54.8705 42.386C54.8715 42.4352 54.8839 42.4836 54.9068 42.5272C54.9296 42.5708 54.9624 42.6085 55.0024 42.6372C55.0424 42.666 55.0885 42.6851 55.1371 42.6929C55.1858 42.7008 55.2356 42.6972 55.2826 42.6825C55.5939 42.6219 55.8858 42.487 56.1336 42.2892C56.2387 42.2007 56.3211 42.0833 56.4756 42.0524C56.5086 42.0524 56.5354 42.003 56.5642 41.9721C56.8053 41.7085 57.0319 41.4326 57.2874 41.1855C57.4321 41.0066 57.6022 40.8499 57.7922 40.7201C57.8917 40.6502 57.9724 40.5568 58.0271 40.4483C58.1946 40.1758 58.4031 39.9306 58.6452 39.7214C58.8039 39.5793 58.9234 39.3961 59.0759 39.2458C59.2592 39.0625 59.4612 38.8936 59.6549 38.7227C59.6753 38.7093 59.6946 38.6941 59.7125 38.6774C59.9451 38.3986 60.2046 38.1434 60.4873 37.9155C60.582 37.8249 60.6459 37.7096 60.7366 37.6067C60.836 37.5073 60.9435 37.4164 61.058 37.3348C61.1569 37.2545 61.2908 37.2175 61.3362 37.0713C61.3498 37.0464 61.369 37.0249 61.3922 37.0085C61.4154 36.9921 61.442 36.9812 61.4701 36.9765C61.6205 36.9765 61.6555 36.8818 61.6864 36.7521C61.7249 36.6534 61.7791 36.5616 61.8471 36.4803C61.911 36.3897 61.977 36.2991 62.0532 36.2126C62.2592 35.9614 62.4818 35.7122 62.7002 35.4651C62.8403 35.3045 62.9927 35.1562 63.1308 34.9915C63.3039 34.7856 63.4625 34.5611 63.6335 34.3511C63.8396 34.1081 63.957 33.791 64.3135 33.6942C64.474 33.6333 64.6242 33.5479 64.7585 33.441C64.9174 33.3583 65.0926 33.3119 65.2716 33.305C65.3336 33.2965 65.3968 33.3035 65.4554 33.3254C65.514 33.3473 65.5663 33.3835 65.6074 33.4307C65.7591 33.5681 65.9179 33.6973 66.0834 33.8178C66.1782 33.8919 66.2791 33.9599 66.3904 34.0422L66.4028 34.0484ZM39.5595 27.1317C39.5018 27.2181 39.4523 27.2985 39.4029 27.3788C39.3843 27.4055 39.3555 27.4385 39.3596 27.4611C39.3823 27.5764 39.3163 27.6465 39.2586 27.7309C39.2141 27.79 39.1915 27.8628 39.1948 27.9368C39.2047 27.9858 39.2004 28.0366 39.1826 28.0832C39.1647 28.1299 39.1339 28.1705 39.0938 28.2004C38.8568 28.4228 38.7971 28.7543 38.6096 29.0055C38.6061 29.0133 38.6042 29.0217 38.6042 29.0302C38.6042 29.0387 38.6061 29.0472 38.6096 29.0549C38.6961 29.2444 38.5993 29.4009 38.5354 29.5718C38.4159 29.8807 38.3294 30.1895 38.214 30.5087C38.1433 30.6481 38.0894 30.7953 38.0533 30.9473C38.0509 31.2372 37.972 31.5213 37.8246 31.771C37.7813 31.8327 37.7957 31.9316 37.7772 32.0119C37.7595 32.0821 37.7368 32.1509 37.7092 32.2178C37.6895 32.2523 37.6723 32.288 37.6577 32.3249C37.6206 32.467 37.5897 32.609 37.5567 32.7511C37.5567 32.8006 37.5196 32.8541 37.5341 32.8932C37.5691 32.9859 37.5217 33.0374 37.4661 33.0991C37.4142 33.1426 37.3804 33.2038 37.3712 33.2708C37.3621 33.3378 37.3783 33.4058 37.4166 33.4615C37.3939 33.5563 37.4928 33.6366 37.361 33.6839C37.3424 33.6839 37.3136 33.7169 37.3136 33.7354C37.3012 33.9187 37.295 34.104 37.2847 34.312C37.3569 34.2873 37.3939 34.2873 37.4145 34.2646C37.5368 34.1509 37.6498 34.0276 37.7525 33.896C37.8894 33.6411 38.085 33.4223 38.3232 33.2577C38.3438 33.2474 38.3562 33.2206 38.3706 33.2021C38.4736 33.0662 38.5766 32.9262 38.6838 32.7903C38.8208 32.6499 38.9475 32.4999 39.0629 32.3414C39.2189 32.0809 39.3997 31.8361 39.6027 31.6104C39.6254 31.5856 39.6563 31.5671 39.6707 31.5383C39.9086 31.1417 40.1847 30.7693 40.4949 30.4263C40.5472 30.3608 40.5954 30.292 40.6391 30.2204C40.7932 29.958 40.9618 29.7043 41.1439 29.4606C41.4005 29.1686 41.6092 28.8377 41.7621 28.4804C41.8404 28.291 41.9475 28.1118 42.0443 27.9286C42.1618 27.7041 42.2936 27.49 42.4276 27.2737C42.6186 26.9351 42.776 26.5785 42.8974 26.2092C42.9929 25.9973 43.0488 25.7698 43.0622 25.5379C43.0622 25.2722 43.1838 25.0601 43.2373 24.8213C43.3013 24.611 43.3777 24.4048 43.466 24.2035C43.4965 24.1081 43.5145 24.0091 43.5196 23.9091C43.5116 23.8127 43.4716 23.7218 43.4058 23.6509C43.3401 23.58 43.2525 23.5331 43.157 23.5178C43.0124 23.5227 42.869 23.5462 42.7305 23.5878C42.6092 23.6083 42.4979 23.6676 42.4132 23.7567C42.3184 23.8514 42.2071 23.9379 42.1144 24.0264C42.0217 24.115 41.9083 24.1953 41.8156 24.2859C41.6673 24.4177 41.5231 24.5556 41.3768 24.6977C41.2305 24.8398 41.1048 24.9386 40.9647 25.0622C40.9173 25.1054 40.8761 25.1569 40.8287 25.2022L40.2415 25.7726C40.2222 25.8003 40.2095 25.832 40.2044 25.8653C40.1343 26.2627 39.9056 26.5983 39.7593 26.9669C39.7305 27.0431 39.6336 27.0946 39.5533 27.1728L39.5595 27.1317ZM24.6564 32.572C24.7037 32.5843 24.7532 32.6193 24.7923 32.607C24.9116 32.5721 25.0274 32.5266 25.1385 32.4711C25.5506 32.2652 25.9482 32.0345 26.3521 31.8163C26.3908 31.7983 26.4274 31.7762 26.4613 31.7504C26.7207 31.5607 26.9965 31.3946 27.2855 31.2541C27.5267 31.1177 27.7514 30.954 27.9551 30.7661C28.3672 30.3893 28.7649 29.9816 29.1646 29.5841C29.2694 29.4907 29.361 29.3833 29.4366 29.265C29.5165 29.1073 29.6451 28.9795 29.8033 28.9005C29.8033 28.8202 29.7806 28.746 29.8033 28.6946C29.9002 28.5134 30.0094 28.3425 30.1247 28.1674C30.2855 27.908 30.4627 27.6567 30.5986 27.387C30.6831 27.2202 30.7697 27.0061 30.5986 26.8475C30.4578 26.7179 30.2915 26.619 30.1103 26.5572C30.0291 26.5191 29.9377 26.5085 29.8499 26.5271C29.7621 26.5457 29.6828 26.5924 29.6241 26.6601C29.5397 26.7472 29.4599 26.8386 29.385 26.934C29.3637 26.9749 29.3314 27.0091 29.2917 27.0327C29.2521 27.0563 29.2066 27.0685 29.1605 27.0678C29.0883 27.0678 29.0533 27.107 28.9956 27.144C28.8638 27.2367 28.8473 27.3932 28.7463 27.4961C28.5176 27.7329 28.2786 27.9615 28.0767 28.2168C27.9315 28.4207 27.7636 28.6072 27.576 28.7728C27.3035 29.0279 27.0507 29.3033 26.8198 29.5965C26.6374 29.772 26.4918 29.982 26.3912 30.2142C26.3246 30.3951 26.2064 30.5526 26.0513 30.6673C25.9877 30.7285 25.9323 30.7978 25.8864 30.8732C25.8308 30.9535 25.7855 31.0441 25.7257 31.1223C25.6042 31.2768 25.4702 31.423 25.3487 31.5774C25.3126 31.6234 25.2873 31.6769 25.2745 31.7339C25.2312 31.9028 25.2189 32.0881 24.9943 32.1293C24.9798 32.1293 24.9675 32.1519 24.9592 32.1622C24.8645 32.2755 24.7697 32.3887 24.6543 32.5308L24.6564 32.572ZM49.6597 36.9827C49.5767 36.996 49.498 37.0288 49.4302 37.0786C49.3625 37.1284 49.3077 37.1937 49.2703 37.269C49.2538 37.3081 49.2043 37.3369 49.1693 37.3699C49.1224 37.3992 49.0794 37.4345 49.0416 37.4749C48.9715 37.5902 48.9097 37.7076 48.7613 37.7384C48.7346 37.7384 48.7181 37.7817 48.6975 37.8085C48.6068 37.9217 48.5141 38.037 48.4276 38.1544C48.1927 38.4756 47.9598 38.7969 47.7249 39.116C47.7249 39.3405 47.5189 39.4167 47.4179 39.5732C47.317 39.7297 47.1109 39.8676 47.0574 40.0426C46.9958 40.2197 46.9178 40.3907 46.8245 40.5533C46.7495 40.7365 46.6614 40.9141 46.5608 41.0846C46.4183 41.3109 46.3559 41.5785 46.3836 41.8444C46.4113 41.9598 46.4765 42.0628 46.5689 42.1373C46.6614 42.2118 46.7759 42.2536 46.8946 42.2563C47.0658 42.2233 47.2329 42.1723 47.3932 42.1039C47.5067 42.0412 47.6168 41.9725 47.7229 41.898C48.0358 41.7147 48.3221 41.4896 48.5738 41.2287C48.8281 40.9702 49.0649 40.695 49.2826 40.4051C49.3107 40.3656 49.3362 40.3243 49.3589 40.2815C49.4063 40.1888 49.499 40.0921 49.4866 40.0076C49.4701 39.8717 49.5587 39.8017 49.6102 39.7214C49.6985 39.5706 49.7421 39.3978 49.7359 39.2231C49.7219 39.008 49.7543 38.7925 49.8307 38.5909C49.8378 38.5762 49.8415 38.56 49.8415 38.5436C49.8415 38.5272 49.8378 38.511 49.8307 38.4962C49.7462 38.3418 49.8307 38.1873 49.8307 38.0329C49.8395 37.9943 49.8395 37.9542 49.8307 37.9155C49.9523 37.584 49.705 37.3101 49.6576 36.9786L49.6597 36.9827ZM76.2846 25.5482C76.2413 25.5358 76.2248 25.5255 76.2104 25.5296C76.1772 25.534 76.145 25.5444 76.1156 25.5605C75.8313 25.752 75.4666 25.8426 75.2915 26.1783C75.2856 26.1889 75.2777 26.1982 75.2681 26.2057C75.2586 26.2131 75.2476 26.2185 75.2358 26.2215C75.0895 26.2462 75.0298 26.3759 74.9865 26.4748C74.9182 26.6077 74.8244 26.726 74.7104 26.8228C74.5806 26.9402 74.5147 27.1275 74.3334 27.2017C74.3268 27.2062 74.3213 27.212 74.3171 27.2187C74.3128 27.2255 74.31 27.233 74.3086 27.2408C74.2983 27.3726 74.1809 27.4076 74.1026 27.4735C74.0243 27.5394 73.9955 27.5497 73.9501 27.595C73.7441 27.8153 73.538 28.0356 73.3423 28.2601C73.2146 28.4022 73.0971 28.5504 72.9797 28.6987C72.7777 28.9499 72.5786 29.2052 72.3821 29.4647C72.345 29.5121 72.2935 29.5821 72.3038 29.6315C72.3161 29.7019 72.3087 29.7742 72.2826 29.8407C72.2564 29.9072 72.2124 29.9652 72.1555 30.0083C72.0777 30.08 72.0305 30.1788 72.0236 30.2842C72.0133 30.3543 71.9865 30.4552 71.9371 30.4757C71.731 30.5705 71.7846 30.8382 71.6136 30.9514C71.6239 31.112 71.5126 31.2191 71.4446 31.3488C71.3766 31.4786 71.2592 31.5342 71.286 31.7092C71.5106 31.5815 71.7166 31.4744 71.9041 31.3509C72.2235 31.145 72.5346 30.9226 72.8457 30.7064C72.9755 30.6178 73.1053 30.5293 73.2249 30.4304C73.4309 30.2554 73.6369 30.0742 73.8327 29.8951C73.8844 29.8523 73.9333 29.8062 73.979 29.7571C74.1047 29.6171 74.22 29.4647 74.3602 29.3329C74.6121 29.0827 74.821 28.7925 74.9783 28.4742C75.1843 28.083 75.3553 27.6691 75.5428 27.2676C75.6108 27.1275 75.6768 26.9813 75.7592 26.8557C76.0091 26.4574 76.1869 26.0183 76.2846 25.5585V25.5482ZM64.7421 35.9531C64.6184 35.8975 64.5772 35.9531 64.536 36.017C64.4803 36.0857 64.4189 36.1498 64.3526 36.2085C64.3238 36.2373 64.2702 36.26 64.2661 36.2929C64.2434 36.4288 64.1301 36.4762 64.0353 36.54C63.9406 36.6038 63.8746 36.6224 63.8746 36.7459C63.8746 36.7789 63.8293 36.8098 63.8066 36.8448C63.6933 36.9971 63.4934 37.0713 63.4481 37.2875C63.4275 37.3822 63.3471 37.5243 63.2709 37.5408C63.0319 37.5964 63.003 37.7734 62.9557 37.9526C62.9376 37.9996 62.911 38.0428 62.8774 38.0803C62.7311 38.2965 62.5827 38.5086 62.4364 38.7268C62.4154 38.7525 62.3981 38.7809 62.3849 38.8113C62.263 39.0966 62.119 39.372 61.9543 39.6349C61.8224 39.8724 61.7384 40.1333 61.707 40.403C61.6773 40.6241 61.6353 40.8434 61.5814 41.0599C61.5437 41.1772 61.5175 41.2979 61.5031 41.4202C61.5017 41.6425 61.5148 41.8647 61.5422 42.0853C61.5629 42.21 61.5918 42.3331 61.6287 42.4539C61.7152 42.4306 61.7952 42.3879 61.8627 42.329C61.9302 42.2701 61.9834 42.1967 62.0182 42.1142C62.0735 41.9945 62.1552 41.889 62.2572 41.8053C62.3731 41.719 62.4681 41.6078 62.5353 41.4799C62.6392 41.2779 62.7643 41.0874 62.9083 40.9116C63.0752 40.6707 63.2421 40.4318 63.4007 40.1847C63.5367 39.9747 63.6473 39.7494 63.7304 39.5134C63.8499 39.1799 63.9921 38.8566 64.128 38.5312C64.1976 38.2688 64.285 38.0115 64.3897 37.7611C64.4568 37.6112 64.5045 37.4535 64.5319 37.2916C64.5566 37.1969 64.5628 37.0857 64.5896 37.0033C64.6566 36.8655 64.7025 36.7183 64.7256 36.5668C64.7033 36.3608 64.7109 36.1528 64.7482 35.949" fill="#92979D"/>
<path fill-rule="evenodd" clip-rule="evenodd" d="M101.524 34.734C101.551 34.8864 101.469 34.9667 101.401 35.0738C101.277 35.2673 101.03 35.3826 101.024 35.6586C101.024 35.7245 100.939 35.8006 100.875 35.8501C100.821 35.8957 100.777 35.9519 100.745 36.0153C100.714 36.0787 100.696 36.1479 100.692 36.2187C100.674 36.3937 100.717 36.4761 100.888 36.5008C101.045 36.5142 101.204 36.5142 101.362 36.5008C101.568 36.5008 101.759 36.4781 101.959 36.4658C102.233 36.4513 102.509 36.4225 102.783 36.4308C103.068 36.4128 103.352 36.4703 103.608 36.5975C103.777 36.7113 103.939 36.8365 104.092 36.9723C104.127 36.995 104.157 37.0245 104.181 37.0592C104.205 37.0938 104.221 37.1328 104.229 37.1739C104.238 37.215 104.238 37.2573 104.229 37.2984C104.221 37.3395 104.204 37.3784 104.18 37.413C104.164 37.4439 104.18 37.4953 104.18 37.5386C104.18 37.5818 104.215 37.5921 104.207 37.6024C104.092 37.7651 104.232 37.9442 104.172 38.109C104.172 38.1213 104.172 38.1399 104.191 38.1666C104.508 38.1319 104.819 38.0521 105.114 37.9298C105.16 37.9102 105.208 37.8957 105.258 37.8866C105.587 37.826 105.909 37.73 106.218 37.6004C106.678 37.4164 107.139 37.2366 107.601 37.0609C107.909 36.973 108.211 36.8622 108.503 36.7293C108.783 36.5708 109.121 36.6449 109.377 36.4843C109.676 36.3203 110.008 36.226 110.349 36.2084C110.396 36.1954 110.441 36.1753 110.481 36.1487C110.607 36.0845 110.737 36.0288 110.871 35.9819C111.143 35.8962 111.403 35.7743 111.643 35.6194C111.666 35.8151 111.693 36.0066 111.719 36.2187C111.583 36.3051 111.439 36.3937 111.443 36.6037C111.436 36.6452 111.421 36.6848 111.399 36.7202C111.376 36.7556 111.346 36.786 111.312 36.8096C111.151 36.9373 110.963 37.0341 110.813 37.1721C110.662 37.31 110.494 37.3615 110.454 37.5654L109.908 37.658C109.889 37.7069 109.857 37.7499 109.816 37.7824C109.775 37.815 109.726 37.836 109.673 37.8433C109.577 37.8619 109.434 37.8722 109.406 38.0246C109.406 38.0493 109.338 38.0678 109.296 38.0822C109.064 38.1605 108.864 38.3231 108.604 38.3458C108.516 38.373 108.433 38.4147 108.359 38.4693C108.254 38.5328 108.145 38.5879 108.031 38.6341C107.733 38.7432 107.432 38.84 107.133 38.9347C107.065 38.9527 106.996 38.9664 106.927 38.9759C106.68 39.0212 106.459 39.153 106.198 39.1612C106.072 39.1612 105.954 39.2909 105.823 39.3383C105.714 39.3776 105.598 39.3958 105.483 39.3918C105.178 39.4017 104.878 39.4769 104.605 39.6122C104.426 39.6763 104.244 39.7306 104.059 39.7748C103.869 39.8284 103.68 39.8757 103.492 39.9334C103.409 39.9751 103.334 40.033 103.274 40.1037C103.213 40.1744 103.167 40.2565 103.138 40.3452C103.136 40.3541 103.136 40.3632 103.138 40.372C102.932 40.4379 102.932 40.6932 102.777 40.8003C102.742 40.823 102.695 40.8436 102.687 40.8765C102.631 41.0556 102.573 41.2245 102.371 41.2883C102.353 41.2883 102.357 41.3501 102.34 41.3748C102.295 41.4407 102.258 41.5396 102.2 41.5581C102.143 41.5785 102.093 41.6154 102.056 41.6641C102.019 41.7128 101.998 41.7712 101.994 41.832C101.989 41.8916 101.967 41.9485 101.93 41.996C101.894 42.0434 101.845 42.0794 101.788 42.0996C101.671 42.1429 101.601 42.3323 101.524 42.4641C101.419 42.6391 101.345 42.8327 101.131 42.9192C101.1 42.9322 101.072 42.9519 101.05 42.9768C101.028 43.0017 101.011 43.0313 101.001 43.0633C101.001 43.2404 100.842 43.2837 100.739 43.3722C100.595 43.4958 100.395 43.5555 100.296 43.7367C100.288 43.7505 100.277 43.7623 100.264 43.7712C100.251 43.7801 100.236 43.7859 100.22 43.7882C100.167 43.8001 100.118 43.8237 100.075 43.8572C100.032 43.8906 99.9973 43.9332 99.973 43.9817C99.9379 44.0264 99.8907 44.06 99.837 44.0785C99.6721 44.1485 99.6701 44.1465 99.6309 44.3524C99.4929 44.443 99.3013 44.4368 99.1818 44.5748C99.1344 44.6283 99.0643 44.6613 99.0149 44.7127C98.9509 44.7989 98.8677 44.8689 98.7718 44.9172C98.6759 44.9655 98.57 44.9906 98.4627 44.9907C98.1825 44.9701 97.8837 45.0546 97.62 44.931C97.4304 44.8445 97.2202 44.7251 97.1934 44.4718C97.1934 44.4244 97.1749 44.3544 97.144 44.3359C96.9998 44.2535 97.0039 44.1032 96.9483 43.9776C96.9235 43.9179 96.8885 43.8602 96.8658 43.8005C96.8102 43.6461 96.7587 43.4896 96.7072 43.3331C96.6948 43.294 96.7072 43.2445 96.6928 43.2095C96.532 42.9418 96.6124 42.6618 96.6557 42.3859C96.665 42.3031 96.7038 42.2263 96.7649 42.1697C96.9139 42.0287 97.033 41.8592 97.1151 41.6713C97.1869 41.5536 97.2727 41.4451 97.3707 41.3481C97.4757 41.2451 97.5767 41.1257 97.6653 41.0145C97.688 40.9898 97.7189 40.9568 97.7436 40.9568C98.0135 40.9753 98.1763 40.7509 98.3823 40.6459C98.5884 40.5409 98.7161 40.4194 98.8954 40.3226C99.1818 40.162 99.4661 39.9993 99.7546 39.8407C99.9096 39.7503 100.069 39.6678 100.233 39.5936C100.467 39.4969 100.713 39.4227 100.952 39.3321C101.269 39.2148 101.582 39.0891 101.902 38.9697C101.964 38.9472 102.029 38.934 102.095 38.9306C102.186 38.9306 102.277 38.9306 102.365 38.9306C102.406 38.8737 102.435 38.8092 102.45 38.741C102.466 38.6728 102.468 38.6021 102.456 38.5332C102.447 38.4763 102.458 38.4181 102.487 38.3684C102.629 38.1172 102.588 37.8372 102.614 37.5695C102.607 37.4984 102.588 37.429 102.559 37.3636C102.314 37.553 101.996 37.5448 101.79 37.7754C101.767 37.7986 101.736 37.8137 101.704 37.8186C101.419 37.8742 101.242 38.0925 101.018 38.2428C100.793 38.3931 100.674 38.6011 100.426 38.7C100.195 38.8129 99.9514 38.9005 99.701 38.9615C99.567 38.969 99.4325 38.9586 99.3013 38.9306C99.2044 38.8194 99.12 38.7247 99.0458 38.632C99.0171 38.5858 98.9969 38.5349 98.986 38.4817C98.9572 38.3931 98.9448 38.3005 98.9098 38.2202C98.8748 38.1399 98.8336 38.0719 98.8851 37.9854C98.8922 37.9703 98.8959 37.9538 98.8959 37.937C98.8959 37.9203 98.8922 37.9038 98.8851 37.8886C98.7408 37.7157 98.8459 37.5489 98.8851 37.3759C98.9242 37.2029 98.9675 36.9785 99.0087 36.7746C98.78 36.6923 98.6419 36.8694 98.4956 36.962C98.3461 37.0774 98.2081 37.2071 98.0836 37.3491C97.9702 37.4521 97.8775 37.5962 97.7044 37.6148C97.6847 37.6181 97.6662 37.6262 97.6503 37.6384C97.6345 37.6507 97.622 37.6666 97.6138 37.6848C97.6043 37.725 97.5829 37.7615 97.5524 37.7894C97.5219 37.8173 97.4837 37.8354 97.4428 37.8413C97.4077 37.8516 97.35 37.9216 97.3603 37.9463C97.4077 38.076 97.3068 38.1007 97.2367 38.1522C96.9528 38.3524 96.6898 38.5808 96.4517 38.8338C96.3378 38.972 96.2101 39.0983 96.0705 39.2106C96.0482 39.2345 96.0216 39.254 95.9922 39.2683C95.745 39.3795 95.745 39.3795 95.6996 39.6472C95.5142 39.6472 95.4318 39.8098 95.3246 39.9272C95.2175 40.0446 95.1186 40.197 94.9249 40.1723C94.9005 40.1756 94.8779 40.1872 94.861 40.2052C94.6818 40.3473 94.5046 40.4956 94.3212 40.6335C94.1852 40.7365 94.043 40.8291 93.9091 40.928C93.8494 40.9671 93.7876 41.0062 93.7299 41.0474C93.7031 41.0659 93.6804 41.1154 93.6598 41.1112C93.4703 41.0907 93.359 41.2369 93.2271 41.3172C93.0363 41.4307 92.8165 41.4865 92.5946 41.4778H91.3027C91.2305 41.4801 91.1588 41.4661 91.0928 41.4369C91.0268 41.4076 90.9682 41.3639 90.9215 41.3089C90.6726 41.0314 90.4588 40.7243 90.2848 40.3947C90.2561 40.328 90.2326 40.2591 90.2148 40.1887C90.2045 40.1579 90.1983 40.1084 90.1756 40.1002C89.9552 40.0199 89.9531 39.7954 89.8604 39.6307C89.8027 39.5319 89.7553 39.4248 89.6997 39.3239C89.6852 39.2971 89.6502 39.2827 89.6193 39.2559C89.4462 39.4207 89.2072 39.5236 89.2484 39.8057L88.5726 40.3802C88.5207 40.4332 88.4641 40.4814 88.4037 40.5244C88.28 40.5903 88.1379 40.6356 88.1358 40.8147C88.1358 40.8312 88.1069 40.8539 88.0863 40.8641C87.8968 40.9568 87.7649 41.1318 87.5383 41.1854C87.3899 41.2183 87.2642 41.3913 87.1447 41.5087C86.9478 41.7517 86.7021 41.9509 86.4236 42.0935C86.1651 42.2253 85.9159 42.3746 85.6777 42.5403C85.6282 42.5671 85.5623 42.5609 85.5108 42.5877C85.4593 42.6144 85.3645 42.6556 85.3377 42.7112C85.3146 42.7599 85.2789 42.8015 85.2344 42.8319C85.1899 42.8623 85.1381 42.8803 85.0843 42.8842C84.873 42.9347 84.6527 42.9347 84.4414 42.8842C84.357 42.8615 84.2828 42.8451 84.2354 42.7524C84.2135 42.716 84.1802 42.6877 84.1406 42.6721C84.022 42.6189 83.9186 42.5366 83.8401 42.433C83.7616 42.3294 83.7105 42.2076 83.6914 42.0791C83.6557 41.9329 83.5958 41.7937 83.5142 41.6672C83.4542 41.605 83.4206 41.522 83.4206 41.4356C83.4206 41.3491 83.4542 41.2661 83.5142 41.2039C83.3741 41.1236 83.3638 40.998 83.3556 40.8641C83.3467 40.5664 83.3212 40.2695 83.2794 39.9746C83.2266 39.804 83.1901 39.6289 83.1702 39.4516C83.1702 39.4351 83.1248 39.4166 83.0774 39.3836C83.0671 39.7481 82.7642 39.9046 82.6015 40.1476C82.4222 40.3694 82.2544 40.6004 82.0987 40.8394C82.0378 40.9478 81.9507 41.0391 81.8453 41.1051C81.8015 41.1266 81.7644 41.1597 81.7379 41.2006C81.7114 41.2416 81.6966 41.289 81.6949 41.3378C81.6949 41.4057 81.6516 41.5066 81.6001 41.5293C81.4765 41.5869 81.425 41.7043 81.3364 41.7846C81.2478 41.8649 81.1571 42.0029 80.9923 42.0502C80.8784 42.1047 80.7767 42.1818 80.6935 42.2767C80.5377 42.4539 80.3496 42.6 80.1393 42.7071C80.0053 42.7627 79.8879 42.8636 79.7519 42.913C79.6008 42.9473 79.4441 42.9498 79.292 42.9203C79.1398 42.8909 78.9954 42.8302 78.868 42.7421C78.6865 42.6156 78.5524 42.4323 78.4868 42.2211C78.3961 42.0255 78.3199 41.8278 78.2272 41.6363C78.1559 41.4383 78.1217 41.2289 78.1262 41.0186C78.0912 40.7097 78.0891 40.4008 78.0706 40.0569C78.015 40.092 77.9387 40.127 77.9428 40.1352C77.9758 40.2464 77.9573 40.3102 77.8295 40.3308C77.8048 40.3308 77.7883 40.3926 77.7656 40.4276C77.7431 40.4796 77.7132 40.5281 77.677 40.5717C77.5514 40.6891 77.3783 40.7777 77.2959 40.9177C77.1702 41.136 76.9456 41.2595 76.8281 41.4675C76.7745 41.5784 76.7051 41.6811 76.6221 41.7722C76.5049 41.8962 76.3803 42.0131 76.2492 42.1223C76.1977 42.1655 76.107 42.1594 76.0431 42.1738C75.965 42.3056 75.8782 42.4322 75.7835 42.5527C75.7089 42.6147 75.6265 42.6666 75.5383 42.7071C75.4388 42.7614 75.3438 42.8233 75.254 42.8924C75.153 42.9686 75.0747 43.0778 74.9696 43.1436C74.8875 43.1993 74.788 43.2234 74.6894 43.2116C74.5971 43.1856 74.4988 43.1895 74.4089 43.2228C74.3189 43.2561 74.2418 43.317 74.1887 43.3969C74.1887 43.4093 74.1578 43.4093 74.1599 43.4093C74.0172 43.3384 73.8795 43.2579 73.7478 43.1684C73.6445 43.086 73.5625 42.9801 73.5088 42.8595C73.4284 42.6536 73.2492 42.4888 73.2615 42.2417C73.2638 42.208 73.2544 42.1745 73.2348 42.147C72.9957 41.8546 73.0287 41.4984 73.0287 41.1648C73.0097 40.7614 73.0422 40.3573 73.1256 39.9622C73.1466 39.7983 73.1501 39.6327 73.1359 39.468C73.1359 39.4021 73.107 39.3198 73.1359 39.2765C73.2986 39.048 73.2883 38.7823 73.3419 38.527C73.3909 38.2242 73.4817 37.9297 73.6118 37.6518C73.7251 37.3548 73.8835 37.0769 74.0816 36.8282C74.1331 36.7746 74.1331 36.6737 74.1702 36.6017C74.3821 36.1709 74.628 35.7578 74.9058 35.3662C75.1721 35.0156 75.4663 34.6871 75.7856 34.3839C75.9003 34.2294 76.0579 34.112 76.2389 34.0462C76.2544 34.0417 76.2677 34.0314 76.2759 34.0174C76.5026 33.7044 76.8632 33.55 77.1372 33.2988C77.4463 33.0208 77.8501 32.8869 78.1674 32.6316C78.2169 32.6001 78.2723 32.5791 78.3302 32.5698C78.5362 32.5163 78.7279 32.4504 78.9339 32.4154C79.0467 32.4025 79.1608 32.4123 79.2698 32.4442C79.3128 32.459 79.359 32.4625 79.4037 32.4542C79.4485 32.4459 79.4904 32.4261 79.5253 32.3968C79.6581 32.2816 79.8168 32.2001 79.9879 32.1593C80.159 32.1184 80.3374 32.1194 80.5081 32.1621C80.8522 32.2177 81.1942 32.2795 81.5383 32.3454C81.6573 32.3775 81.7666 32.4382 81.8567 32.5222C81.9468 32.6061 82.0151 32.7109 82.0555 32.8272C82.074 32.924 82.0555 32.9899 81.9648 33.0331C81.8741 33.0764 81.8288 33.1546 81.8165 33.2802C81.8041 33.4058 81.7814 33.6015 81.5589 33.6241C81.5372 33.6289 81.5168 33.6383 81.499 33.6516C81.4813 33.665 81.4666 33.682 81.456 33.7016C81.4455 33.7211 81.4393 33.7427 81.4378 33.7649C81.4364 33.7871 81.4397 33.8093 81.4476 33.83C81.4769 33.9314 81.4674 34.0401 81.4208 34.1348C81.3578 34.3583 81.2664 34.5728 81.1489 34.7731C81.1344 34.7999 81.1221 34.8452 81.1365 34.8658C81.1901 34.9502 81.1365 35.0038 81.1118 35.0717C81.0871 35.1397 81.1118 35.222 81.0376 35.2776C81.014 35.3011 81.0007 35.3329 81.0005 35.3662C81.0747 35.6421 80.8851 35.8233 80.7759 36.0333C80.7531 36.0802 80.7371 36.1302 80.7285 36.1816C80.6853 36.4493 80.4978 36.6058 80.4669 36.9435C80.3906 37.0053 80.4051 37.1638 80.3618 37.273C80.2513 37.5036 80.1815 37.7516 80.1557 38.006C80.1557 38.0561 80.1374 38.1044 80.1042 38.1419C79.8982 38.3211 79.9188 38.5538 79.9332 38.7844C79.9332 38.8173 79.9559 38.8585 79.9332 38.8812C79.8569 39.0369 79.8316 39.2127 79.8611 39.3836C79.8404 39.4342 79.8134 39.4819 79.7807 39.5257C79.6592 39.6563 79.5801 39.8208 79.5541 39.9972C79.5088 40.234 79.5541 40.4688 79.5129 40.7035C79.5277 40.7241 79.5474 40.7406 79.5702 40.7514C79.5931 40.7623 79.6183 40.7673 79.6436 40.7659C79.6688 40.7644 79.6933 40.7566 79.7148 40.7432C79.7363 40.7298 79.754 40.7112 79.7663 40.6891C79.824 40.6191 79.8961 40.5594 79.9497 40.4832C80.1264 40.2304 80.3302 39.9977 80.5575 39.7893C80.6791 39.6781 80.7182 39.4804 80.8295 39.3548C81.0355 39.1344 81.0747 38.8338 81.2704 38.6052C81.3755 38.4776 81.4765 38.3396 81.5877 38.2099C81.6418 38.1395 81.6894 38.0644 81.7299 37.9854C81.7546 37.9422 81.7732 37.8928 81.8 37.8536C82.039 37.5221 82.2883 37.1968 82.5149 36.8591C82.6592 36.6531 82.8075 36.4308 82.9476 36.2104C83.1825 35.8357 83.3453 35.4279 83.5658 35.0532C83.6157 34.9487 83.681 34.8522 83.7594 34.7669C83.9305 34.6187 83.9428 34.3551 84.153 34.2398C84.1983 34.2151 84.1962 34.1142 84.2292 34.0586C84.2766 33.9721 84.3425 33.898 84.3899 33.8136C84.5239 33.5809 84.7361 33.4017 84.7835 33.1114C84.7955 33.0648 84.8172 33.0213 84.8473 32.9837C84.9627 32.8293 84.9339 32.7057 84.7526 32.6584C84.6701 32.6336 84.6269 32.6089 84.6125 32.5142C84.604 32.4838 84.588 32.4561 84.5661 32.4334C84.5441 32.4108 84.5169 32.394 84.4868 32.3845C84.3054 32.3845 84.2313 32.2671 84.1612 32.1147L84.3528 32.0035C84.1055 31.8812 83.9077 31.6776 83.7924 31.427C83.778 31.394 83.7347 31.3755 83.7038 31.3508L83.4978 31.1922C83.5548 31.1798 83.6126 31.1716 83.6708 31.1675C84.1406 31.2046 84.5383 31.009 84.9359 30.7989C84.996 30.7715 85.06 30.7535 85.1255 30.7454C85.3219 30.7171 85.5055 30.6311 85.653 30.4983C85.735 30.4289 85.8337 30.382 85.9394 30.3624C86.0982 30.3244 86.2476 30.2544 86.3782 30.1565C86.4209 30.1388 86.4572 30.1087 86.4825 30.0702C86.5079 30.0316 86.5211 29.9864 86.5204 29.9403C86.5239 29.8909 86.5418 29.8437 86.5719 29.8044C86.7203 29.5552 86.8625 29.306 87.0087 29.0569C87.1962 28.7096 87.364 28.3521 87.5115 27.9861C87.5273 27.9187 87.5329 27.8493 87.528 27.7802C87.5292 27.7224 87.5403 27.6653 87.5609 27.6113C87.6604 27.3858 87.7732 27.1665 87.8988 26.9545C88.008 26.7627 88.0682 26.547 88.074 26.3264C88.0908 26.1593 88.1634 26.0026 88.28 25.8816C88.2986 25.8631 88.3212 25.8343 88.3398 25.8363C88.5458 25.8672 88.7292 25.7416 88.9435 25.8137C89.1575 25.905 89.3867 25.9553 89.6193 25.9619C89.7617 25.9769 89.9008 26.0144 90.0314 26.0731C90.053 26.3426 89.9801 26.6112 89.8253 26.833C89.7876 26.9171 89.764 27.0068 89.7553 27.0986C89.6111 27.4425 89.4607 27.7843 89.3308 28.1282C89.3017 28.2474 89.2879 28.3699 89.2896 28.4927C89.3192 28.487 89.3481 28.4788 89.3762 28.468C89.6914 28.3094 89.9943 28.1261 90.3281 27.9943C90.5732 27.9127 90.8248 27.8521 91.0801 27.8131C91.1214 27.8028 91.1873 27.8131 91.2017 27.7987C91.3109 27.634 91.5231 27.7143 91.6344 27.6278C91.8281 27.4796 91.962 27.6278 92.0877 27.6855C92.2134 27.7431 92.2484 27.8914 92.2793 28.0149C92.2869 28.084 92.3209 28.1474 92.3741 28.192C92.4131 28.2342 92.4358 28.289 92.438 28.3465C92.4517 28.4599 92.4592 28.574 92.4606 28.6883C92.4647 28.7204 92.4647 28.7529 92.4606 28.7851C92.4442 28.8571 92.4256 28.9292 92.4029 29.0322L92.1619 29.1887C92.0403 29.269 91.8796 29.3122 91.8569 29.4934C91.6365 29.6252 91.5293 29.965 91.1646 29.8311C91.1646 29.9917 91.0822 30.037 90.9689 30.105C90.6351 30.2564 90.3187 30.4435 90.0252 30.663C89.8295 30.8213 89.6229 30.9658 89.4071 31.0955C89.1351 31.2602 88.8466 31.3879 88.5829 31.5443C88.3192 31.7008 88.0637 31.8738 87.802 32.0283C87.716 32.0738 87.6264 32.1124 87.5341 32.1436C87.4743 32.3007 87.3969 32.4506 87.3034 32.5904C87.2031 32.6923 87.1271 32.8155 87.0809 32.9508C87.0776 32.9586 87.0718 32.9652 87.0644 32.9693C86.881 33.0002 86.8583 33.1587 86.8027 33.2967C86.7471 33.4347 86.6358 33.5335 86.6379 33.69C86.6379 33.7291 86.5925 33.7744 86.5575 33.8033C86.5225 33.8321 86.4359 33.8877 86.3721 33.933C86.393 34.1586 86.3456 34.3853 86.2361 34.5837C86.1413 34.7896 86.0527 35.0058 85.9456 35.2488C85.894 35.2797 85.7993 35.327 85.6859 35.3888C85.7972 35.5556 85.6859 35.6936 85.6365 35.8377C85.587 35.9819 85.5417 36.0807 85.4861 36.2001C85.4572 36.264 85.4016 36.3175 85.3748 36.3813C85.348 36.4452 85.3192 36.5625 85.2842 36.649C85.1935 36.8755 85.107 37.102 85.006 37.3244C84.937 37.4836 84.9019 37.6554 84.903 37.8289C84.903 37.9092 84.903 38.0163 84.8597 38.0657C84.6413 38.3025 84.6537 38.6135 84.5486 38.8894C84.5318 38.9431 84.5068 38.9938 84.4744 39.0397C84.3796 39.1633 84.3013 39.2827 84.4126 39.4413C84.4311 39.466 84.4126 39.5133 84.4126 39.5504C84.3561 39.7514 84.3276 39.9593 84.3281 40.1681C84.3528 40.3702 84.3879 40.5709 84.4332 40.7694C84.4909 40.9918 84.6392 41.0454 84.8329 40.9239C84.9957 40.823 85.1461 40.7056 85.3048 40.6006C85.5108 40.4647 85.7168 40.3329 85.9229 40.2032C85.9792 40.1702 86.0377 40.1413 86.098 40.1167C86.1289 40.1023 86.1763 40.1043 86.1907 40.0837C86.3335 39.9129 86.5095 39.7728 86.7079 39.6719C86.7909 39.622 86.8707 39.5669 86.9469 39.5072C87.1406 39.3568 87.3384 39.2106 87.5197 39.0459C87.87 38.7247 88.2079 38.3931 88.5499 38.0657C88.7107 38.0657 88.7004 37.8598 88.8405 37.8063C88.9806 37.7527 89.0465 37.6189 89.1454 37.5221C89.2443 37.4253 89.335 37.3656 89.4174 37.2791C89.4704 37.2297 89.5095 37.1672 89.5307 37.0979C89.574 36.8488 89.6028 36.5975 89.6358 36.3443C89.6646 36.1384 89.6791 35.918 89.7223 35.708C89.7931 35.5208 89.8375 35.3247 89.8542 35.1252C89.8542 35.1108 89.8542 35.0861 89.8707 35.082C89.984 35.0264 89.9819 34.9255 90.0108 34.8225C90.0535 34.736 90.086 34.6448 90.1076 34.5507C90.1128 34.5008 90.1313 34.4531 90.1612 34.4128C90.3239 34.196 90.4295 33.9418 90.4682 33.6735C90.4822 33.5673 90.525 33.4669 90.5918 33.3832C90.7071 33.2502 90.7828 33.0875 90.8102 32.9137C90.8411 32.7984 90.837 32.6563 90.9854 32.6007C90.9919 32.5962 90.9974 32.5904 91.0017 32.5836C91.0059 32.5769 91.0088 32.5694 91.0101 32.5616C91.0101 32.4689 90.9854 32.3557 91.1317 32.331C91.1317 32.125 91.3377 32.0097 91.3583 31.812C91.3847 31.7257 91.425 31.6443 91.4778 31.5711C91.4922 31.5423 91.5334 31.5196 91.5334 31.4908C91.5334 31.2108 91.7786 31.0501 91.8796 30.8175C91.9833 30.6309 92.1235 30.4671 92.2917 30.3356C92.5972 30.0915 92.9568 29.9241 93.3404 29.8476C93.7876 29.7302 94.212 29.8352 94.6406 29.9217C94.6791 29.9379 94.7152 29.9594 94.7477 29.9856C94.8183 30.0378 94.8969 30.0781 94.9805 30.105C95.1118 30.1268 95.2324 30.1904 95.3246 30.2862C95.3402 30.304 95.3591 30.3184 95.3804 30.3287C95.4016 30.3389 95.4247 30.3448 95.4483 30.3459C95.6873 30.3164 95.9298 30.3587 96.1447 30.4674C96.2526 30.4998 96.3639 30.5192 96.4764 30.5251C96.4899 30.5927 96.5202 30.6558 96.5645 30.7087C96.6088 30.7616 96.6656 30.8025 96.7298 30.8278C96.8082 30.8755 96.8684 30.9479 96.9009 31.0337C96.9627 31.1984 96.9977 31.3734 97.043 31.5423C96.9091 31.7688 97.0966 32.0962 96.8143 32.2754C96.8079 32.2805 96.8035 32.2878 96.802 32.2959C96.7854 32.4137 96.7528 32.5287 96.7051 32.6378C96.6474 32.7366 96.4867 32.7448 96.4702 32.9055C96.4702 32.9734 96.3672 33.0331 96.3178 33.097L95.8336 33.7147C95.8336 33.7271 95.8212 33.7559 95.8109 33.758C95.5801 33.795 95.5698 34.0483 95.4132 34.1554C95.2567 34.2625 95.0774 34.3613 94.9043 34.4766C94.9043 34.6825 94.9043 34.6825 94.6735 34.7752C94.6326 34.7865 94.5951 34.8077 94.5643 34.837C94.4139 35.0552 94.1646 35.15 93.973 35.3126C93.94 35.3394 93.8844 35.3641 93.8844 35.3929C93.8741 35.5 93.7917 35.5247 93.7196 35.5597C93.4569 35.6649 93.246 35.869 93.1323 36.1281C93.1253 36.1429 93.1138 36.1551 93.0994 36.1631C92.815 36.2372 92.745 36.6058 92.438 36.6429C92.2917 36.7952 92.1475 36.9497 91.9991 37.1C91.9505 37.1549 91.8899 37.1979 91.8219 37.2256C91.7131 37.2613 91.6205 37.3342 91.5602 37.4315C91.4481 37.572 91.3129 37.6924 91.1605 37.7877C91.1225 37.8102 91.0909 37.8421 91.0689 37.8803C91.0468 37.9186 91.0351 37.9619 91.0348 38.006C91.0209 38.1379 90.9946 38.2682 90.9565 38.3952C90.9462 38.4529 90.9153 38.529 90.938 38.5641C91.0101 38.6711 90.9916 38.7514 90.9009 38.807C90.9442 38.9079 90.9854 38.9821 91.0101 39.0603C91.0225 39.1036 91.0245 39.1736 90.9977 39.1983C90.8865 39.3033 90.938 39.4042 91.0204 39.4763C91.0648 39.507 91.0979 39.5514 91.1146 39.6027C91.1314 39.6541 91.1308 39.7094 91.1131 39.7604C91.1092 39.8163 91.1246 39.8718 91.1569 39.9176C91.1892 39.9634 91.2363 39.9966 91.2903 40.0116C91.4006 40.0471 91.517 40.0598 91.6323 40.0487C91.8384 40.0096 92.0444 40.0487 92.2196 39.884C92.2999 39.8078 92.4586 39.8181 92.5678 39.7604C92.8253 39.6286 93.0726 39.4804 93.3281 39.3383C93.5101 39.2239 93.6986 39.1201 93.8926 39.0274C94.1935 38.8997 94.4036 38.6526 94.6715 38.4817C94.7268 38.4468 94.7864 38.4192 94.8487 38.3993C94.8974 38.3863 94.943 38.3635 94.9826 38.3324C95.0223 38.3012 95.0553 38.2623 95.0795 38.2181C95.0973 38.1805 95.1225 38.1469 95.1536 38.1193C95.3308 37.9772 95.5121 37.8392 95.6893 37.6971C96.0211 37.4295 96.3549 37.1597 96.6866 36.8858C96.8926 36.7273 97.0801 36.5708 97.2594 36.3937C97.3512 36.2886 97.4327 36.1748 97.5025 36.0539C97.5777 35.9246 97.661 35.8001 97.7518 35.6812C97.9809 35.3937 98.2461 35.1369 98.541 34.9173C98.6178 34.8435 98.6868 34.7621 98.747 34.6743C98.8913 34.5178 99.0375 34.3613 99.1859 34.211C99.2374 34.1616 99.3054 34.1327 99.361 34.0874C99.5506 33.9309 99.736 33.7662 99.9318 33.6138C100.144 33.4746 100.346 33.3211 100.538 33.1546C100.73 32.9717 100.955 32.8265 101.201 32.7263C101.461 32.5986 101.572 32.366 101.751 32.1827C101.97 31.9603 102.116 31.6741 102.396 31.5032C102.523 31.4013 102.634 31.2813 102.726 31.1469C103.004 30.8216 103.301 30.6795 103.739 30.8195C103.928 30.8919 104.108 30.9823 104.279 31.0893C104.454 31.184 104.646 31.2458 104.821 31.3405C104.938 31.4182 105.049 31.5057 105.151 31.602C105.181 31.8262 105.225 32.0483 105.283 32.2671C105.357 32.5142 105.173 32.7284 105.231 32.9652C105.052 33.1526 105.052 33.1526 105.077 33.3214C104.992 33.3903 104.916 33.4699 104.852 33.5582C104.822 33.6082 104.778 33.6484 104.726 33.674C104.674 33.6995 104.615 33.7094 104.557 33.7024C104.529 33.7046 104.5 33.701 104.474 33.6917C104.447 33.6824 104.422 33.6675 104.401 33.6482C104.38 33.6288 104.363 33.6054 104.352 33.5792C104.341 33.5531 104.335 33.5249 104.335 33.4964C104.32 33.2205 104.129 33.0228 104.049 32.7819C104.039 32.7394 104.017 32.7003 103.987 32.6687C103.957 32.6371 103.919 32.6141 103.877 32.6022C103.835 32.5902 103.791 32.5897 103.748 32.6006C103.706 32.6116 103.667 32.6337 103.636 32.6645C103.43 32.8993 103.117 33.0105 102.983 33.3111C102.959 33.3546 102.922 33.3903 102.878 33.4141C102.793 33.4726 102.719 33.5459 102.66 33.6303C102.491 33.8362 102.277 33.9948 102.093 34.1801C101.985 34.2741 101.897 34.3899 101.836 34.5198C101.788 34.6578 101.693 34.6887 101.559 34.7361L101.524 34.734ZM74.3762 40.7221C74.4658 40.6783 74.5514 40.6266 74.6317 40.5676C74.8543 40.3617 75.0706 40.1558 75.289 39.9334C75.3755 39.849 75.4641 39.7604 75.5445 39.6698C75.6743 39.5298 75.8041 39.3898 75.9216 39.2415C76.0778 39.0404 76.2616 38.8622 76.4676 38.7123C76.4964 38.6897 76.5047 38.6402 76.5273 38.6073L76.8941 38.0884C76.9423 38.023 76.9856 37.9541 77.0239 37.8825C77.0782 37.7434 77.1525 37.613 77.2444 37.4953C77.438 37.3121 77.471 37.0238 77.6956 36.8776C77.7924 36.5296 78.1242 36.3072 78.1922 35.9469C78.3852 35.7336 78.5474 35.4945 78.6743 35.2364C78.8103 35.0202 78.8803 34.7793 79.0184 34.561C79.0423 34.4906 79.0555 34.4171 79.0575 34.3428C78.9859 34.3603 78.9167 34.3866 78.8515 34.421C78.6668 34.5819 78.4583 34.7132 78.2334 34.8102C78.2066 34.8102 78.188 34.8514 78.1674 34.8761C78.0229 35.0777 77.8264 35.2364 77.5987 35.3353C77.5041 35.3819 77.4238 35.453 77.3659 35.5412C77.2588 35.6833 77.2464 35.9036 77.0218 35.953C77.0053 35.953 77.0012 36.0004 76.9868 36.0148C76.9724 36.0292 76.8982 36.1033 76.8529 36.1075C76.8027 36.1079 76.7538 36.1229 76.7121 36.1507C76.6703 36.1785 76.6376 36.2179 76.618 36.264C76.6056 36.2853 76.5887 36.3035 76.5684 36.3174C76.5481 36.3313 76.5249 36.3405 76.5005 36.3443C76.3584 36.3607 76.3089 36.4699 76.2636 36.5728C76.2457 36.6197 76.2181 36.6623 76.1826 36.6978C76.1471 36.7333 76.1045 36.7609 76.0575 36.7788C75.9689 36.8158 75.8515 36.9044 75.8515 36.9847C75.8206 37.1906 75.6578 37.2379 75.5404 37.3471C75.4641 37.4251 75.3951 37.5098 75.3343 37.6004C75.2499 37.7219 75.1777 37.8516 75.0953 37.971C75.0685 38.0143 75.0191 38.0431 75.0005 38.0863C74.8996 38.3499 74.7945 38.6094 74.708 38.8791C74.6441 39.085 74.6214 39.3177 74.5782 39.5298C74.5372 39.739 74.5124 39.951 74.504 40.164C74.504 40.2896 74.5431 40.4482 74.3804 40.5347C74.3618 40.5347 74.3804 40.6212 74.3804 40.7262L74.3762 40.7221ZM93.7958 33.7785C93.8452 33.6488 93.8473 33.655 94.0719 33.4923C94.1584 33.4264 94.2779 33.3358 94.2779 33.2452C94.3067 33.115 94.3795 32.9987 94.484 32.9158C94.5526 32.8587 94.6081 32.7874 94.6465 32.7068C94.6849 32.6263 94.7054 32.5383 94.7066 32.4491C94.7078 32.3599 94.6896 32.2714 94.6533 32.1899C94.617 32.1084 94.5634 32.0357 94.4963 31.9768C94.4613 31.9418 94.4284 31.9047 94.3933 31.8676C94.3415 31.8106 94.2777 31.7656 94.2064 31.7361C94.1352 31.7066 94.0583 31.6931 93.9812 31.6967C93.4682 31.6967 93.1818 32.0427 92.9634 32.4874C92.9222 32.576 92.883 32.6666 92.8336 32.751C92.7244 32.9569 92.6111 33.1629 92.4998 33.3564C92.4318 33.4779 92.3782 33.6097 92.2937 33.7271C92.2484 33.7765 92.2181 33.8378 92.2064 33.9038C92.1947 33.9698 92.2022 34.0378 92.2278 34.0998C92.2365 34.1263 92.2387 34.1545 92.2345 34.182C92.2302 34.2096 92.2194 34.2357 92.2031 34.2583C92.1481 34.312 92.1043 34.376 92.0742 34.4467C92.0442 34.5174 92.0284 34.5934 92.0279 34.6702C92.0109 34.7535 91.9875 34.8354 91.9579 34.9152L92.0156 34.9708C92.5039 34.456 93.1962 34.2748 93.7896 33.7868L93.7958 33.7785ZM101.23 40.788C101.221 40.7733 101.214 40.7582 101.207 40.7427C101.11 40.8024 101.028 40.6685 100.933 40.7427C100.665 40.9486 100.754 40.6994 100.48 40.9486C100.455 40.9486 100.128 41.0124 100.107 41.0268C99.8782 41.2019 99.9256 40.9918 99.7319 41.2142C99.8349 41.0083 99.2415 41.626 99.1756 41.6405C98.7491 41.7434 98.508 42.5197 98.2793 42.8265C98.2431 42.8891 98.2297 42.9622 98.2414 43.0336C98.253 43.1049 98.289 43.17 98.3432 43.2178C98.4524 43.3269 98.5657 43.2651 98.6667 43.2178C98.7428 43.1833 98.8072 43.1275 98.8521 43.0572C98.9315 42.9392 99.0411 42.8447 99.1694 42.7833C99.4015 42.6592 99.6174 42.507 99.8123 42.3303C100.013 42.1245 100.229 41.9332 100.457 41.7578C100.696 41.5643 100.956 41.3995 101.055 41.0804C101.073 41.0145 101.143 40.965 101.184 40.9033C101.204 40.869 101.219 40.8323 101.23 40.7941" fill="#92979D"/>
</svg>
