<svg width="16" height="59" viewBox="0 0 16 59" fill="none" xmlns="http://www.w3.org/2000/svg">
<path d="M9 1C9 0.447715 8.55228 2.41411e-08 8 0C7.44772 -2.41411e-08 7 0.447715 7 1L9 1ZM7.29289 58.7071C7.68341 59.0976 8.31658 59.0976 8.7071 58.7071L15.0711 52.3431C15.4616 51.9526 15.4616 51.3195 15.0711 50.9289C14.6805 50.5384 14.0474 50.5384 13.6569 50.9289L8 56.5858L2.34314 50.9289C1.95262 50.5384 1.31945 50.5384 0.92893 50.9289C0.538406 51.3195 0.538406 51.9526 0.92893 52.3431L7.29289 58.7071ZM7 1L7 58L9 58L9 1L7 1Z" fill="#F0F2F3"/>
</svg>
