<svg width="301" height="301" viewBox="0 0 301 301" fill="none" xmlns="http://www.w3.org/2000/svg">
<rect x="150.103" width="212.278" height="212.278" transform="rotate(45 150.103 0)" fill="#4200FF"/>
<path d="M75.7032 298C83.0218 298 88.6675 291.117 88.6675 281.315C88.6675 276.518 86.7856 268.801 83.2309 257.956C79.6761 247.111 77.7942 237.099 77.7942 228.131V225.42C86.9947 231.26 93.2677 236.057 96.1951 239.394C102.259 246.276 118.151 265.881 130.488 265.881C137.806 265.881 142.825 260.667 142.825 254.41C142.825 250.865 141.361 247.736 138.434 244.608C132.579 238.559 119.614 235.639 104.35 232.302C96.6133 230.634 88.4584 227.506 79.467 222.5C88.6675 217.494 97.0315 214.157 104.977 212.489C112.714 210.82 119.614 209.152 125.469 207.275C137.597 203.312 142.825 197.264 142.825 190.173C142.825 183.707 137.806 179.119 131.115 179.119C126.933 179.119 122.96 180.37 118.987 183.081C115.223 185.584 108.323 192.258 98.4952 203.104C88.2493 212.906 89.713 212.072 77.7942 219.58C77.7942 209.569 79.6761 198.932 83.44 187.878C87.2038 176.825 89.0857 168.691 89.0857 163.685C89.0857 153.674 83.44 147 76.1214 147C68.5938 147 63.1572 154.091 63.1572 163.685C63.1572 170.985 68.3847 186.627 71.7303 196.638C73.4031 201.644 74.0304 208.526 74.0304 216.869V219.58C65.6664 214.575 59.1842 209.36 54.584 204.146C45.3836 193.718 32.4193 179.119 21.337 179.119C14.0184 179.119 9 183.916 9 190.173C9 193.718 10.4637 197.055 13.182 200.184C18.6186 206.441 31.1647 209.152 46.8473 212.489C54.7931 214.157 63.3663 217.494 72.3576 222.5C63.5754 227.506 55.2113 230.843 47.6837 232.302C39.947 233.762 33.0466 235.639 26.9827 237.308C14.6457 240.645 9 247.528 9 254.41C9 260.667 14.4366 265.881 21.1279 265.881C32.0011 265.881 42.2471 254.41 52.7021 242.731C57.9296 236.891 64.83 231.051 74.0304 225.42C74.0304 236.265 72.1485 246.693 68.3847 257.539C64.6209 268.175 62.739 276.101 62.739 281.315C62.739 290.7 67.9665 298 75.7032 298Z" fill="black"/>
<path d="M216.102 142H226.898L224.019 90.1758L241.654 139.121L251.371 135.162L229.058 88.0165L263.967 126.885L271.525 118.967L233.016 84.4176L279.802 106.731L284.121 96.6538L234.816 79.3791L287 81.8983V71.1016L234.816 73.9808L284.121 56.3461L279.802 46.6291L233.016 68.9423L271.525 34.033L263.967 26.4753L229.058 64.9835L251.371 18.1978L241.654 13.8791L224.019 62.8242L226.898 11H216.102L218.621 63.1841L201.346 13.8791L191.269 18.1978L213.582 64.9835L179.033 26.4753L171.115 34.033L209.984 68.9423L162.838 46.6291L158.879 56.3461L207.824 73.9808L156 71.1016V81.8983L207.824 79.3791L158.879 96.6538L162.838 106.731L209.984 84.4176L171.115 118.967L179.033 126.885L213.582 88.0165L191.269 135.162L201.346 139.121L218.621 90.1758L216.102 142Z" fill="black"/>
</svg>
